<mxfile host="app.diagrams.net" modified="2023-06-14T08:17:59.397Z" agent="Mozilla/5.0 (Windows NT 10.0; Win64; x64) AppleWebKit/537.36 (KHTML, like Gecko) Chrome/114.0.0.0 Safari/537.36" etag="PLpEpYD5feT_PreOe2bk" version="21.3.7" type="device" pages="6">
  <diagram name="흐름도1" id="bZlaUnw_jwsnWhHjAgiw">
    <mxGraphModel dx="1050" dy="573" grid="1" gridSize="10" guides="1" tooltips="1" connect="1" arrows="1" fold="1" page="1" pageScale="1" pageWidth="1654" pageHeight="1169" math="0" shadow="0">
      <root>
        <mxCell id="0" />
        <mxCell id="1" parent="0" />
        <mxCell id="2WCMNSjcpPkd44kX0M62-86" style="edgeStyle=none;rounded=0;orthogonalLoop=1;jettySize=auto;html=1;exitX=0.5;exitY=1;exitDx=0;exitDy=0;exitPerimeter=0;entryX=0.5;entryY=0;entryDx=0;entryDy=0;entryPerimeter=0;strokeWidth=2;endArrow=block;endFill=1;" parent="1" target="2WCMNSjcpPkd44kX0M62-3" edge="1">
          <mxGeometry relative="1" as="geometry">
            <mxPoint x="340" y="159" as="sourcePoint" />
          </mxGeometry>
        </mxCell>
        <mxCell id="2WCMNSjcpPkd44kX0M62-96" style="edgeStyle=orthogonalEdgeStyle;rounded=0;orthogonalLoop=1;jettySize=auto;html=1;exitX=1;exitY=0.5;exitDx=0;exitDy=0;exitPerimeter=0;entryX=0;entryY=0.5;entryDx=0;entryDy=0;entryPerimeter=0;strokeWidth=2;endArrow=block;endFill=1;" parent="1" source="2WCMNSjcpPkd44kX0M62-3" target="2WCMNSjcpPkd44kX0M62-6" edge="1">
          <mxGeometry relative="1" as="geometry" />
        </mxCell>
        <mxCell id="2WCMNSjcpPkd44kX0M62-97" style="edgeStyle=orthogonalEdgeStyle;rounded=0;orthogonalLoop=1;jettySize=auto;html=1;exitX=1;exitY=0.5;exitDx=0;exitDy=0;exitPerimeter=0;entryX=0;entryY=0.5;entryDx=0;entryDy=0;entryPerimeter=0;strokeWidth=2;endArrow=block;endFill=1;" parent="1" source="2WCMNSjcpPkd44kX0M62-3" target="2WCMNSjcpPkd44kX0M62-5" edge="1">
          <mxGeometry relative="1" as="geometry" />
        </mxCell>
        <mxCell id="2WCMNSjcpPkd44kX0M62-98" style="edgeStyle=orthogonalEdgeStyle;rounded=0;orthogonalLoop=1;jettySize=auto;html=1;exitX=1;exitY=0.5;exitDx=0;exitDy=0;exitPerimeter=0;entryX=0;entryY=0.5;entryDx=0;entryDy=0;entryPerimeter=0;strokeWidth=2;endArrow=block;endFill=1;" parent="1" source="2WCMNSjcpPkd44kX0M62-3" target="2WCMNSjcpPkd44kX0M62-4" edge="1">
          <mxGeometry relative="1" as="geometry" />
        </mxCell>
        <mxCell id="2WCMNSjcpPkd44kX0M62-3" value="&lt;b&gt;&lt;br&gt;&lt;span data-sheets-userformat=&quot;{&amp;quot;2&amp;quot;:25343,&amp;quot;3&amp;quot;:{&amp;quot;1&amp;quot;:0},&amp;quot;4&amp;quot;:{&amp;quot;1&amp;quot;:2,&amp;quot;2&amp;quot;:14281427},&amp;quot;5&amp;quot;:{&amp;quot;1&amp;quot;:[{&amp;quot;1&amp;quot;:2,&amp;quot;2&amp;quot;:0,&amp;quot;5&amp;quot;:{&amp;quot;1&amp;quot;:2,&amp;quot;2&amp;quot;:0}},{&amp;quot;1&amp;quot;:0,&amp;quot;2&amp;quot;:0,&amp;quot;3&amp;quot;:3},{&amp;quot;1&amp;quot;:1,&amp;quot;2&amp;quot;:0,&amp;quot;4&amp;quot;:3}]},&amp;quot;6&amp;quot;:{&amp;quot;1&amp;quot;:[{&amp;quot;1&amp;quot;:2,&amp;quot;2&amp;quot;:0,&amp;quot;5&amp;quot;:{&amp;quot;1&amp;quot;:2,&amp;quot;2&amp;quot;:0}},{&amp;quot;1&amp;quot;:0,&amp;quot;2&amp;quot;:0,&amp;quot;3&amp;quot;:3},{&amp;quot;1&amp;quot;:1,&amp;quot;2&amp;quot;:0,&amp;quot;4&amp;quot;:1}]},&amp;quot;7&amp;quot;:{&amp;quot;1&amp;quot;:[{&amp;quot;1&amp;quot;:2,&amp;quot;2&amp;quot;:0,&amp;quot;5&amp;quot;:{&amp;quot;1&amp;quot;:2,&amp;quot;2&amp;quot;:0}},{&amp;quot;1&amp;quot;:0,&amp;quot;2&amp;quot;:0,&amp;quot;3&amp;quot;:3},{&amp;quot;1&amp;quot;:1,&amp;quot;2&amp;quot;:0,&amp;quot;4&amp;quot;:1}]},&amp;quot;8&amp;quot;:{&amp;quot;1&amp;quot;:[{&amp;quot;1&amp;quot;:2,&amp;quot;2&amp;quot;:0,&amp;quot;5&amp;quot;:{&amp;quot;1&amp;quot;:2,&amp;quot;2&amp;quot;:0}},{&amp;quot;1&amp;quot;:0,&amp;quot;2&amp;quot;:0,&amp;quot;3&amp;quot;:3},{&amp;quot;1&amp;quot;:1,&amp;quot;2&amp;quot;:0,&amp;quot;4&amp;quot;:1}]},&amp;quot;9&amp;quot;:1,&amp;quot;10&amp;quot;:1,&amp;quot;12&amp;quot;:0,&amp;quot;16&amp;quot;:10,&amp;quot;17&amp;quot;:1}&quot; data-sheets-value=&quot;{&amp;quot;1&amp;quot;:2,&amp;quot;2&amp;quot;:&amp;quot;GEN_001&amp;quot;}&quot; style=&quot;font-size: 10pt; font-family: Arial; font-style: normal; text-align: center;&quot;&gt;GEN_001&lt;br&gt;&lt;/span&gt;초기메인&lt;br&gt;&lt;br&gt;&lt;/b&gt;" style="strokeWidth=2;html=1;shape=mxgraph.flowchart.display;whiteSpace=wrap;fillColor=#d5e8d4;strokeColor=#82b366;" parent="1" vertex="1">
          <mxGeometry x="290" y="189" width="100" height="60" as="geometry" />
        </mxCell>
        <mxCell id="2WCMNSjcpPkd44kX0M62-84" style="edgeStyle=none;rounded=0;orthogonalLoop=1;jettySize=auto;html=1;exitX=1;exitY=0.5;exitDx=0;exitDy=0;exitPerimeter=0;entryX=0;entryY=0.5;entryDx=0;entryDy=0;entryPerimeter=0;strokeWidth=2;endArrow=block;endFill=1;" parent="1" source="2WCMNSjcpPkd44kX0M62-4" target="2WCMNSjcpPkd44kX0M62-8" edge="1">
          <mxGeometry relative="1" as="geometry" />
        </mxCell>
        <mxCell id="2WCMNSjcpPkd44kX0M62-4" value="&lt;b&gt;&lt;br&gt;&lt;span data-sheets-userformat=&quot;{&amp;quot;2&amp;quot;:25343,&amp;quot;3&amp;quot;:{&amp;quot;1&amp;quot;:0},&amp;quot;4&amp;quot;:{&amp;quot;1&amp;quot;:2,&amp;quot;2&amp;quot;:14281427},&amp;quot;5&amp;quot;:{&amp;quot;1&amp;quot;:[{&amp;quot;1&amp;quot;:2,&amp;quot;2&amp;quot;:0,&amp;quot;5&amp;quot;:{&amp;quot;1&amp;quot;:2,&amp;quot;2&amp;quot;:0}},{&amp;quot;1&amp;quot;:0,&amp;quot;2&amp;quot;:0,&amp;quot;3&amp;quot;:3},{&amp;quot;1&amp;quot;:1,&amp;quot;2&amp;quot;:0,&amp;quot;4&amp;quot;:3}]},&amp;quot;6&amp;quot;:{&amp;quot;1&amp;quot;:[{&amp;quot;1&amp;quot;:2,&amp;quot;2&amp;quot;:0,&amp;quot;5&amp;quot;:{&amp;quot;1&amp;quot;:2,&amp;quot;2&amp;quot;:0}},{&amp;quot;1&amp;quot;:0,&amp;quot;2&amp;quot;:0,&amp;quot;3&amp;quot;:3},{&amp;quot;1&amp;quot;:1,&amp;quot;2&amp;quot;:0,&amp;quot;4&amp;quot;:1}]},&amp;quot;7&amp;quot;:{&amp;quot;1&amp;quot;:[{&amp;quot;1&amp;quot;:2,&amp;quot;2&amp;quot;:0,&amp;quot;5&amp;quot;:{&amp;quot;1&amp;quot;:2,&amp;quot;2&amp;quot;:0}},{&amp;quot;1&amp;quot;:0,&amp;quot;2&amp;quot;:0,&amp;quot;3&amp;quot;:3},{&amp;quot;1&amp;quot;:1,&amp;quot;2&amp;quot;:0,&amp;quot;4&amp;quot;:1}]},&amp;quot;8&amp;quot;:{&amp;quot;1&amp;quot;:[{&amp;quot;1&amp;quot;:2,&amp;quot;2&amp;quot;:0,&amp;quot;5&amp;quot;:{&amp;quot;1&amp;quot;:2,&amp;quot;2&amp;quot;:0}},{&amp;quot;1&amp;quot;:0,&amp;quot;2&amp;quot;:0,&amp;quot;3&amp;quot;:3},{&amp;quot;1&amp;quot;:1,&amp;quot;2&amp;quot;:0,&amp;quot;4&amp;quot;:1}]},&amp;quot;9&amp;quot;:1,&amp;quot;10&amp;quot;:1,&amp;quot;12&amp;quot;:0,&amp;quot;16&amp;quot;:10,&amp;quot;17&amp;quot;:1}&quot; data-sheets-value=&quot;{&amp;quot;1&amp;quot;:2,&amp;quot;2&amp;quot;:&amp;quot;GEN_001&amp;quot;}&quot; style=&quot;font-size: 10pt; font-family: Arial; font-style: normal; text-align: center;&quot;&gt;GEN_002&lt;br&gt;&lt;/span&gt;로그인화면&lt;br&gt;&lt;br&gt;&lt;/b&gt;" style="strokeWidth=2;html=1;shape=mxgraph.flowchart.display;whiteSpace=wrap;fillColor=#d5e8d4;strokeColor=#82b366;" parent="1" vertex="1">
          <mxGeometry x="435" y="189" width="100" height="60" as="geometry" />
        </mxCell>
        <mxCell id="2WCMNSjcpPkd44kX0M62-5" value="&lt;b&gt;&lt;br&gt;&lt;span data-sheets-userformat=&quot;{&amp;quot;2&amp;quot;:25343,&amp;quot;3&amp;quot;:{&amp;quot;1&amp;quot;:0},&amp;quot;4&amp;quot;:{&amp;quot;1&amp;quot;:2,&amp;quot;2&amp;quot;:14281427},&amp;quot;5&amp;quot;:{&amp;quot;1&amp;quot;:[{&amp;quot;1&amp;quot;:2,&amp;quot;2&amp;quot;:0,&amp;quot;5&amp;quot;:{&amp;quot;1&amp;quot;:2,&amp;quot;2&amp;quot;:0}},{&amp;quot;1&amp;quot;:0,&amp;quot;2&amp;quot;:0,&amp;quot;3&amp;quot;:3},{&amp;quot;1&amp;quot;:1,&amp;quot;2&amp;quot;:0,&amp;quot;4&amp;quot;:3}]},&amp;quot;6&amp;quot;:{&amp;quot;1&amp;quot;:[{&amp;quot;1&amp;quot;:2,&amp;quot;2&amp;quot;:0,&amp;quot;5&amp;quot;:{&amp;quot;1&amp;quot;:2,&amp;quot;2&amp;quot;:0}},{&amp;quot;1&amp;quot;:0,&amp;quot;2&amp;quot;:0,&amp;quot;3&amp;quot;:3},{&amp;quot;1&amp;quot;:1,&amp;quot;2&amp;quot;:0,&amp;quot;4&amp;quot;:1}]},&amp;quot;7&amp;quot;:{&amp;quot;1&amp;quot;:[{&amp;quot;1&amp;quot;:2,&amp;quot;2&amp;quot;:0,&amp;quot;5&amp;quot;:{&amp;quot;1&amp;quot;:2,&amp;quot;2&amp;quot;:0}},{&amp;quot;1&amp;quot;:0,&amp;quot;2&amp;quot;:0,&amp;quot;3&amp;quot;:3},{&amp;quot;1&amp;quot;:1,&amp;quot;2&amp;quot;:0,&amp;quot;4&amp;quot;:1}]},&amp;quot;8&amp;quot;:{&amp;quot;1&amp;quot;:[{&amp;quot;1&amp;quot;:2,&amp;quot;2&amp;quot;:0,&amp;quot;5&amp;quot;:{&amp;quot;1&amp;quot;:2,&amp;quot;2&amp;quot;:0}},{&amp;quot;1&amp;quot;:0,&amp;quot;2&amp;quot;:0,&amp;quot;3&amp;quot;:3},{&amp;quot;1&amp;quot;:1,&amp;quot;2&amp;quot;:0,&amp;quot;4&amp;quot;:1}]},&amp;quot;9&amp;quot;:1,&amp;quot;10&amp;quot;:1,&amp;quot;12&amp;quot;:0,&amp;quot;16&amp;quot;:10,&amp;quot;17&amp;quot;:1}&quot; data-sheets-value=&quot;{&amp;quot;1&amp;quot;:2,&amp;quot;2&amp;quot;:&amp;quot;GEN_001&amp;quot;}&quot; style=&quot;font-size: 10pt; font-family: Arial; font-style: normal; text-align: center;&quot;&gt;GEN_003&lt;br&gt;비밀번호 변경&lt;br&gt;화면&lt;br&gt;&lt;/span&gt;&lt;br&gt;&lt;/b&gt;" style="strokeWidth=2;html=1;shape=mxgraph.flowchart.display;whiteSpace=wrap;fillColor=#d5e8d4;strokeColor=#82b366;" parent="1" vertex="1">
          <mxGeometry x="435" y="269" width="100" height="60" as="geometry" />
        </mxCell>
        <mxCell id="K8_61VQSk1aQlsqiykM8-1" style="edgeStyle=none;rounded=0;orthogonalLoop=1;jettySize=auto;html=1;exitX=0.5;exitY=1;exitDx=0;exitDy=0;exitPerimeter=0;entryX=0.5;entryY=0;entryDx=0;entryDy=0;strokeWidth=2;endArrow=block;endFill=1;" parent="1" source="2WCMNSjcpPkd44kX0M62-6" target="2WCMNSjcpPkd44kX0M62-219" edge="1">
          <mxGeometry relative="1" as="geometry" />
        </mxCell>
        <mxCell id="2WCMNSjcpPkd44kX0M62-6" value="&lt;b&gt;&lt;br&gt;&lt;span data-sheets-userformat=&quot;{&amp;quot;2&amp;quot;:25343,&amp;quot;3&amp;quot;:{&amp;quot;1&amp;quot;:0},&amp;quot;4&amp;quot;:{&amp;quot;1&amp;quot;:2,&amp;quot;2&amp;quot;:14281427},&amp;quot;5&amp;quot;:{&amp;quot;1&amp;quot;:[{&amp;quot;1&amp;quot;:2,&amp;quot;2&amp;quot;:0,&amp;quot;5&amp;quot;:{&amp;quot;1&amp;quot;:2,&amp;quot;2&amp;quot;:0}},{&amp;quot;1&amp;quot;:0,&amp;quot;2&amp;quot;:0,&amp;quot;3&amp;quot;:3},{&amp;quot;1&amp;quot;:1,&amp;quot;2&amp;quot;:0,&amp;quot;4&amp;quot;:3}]},&amp;quot;6&amp;quot;:{&amp;quot;1&amp;quot;:[{&amp;quot;1&amp;quot;:2,&amp;quot;2&amp;quot;:0,&amp;quot;5&amp;quot;:{&amp;quot;1&amp;quot;:2,&amp;quot;2&amp;quot;:0}},{&amp;quot;1&amp;quot;:0,&amp;quot;2&amp;quot;:0,&amp;quot;3&amp;quot;:3},{&amp;quot;1&amp;quot;:1,&amp;quot;2&amp;quot;:0,&amp;quot;4&amp;quot;:1}]},&amp;quot;7&amp;quot;:{&amp;quot;1&amp;quot;:[{&amp;quot;1&amp;quot;:2,&amp;quot;2&amp;quot;:0,&amp;quot;5&amp;quot;:{&amp;quot;1&amp;quot;:2,&amp;quot;2&amp;quot;:0}},{&amp;quot;1&amp;quot;:0,&amp;quot;2&amp;quot;:0,&amp;quot;3&amp;quot;:3},{&amp;quot;1&amp;quot;:1,&amp;quot;2&amp;quot;:0,&amp;quot;4&amp;quot;:1}]},&amp;quot;8&amp;quot;:{&amp;quot;1&amp;quot;:[{&amp;quot;1&amp;quot;:2,&amp;quot;2&amp;quot;:0,&amp;quot;5&amp;quot;:{&amp;quot;1&amp;quot;:2,&amp;quot;2&amp;quot;:0}},{&amp;quot;1&amp;quot;:0,&amp;quot;2&amp;quot;:0,&amp;quot;3&amp;quot;:3},{&amp;quot;1&amp;quot;:1,&amp;quot;2&amp;quot;:0,&amp;quot;4&amp;quot;:1}]},&amp;quot;9&amp;quot;:1,&amp;quot;10&amp;quot;:1,&amp;quot;12&amp;quot;:0,&amp;quot;16&amp;quot;:10,&amp;quot;17&amp;quot;:1}&quot; data-sheets-value=&quot;{&amp;quot;1&amp;quot;:2,&amp;quot;2&amp;quot;:&amp;quot;GEN_001&amp;quot;}&quot; style=&quot;font-size: 10pt; font-family: Arial; font-style: normal; text-align: center;&quot;&gt;GEN_004&lt;br&gt;&lt;/span&gt;시스템 종료 &lt;br&gt;화면&lt;br&gt;&lt;/b&gt;" style="strokeWidth=2;html=1;shape=mxgraph.flowchart.display;whiteSpace=wrap;fillColor=#d5e8d4;strokeColor=#82b366;" parent="1" vertex="1">
          <mxGeometry x="435" y="349" width="100" height="60" as="geometry" />
        </mxCell>
        <mxCell id="2WCMNSjcpPkd44kX0M62-83" style="edgeStyle=none;rounded=0;orthogonalLoop=1;jettySize=auto;html=1;exitX=1;exitY=0.5;exitDx=0;exitDy=0;exitPerimeter=0;entryX=0;entryY=0.5;entryDx=0;entryDy=0;entryPerimeter=0;strokeWidth=2;endArrow=block;endFill=1;" parent="1" source="2WCMNSjcpPkd44kX0M62-8" target="2WCMNSjcpPkd44kX0M62-9" edge="1">
          <mxGeometry relative="1" as="geometry" />
        </mxCell>
        <mxCell id="2WCMNSjcpPkd44kX0M62-87" style="edgeStyle=none;rounded=0;orthogonalLoop=1;jettySize=auto;html=1;exitX=0.5;exitY=1;exitDx=0;exitDy=0;exitPerimeter=0;entryX=0.5;entryY=0;entryDx=0;entryDy=0;entryPerimeter=0;strokeWidth=2;endArrow=block;endFill=1;" parent="1" source="2WCMNSjcpPkd44kX0M62-8" edge="1">
          <mxGeometry relative="1" as="geometry">
            <mxPoint x="635" y="309" as="targetPoint" />
          </mxGeometry>
        </mxCell>
        <mxCell id="2WCMNSjcpPkd44kX0M62-8" value="관리자" style="strokeWidth=2;html=1;shape=mxgraph.flowchart.decision;whiteSpace=wrap;fontStyle=1;fillColor=#f9f7ed;strokeColor=#36393d;" parent="1" vertex="1">
          <mxGeometry x="580" y="184" width="110" height="70" as="geometry" />
        </mxCell>
        <mxCell id="2WCMNSjcpPkd44kX0M62-82" style="edgeStyle=none;rounded=0;orthogonalLoop=1;jettySize=auto;html=1;exitX=1;exitY=0.5;exitDx=0;exitDy=0;exitPerimeter=0;entryX=0;entryY=0.5;entryDx=0;entryDy=0;entryPerimeter=0;strokeWidth=2;endArrow=block;endFill=1;" parent="1" source="2WCMNSjcpPkd44kX0M62-9" target="2WCMNSjcpPkd44kX0M62-12" edge="1">
          <mxGeometry relative="1" as="geometry" />
        </mxCell>
        <mxCell id="2WCMNSjcpPkd44kX0M62-9" value="인사팀" style="strokeWidth=2;html=1;shape=mxgraph.flowchart.decision;whiteSpace=wrap;fontStyle=1;fillColor=#f9f7ed;strokeColor=#36393d;" parent="1" vertex="1">
          <mxGeometry x="730" y="184" width="110" height="70" as="geometry" />
        </mxCell>
        <mxCell id="MH9wKkYz39pwf86A7lTJ-1" style="edgeStyle=orthogonalEdgeStyle;rounded=0;orthogonalLoop=1;jettySize=auto;html=1;exitX=1;exitY=0.5;exitDx=0;exitDy=0;exitPerimeter=0;entryX=0;entryY=0.5;entryDx=0;entryDy=0;strokeWidth=2;endArrow=block;endFill=1;" parent="1" source="2WCMNSjcpPkd44kX0M62-12" edge="1">
          <mxGeometry relative="1" as="geometry">
            <mxPoint x="1067" y="219" as="targetPoint" />
          </mxGeometry>
        </mxCell>
        <mxCell id="2WCMNSjcpPkd44kX0M62-12" value="&lt;b&gt;HADM_000&lt;br&gt;인사팀 관리자&lt;br&gt;메뉴&lt;br&gt;&lt;/b&gt;" style="strokeWidth=2;html=1;shape=mxgraph.flowchart.display;whiteSpace=wrap;fillColor=#ffe6cc;strokeColor=#d79b00;" parent="1" vertex="1">
          <mxGeometry x="890" y="189" width="100" height="60" as="geometry" />
        </mxCell>
        <mxCell id="2WCMNSjcpPkd44kX0M62-93" style="edgeStyle=none;rounded=0;orthogonalLoop=1;jettySize=auto;html=1;exitX=0.5;exitY=1;exitDx=0;exitDy=0;exitPerimeter=0;entryX=0.5;entryY=0;entryDx=0;entryDy=0;entryPerimeter=0;strokeWidth=2;endArrow=block;endFill=1;" parent="1" edge="1">
          <mxGeometry relative="1" as="geometry">
            <mxPoint x="785.67" y="254" as="sourcePoint" />
            <mxPoint x="785.67" y="309" as="targetPoint" />
          </mxGeometry>
        </mxCell>
        <mxCell id="2WCMNSjcpPkd44kX0M62-150" value="※ MEMO : 등록, 조회, 수정, 삭제, &lt;br&gt;서브메뉴 등의 기능을 끝내면 이전의&lt;br&gt;메뉴 화면으로 돌아간다.&amp;nbsp;" style="text;html=1;strokeColor=none;fillColor=none;align=left;verticalAlign=middle;whiteSpace=wrap;rounded=0;fontStyle=1" parent="1" vertex="1">
          <mxGeometry x="625" y="110" width="205" height="30" as="geometry" />
        </mxCell>
        <mxCell id="2WCMNSjcpPkd44kX0M62-192" value="YES" style="text;html=1;strokeColor=none;fillColor=none;align=center;verticalAlign=middle;whiteSpace=wrap;rounded=0;fontStyle=1" parent="1" vertex="1">
          <mxGeometry x="675" y="194" width="60" height="30" as="geometry" />
        </mxCell>
        <mxCell id="2WCMNSjcpPkd44kX0M62-194" value="YES" style="text;html=1;strokeColor=none;fillColor=none;align=center;verticalAlign=middle;whiteSpace=wrap;rounded=0;fontStyle=1" parent="1" vertex="1">
          <mxGeometry x="830" y="194" width="60" height="30" as="geometry" />
        </mxCell>
        <mxCell id="2WCMNSjcpPkd44kX0M62-195" value="NO" style="text;html=1;strokeColor=none;fillColor=none;align=center;verticalAlign=middle;whiteSpace=wrap;rounded=0;fontStyle=1" parent="1" vertex="1">
          <mxGeometry x="624" y="258" width="60" height="30" as="geometry" />
        </mxCell>
        <mxCell id="2WCMNSjcpPkd44kX0M62-196" value="NO" style="text;html=1;strokeColor=none;fillColor=none;align=center;verticalAlign=middle;whiteSpace=wrap;rounded=0;fontStyle=1" parent="1" vertex="1">
          <mxGeometry x="774" y="258" width="60" height="30" as="geometry" />
        </mxCell>
        <mxCell id="2WCMNSjcpPkd44kX0M62-218" value="시작" style="rounded=1;whiteSpace=wrap;html=1;absoluteArcSize=1;arcSize=68;strokeWidth=2;fontStyle=1;fontSize=14;" parent="1" vertex="1">
          <mxGeometry x="290" y="110" width="100" height="47" as="geometry" />
        </mxCell>
        <mxCell id="2WCMNSjcpPkd44kX0M62-219" value="종료" style="rounded=1;whiteSpace=wrap;html=1;absoluteArcSize=1;arcSize=68;strokeWidth=2;fontStyle=1;fontSize=14;" parent="1" vertex="1">
          <mxGeometry x="435" y="454" width="100" height="47" as="geometry" />
        </mxCell>
        <mxCell id="uPBgLgZTbolb4V3g2BRJ-1" value="화면 흐름도 NO.1" style="text;html=1;strokeColor=none;fillColor=none;align=center;verticalAlign=middle;whiteSpace=wrap;rounded=0;fontSize=30;" parent="1" vertex="1">
          <mxGeometry x="421.25" y="118.5" width="190" height="30" as="geometry" />
        </mxCell>
        <mxCell id="nlVP33tFnjwuWRpbbtNT-1" value="&lt;b&gt;AADM_000&lt;br&gt;경리팀 관리자&lt;br&gt;메뉴&lt;br&gt;&lt;/b&gt;" style="strokeWidth=2;html=1;shape=mxgraph.flowchart.display;whiteSpace=wrap;fillColor=#dae8fc;strokeColor=#6c8ebf;" parent="1" vertex="1">
          <mxGeometry x="733" y="309" width="100" height="60" as="geometry" />
        </mxCell>
        <mxCell id="fJrstuMutvtn_2cKNWTF-1" value="&lt;b&gt;HREA_000&lt;br&gt;인사팀 열람자&lt;br&gt;메뉴&lt;br&gt;&lt;/b&gt;" style="strokeWidth=2;html=1;shape=mxgraph.flowchart.display;whiteSpace=wrap;fillColor=#fff2cc;strokeColor=#d6b656;" parent="1" vertex="1">
          <mxGeometry x="584" y="309" width="100" height="60" as="geometry" />
        </mxCell>
        <mxCell id="fJrstuMutvtn_2cKNWTF-2" style="edgeStyle=none;rounded=0;orthogonalLoop=1;jettySize=auto;html=1;exitX=0.5;exitY=1;exitDx=0;exitDy=0;exitPerimeter=0;strokeWidth=2;endArrow=block;endFill=1;" parent="1" edge="1">
          <mxGeometry relative="1" as="geometry">
            <mxPoint x="786" y="369.5" as="sourcePoint" />
            <mxPoint x="786" y="439" as="targetPoint" />
          </mxGeometry>
        </mxCell>
        <mxCell id="fJrstuMutvtn_2cKNWTF-3" style="edgeStyle=none;rounded=0;orthogonalLoop=1;jettySize=auto;html=1;exitX=0.5;exitY=1;exitDx=0;exitDy=0;exitPerimeter=0;strokeWidth=2;endArrow=block;endFill=1;" parent="1" edge="1">
          <mxGeometry relative="1" as="geometry">
            <mxPoint x="634.5" y="369.5" as="sourcePoint" />
            <mxPoint x="634.5" y="439" as="targetPoint" />
          </mxGeometry>
        </mxCell>
        <mxCell id="eXifabJs_sO-TMwl7Srg-1" value="" style="triangle;whiteSpace=wrap;html=1;fillColor=#000000;rotation=-180;" parent="1" vertex="1">
          <mxGeometry x="390" y="214" width="10" height="10" as="geometry" />
        </mxCell>
        <mxCell id="w1mzkymxXCipuSN3HVi--1" value="" style="group" parent="1" vertex="1" connectable="0">
          <mxGeometry x="1067" y="194" width="95" height="70" as="geometry" />
        </mxCell>
        <mxCell id="w1mzkymxXCipuSN3HVi--2" value="" style="verticalLabelPosition=bottom;verticalAlign=top;html=1;shape=offPageConnector;rounded=0;size=0.42857142857142855;strokeWidth=2;fontStyle=1;fillColor=#f5f5f5;fontColor=#333333;strokeColor=#666666;labelBackgroundColor=default;" parent="w1mzkymxXCipuSN3HVi--1" vertex="1">
          <mxGeometry width="95" height="70" as="geometry" />
        </mxCell>
        <mxCell id="w1mzkymxXCipuSN3HVi--3" value="화면 흐름도 &lt;br&gt;NO.2로" style="text;html=1;align=center;verticalAlign=middle;resizable=0;points=[];autosize=1;strokeColor=none;fillColor=none;fontStyle=1" parent="w1mzkymxXCipuSN3HVi--1" vertex="1">
          <mxGeometry x="2" y="10.000000000000057" width="90" height="40" as="geometry" />
        </mxCell>
        <mxCell id="w1mzkymxXCipuSN3HVi--7" value="" style="group" parent="1" vertex="1" connectable="0">
          <mxGeometry x="587.5" y="439" width="95" height="70" as="geometry" />
        </mxCell>
        <mxCell id="w1mzkymxXCipuSN3HVi--8" value="" style="verticalLabelPosition=bottom;verticalAlign=top;html=1;shape=offPageConnector;rounded=0;size=0.42857142857142855;strokeWidth=2;fontStyle=1;fillColor=#f5f5f5;fontColor=#333333;strokeColor=#666666;labelBackgroundColor=default;" parent="w1mzkymxXCipuSN3HVi--7" vertex="1">
          <mxGeometry width="95" height="70" as="geometry" />
        </mxCell>
        <mxCell id="w1mzkymxXCipuSN3HVi--9" value="화면 흐름도 &lt;br&gt;NO.3로" style="text;html=1;align=center;verticalAlign=middle;resizable=0;points=[];autosize=1;strokeColor=none;fillColor=none;fontStyle=1" parent="w1mzkymxXCipuSN3HVi--7" vertex="1">
          <mxGeometry x="2" y="10.000000000000057" width="90" height="40" as="geometry" />
        </mxCell>
        <mxCell id="w1mzkymxXCipuSN3HVi--10" value="" style="group" parent="1" vertex="1" connectable="0">
          <mxGeometry x="740" y="439" width="95" height="70" as="geometry" />
        </mxCell>
        <mxCell id="w1mzkymxXCipuSN3HVi--11" value="" style="verticalLabelPosition=bottom;verticalAlign=top;html=1;shape=offPageConnector;rounded=0;size=0.42857142857142855;strokeWidth=2;fontStyle=1;fillColor=#f5f5f5;fontColor=#333333;strokeColor=#666666;labelBackgroundColor=default;" parent="w1mzkymxXCipuSN3HVi--10" vertex="1">
          <mxGeometry width="95" height="70" as="geometry" />
        </mxCell>
        <mxCell id="w1mzkymxXCipuSN3HVi--12" value="화면 흐름도 &lt;br&gt;NO.4로" style="text;html=1;align=center;verticalAlign=middle;resizable=0;points=[];autosize=1;strokeColor=none;fillColor=none;fontStyle=1" parent="w1mzkymxXCipuSN3HVi--10" vertex="1">
          <mxGeometry x="2" y="10.000000000000057" width="90" height="40" as="geometry" />
        </mxCell>
      </root>
    </mxGraphModel>
  </diagram>
  <diagram id="u8ZasS9soRayVazggaBj" name="흐름도2">
    <mxGraphModel dx="3240" dy="1258" grid="1" gridSize="10" guides="1" tooltips="1" connect="1" arrows="1" fold="1" page="0" pageScale="1" pageWidth="1169" pageHeight="827" math="0" shadow="0">
      <root>
        <mxCell id="0" />
        <mxCell id="1" parent="0" />
        <mxCell id="8XHSbWPe0YvwubtO8-b5-1" style="edgeStyle=orthogonalEdgeStyle;rounded=0;orthogonalLoop=1;jettySize=auto;html=1;exitX=1;exitY=0.5;exitDx=0;exitDy=0;exitPerimeter=0;entryX=0;entryY=0.5;entryDx=0;entryDy=0;entryPerimeter=0;strokeWidth=2;endArrow=none;endFill=0;" parent="1" source="8XHSbWPe0YvwubtO8-b5-36" target="8XHSbWPe0YvwubtO8-b5-6" edge="1">
          <mxGeometry relative="1" as="geometry" />
        </mxCell>
        <mxCell id="8XHSbWPe0YvwubtO8-b5-2" style="edgeStyle=orthogonalEdgeStyle;rounded=0;orthogonalLoop=1;jettySize=auto;html=1;exitX=1;exitY=0.5;exitDx=0;exitDy=0;exitPerimeter=0;entryX=0;entryY=0.5;entryDx=0;entryDy=0;entryPerimeter=0;strokeWidth=2;endArrow=block;endFill=1;" parent="1" target="8XHSbWPe0YvwubtO8-b5-5" edge="1">
          <mxGeometry relative="1" as="geometry">
            <Array as="points">
              <mxPoint x="-1729" y="-440" />
              <mxPoint x="-1729" y="-379" />
            </Array>
            <mxPoint x="-1749" y="-440" as="sourcePoint" />
          </mxGeometry>
        </mxCell>
        <mxCell id="8XHSbWPe0YvwubtO8-b5-4" style="edgeStyle=none;rounded=0;orthogonalLoop=1;jettySize=auto;html=1;exitX=1;exitY=0.5;exitDx=0;exitDy=0;exitPerimeter=0;entryX=-0.033;entryY=0.26;entryDx=0;entryDy=0;entryPerimeter=0;strokeWidth=2;endArrow=none;endFill=0;" parent="1" source="8XHSbWPe0YvwubtO8-b5-5" target="8XHSbWPe0YvwubtO8-b5-20" edge="1">
          <mxGeometry relative="1" as="geometry" />
        </mxCell>
        <mxCell id="8XHSbWPe0YvwubtO8-b5-5" value="&lt;b&gt;HADM_001&lt;br&gt;직원 관리 &lt;br&gt;메뉴 화면&lt;br&gt;&lt;/b&gt;" style="strokeWidth=2;html=1;shape=mxgraph.flowchart.display;whiteSpace=wrap;fillColor=#ffe6cc;strokeColor=#d79b00;" parent="1" vertex="1">
          <mxGeometry x="-1699" y="-409" width="100" height="60" as="geometry" />
        </mxCell>
        <mxCell id="8XHSbWPe0YvwubtO8-b5-6" value="&lt;b style=&quot;border-color: var(--border-color);&quot;&gt;HADM_009&lt;/b&gt;&lt;b&gt;&lt;br&gt;근태 관리&lt;br&gt;메뉴 화면&lt;br&gt;&lt;/b&gt;" style="strokeWidth=2;html=1;shape=mxgraph.flowchart.display;whiteSpace=wrap;fillColor=#ffe6cc;strokeColor=#d79b00;" parent="1" vertex="1">
          <mxGeometry x="-1699" y="-70" width="100" height="60" as="geometry" />
        </mxCell>
        <mxCell id="8XHSbWPe0YvwubtO8-b5-9" value="&lt;b&gt;HADM_002&lt;br&gt;직원 정보 등록&lt;br&gt;화면&lt;br&gt;&lt;/b&gt;" style="strokeWidth=2;html=1;shape=mxgraph.flowchart.display;whiteSpace=wrap;fillColor=#ffe6cc;strokeColor=#d79b00;" parent="1" vertex="1">
          <mxGeometry x="-1549" y="-471" width="100" height="60" as="geometry" />
        </mxCell>
        <mxCell id="8XHSbWPe0YvwubtO8-b5-10" value="&lt;b&gt;HREA_002&lt;br&gt;직원 정보 전체&lt;br&gt;목록 화면&lt;br&gt;&lt;/b&gt;" style="strokeWidth=2;html=1;shape=mxgraph.flowchart.display;whiteSpace=wrap;fillColor=#fff2cc;strokeColor=#d6b656;" parent="1" vertex="1">
          <mxGeometry x="-1549" y="-390" width="100" height="60" as="geometry" />
        </mxCell>
        <mxCell id="8XHSbWPe0YvwubtO8-b5-11" value="&lt;b&gt;HADM_003&lt;br&gt;직원 정보 수정&lt;br&gt;화면&lt;br&gt;&lt;/b&gt;" style="strokeWidth=2;html=1;shape=mxgraph.flowchart.display;whiteSpace=wrap;fillColor=#ffe6cc;strokeColor=#d79b00;" parent="1" vertex="1">
          <mxGeometry x="-1244.5" y="-523" width="100" height="60" as="geometry" />
        </mxCell>
        <mxCell id="8XHSbWPe0YvwubtO8-b5-12" style="edgeStyle=orthogonalEdgeStyle;rounded=0;orthogonalLoop=1;jettySize=auto;html=1;exitX=1;exitY=0.5;exitDx=0;exitDy=0;exitPerimeter=0;entryX=0.5;entryY=0;entryDx=0;entryDy=0;entryPerimeter=0;strokeWidth=2;endArrow=block;endFill=1;" parent="1" source="8XHSbWPe0YvwubtO8-b5-13" target="8XHSbWPe0YvwubtO8-b5-75" edge="1">
          <mxGeometry relative="1" as="geometry" />
        </mxCell>
        <mxCell id="8XHSbWPe0YvwubtO8-b5-13" value="&lt;b&gt;HADM_004&lt;br&gt;직원 정보 삭제&lt;br&gt;화면&lt;br&gt;&lt;/b&gt;" style="strokeWidth=2;html=1;shape=mxgraph.flowchart.display;whiteSpace=wrap;fillColor=#ffe6cc;strokeColor=#d79b00;" parent="1" vertex="1">
          <mxGeometry x="-1243.5" y="-443" width="100" height="60" as="geometry" />
        </mxCell>
        <mxCell id="Yn4G25RJ5VYcigcTXmQY-6" style="edgeStyle=orthogonalEdgeStyle;rounded=0;orthogonalLoop=1;jettySize=auto;html=1;exitX=0.5;exitY=0;exitDx=0;exitDy=0;exitPerimeter=0;entryX=0.5;entryY=1;entryDx=0;entryDy=0;entryPerimeter=0;strokeWidth=2;endArrow=block;endFill=1;" parent="1" edge="1">
          <mxGeometry relative="1" as="geometry">
            <mxPoint x="-1346.5" y="-394" as="sourcePoint" />
            <mxPoint x="-1350" y="-464" as="targetPoint" />
            <Array as="points">
              <mxPoint x="-1350" y="-394" />
            </Array>
          </mxGeometry>
        </mxCell>
        <mxCell id="8XHSbWPe0YvwubtO8-b5-14" value="&lt;b style=&quot;font-size: 11px;&quot;&gt;HREA_002&lt;br&gt;직원 정보 전체 &lt;br&gt;목록 (부서별) 화면&lt;br&gt;&lt;/b&gt;" style="strokeWidth=2;html=1;shape=mxgraph.flowchart.display;whiteSpace=wrap;fillColor=#fff2cc;strokeColor=#d6b656;" parent="1" vertex="1">
          <mxGeometry x="-1395" y="-394" width="99" height="60" as="geometry" />
        </mxCell>
        <mxCell id="Yn4G25RJ5VYcigcTXmQY-5" style="edgeStyle=orthogonalEdgeStyle;rounded=0;orthogonalLoop=1;jettySize=auto;html=1;exitX=1;exitY=0.5;exitDx=0;exitDy=0;exitPerimeter=0;endArrow=none;endFill=0;strokeWidth=2;" parent="1" edge="1">
          <mxGeometry relative="1" as="geometry">
            <mxPoint x="-1352" y="-464" as="targetPoint" />
            <mxPoint x="-1296" y="-294" as="sourcePoint" />
            <Array as="points">
              <mxPoint x="-1280" y="-294" />
              <mxPoint x="-1280" y="-424" />
              <mxPoint x="-1350" y="-424" />
              <mxPoint x="-1350" y="-464" />
            </Array>
          </mxGeometry>
        </mxCell>
        <mxCell id="8XHSbWPe0YvwubtO8-b5-15" value="&lt;b style=&quot;font-size: 11px;&quot;&gt;HREA_002&lt;br&gt;직원 정보 전체 목록 (직급별) 화면&lt;br&gt;&lt;/b&gt;" style="strokeWidth=2;html=1;shape=mxgraph.flowchart.display;whiteSpace=wrap;fillColor=#fff2cc;strokeColor=#d6b656;" parent="1" vertex="1">
          <mxGeometry x="-1394" y="-320" width="100" height="60" as="geometry" />
        </mxCell>
        <mxCell id="8XHSbWPe0YvwubtO8-b5-16" value="&lt;b&gt;HREA_003&lt;br&gt;직원 정보 개별&lt;br&gt;조회 화면&lt;br&gt;&lt;/b&gt;" style="strokeWidth=2;html=1;shape=mxgraph.flowchart.display;whiteSpace=wrap;fillColor=#fff2cc;strokeColor=#d6b656;" parent="1" vertex="1">
          <mxGeometry x="-1399" y="-524" width="100" height="60" as="geometry" />
        </mxCell>
        <mxCell id="8XHSbWPe0YvwubtO8-b5-17" value="&lt;b&gt;HADM_005&lt;br&gt;히스토리 등록&lt;br&gt;화면&lt;br&gt;&lt;/b&gt;" style="strokeWidth=2;html=1;shape=mxgraph.flowchart.display;whiteSpace=wrap;fillColor=#ffe6cc;strokeColor=#d79b00;" parent="1" vertex="1">
          <mxGeometry x="-1549" y="-310" width="100" height="60" as="geometry" />
        </mxCell>
        <mxCell id="8XHSbWPe0YvwubtO8-b5-18" style="edgeStyle=orthogonalEdgeStyle;rounded=0;orthogonalLoop=1;jettySize=auto;html=1;exitX=1;exitY=0.5;exitDx=0;exitDy=0;exitPerimeter=0;entryX=0;entryY=0.5;entryDx=0;entryDy=0;entryPerimeter=0;endArrow=block;endFill=1;strokeWidth=2;" parent="1" source="8XHSbWPe0YvwubtO8-b5-19" target="8XHSbWPe0YvwubtO8-b5-22" edge="1">
          <mxGeometry relative="1" as="geometry" />
        </mxCell>
        <mxCell id="8XHSbWPe0YvwubtO8-b5-19" value="&lt;b&gt;HREA_004&lt;br&gt;히스토리&amp;nbsp; 전체 &lt;br&gt;목록 화면&lt;br&gt;&lt;/b&gt;" style="strokeWidth=2;html=1;shape=mxgraph.flowchart.display;whiteSpace=wrap;fillColor=#fff2cc;strokeColor=#d6b656;" parent="1" vertex="1">
          <mxGeometry x="-1549" y="-231" width="100" height="60" as="geometry" />
        </mxCell>
        <mxCell id="8XHSbWPe0YvwubtO8-b5-20" value="" style="strokeWidth=2;html=1;shape=mxgraph.flowchart.annotation_1;align=left;pointerEvents=1;" parent="1" vertex="1">
          <mxGeometry x="-1569" y="-441" width="20" height="240" as="geometry" />
        </mxCell>
        <mxCell id="8XHSbWPe0YvwubtO8-b5-21" value="" style="strokeWidth=2;html=1;shape=mxgraph.flowchart.annotation_1;align=left;pointerEvents=1;" parent="1" vertex="1">
          <mxGeometry x="-1569" y="-360" width="20" height="79" as="geometry" />
        </mxCell>
        <mxCell id="x0VW6cyTGQwndIe7IJ0m-2" style="edgeStyle=orthogonalEdgeStyle;rounded=0;orthogonalLoop=1;jettySize=auto;html=1;exitX=1;exitY=0.5;exitDx=0;exitDy=0;exitPerimeter=0;entryX=0;entryY=0.5;entryDx=0;entryDy=0;entryPerimeter=0;strokeWidth=2;endArrow=block;endFill=1;" parent="1" source="8XHSbWPe0YvwubtO8-b5-22" target="x0VW6cyTGQwndIe7IJ0m-1" edge="1">
          <mxGeometry relative="1" as="geometry" />
        </mxCell>
        <mxCell id="8XHSbWPe0YvwubtO8-b5-22" value="&lt;b&gt;HREA_005&lt;/b&gt;&lt;br&gt;&lt;b&gt;히스토리 개별 &lt;br&gt;조회 화면&lt;br&gt;&lt;/b&gt;" style="strokeWidth=2;html=1;shape=mxgraph.flowchart.display;whiteSpace=wrap;fillColor=#fff2cc;strokeColor=#d6b656;" parent="1" vertex="1">
          <mxGeometry x="-1399" y="-209" width="100" height="60" as="geometry" />
        </mxCell>
        <mxCell id="3yIrR4yKN0F0JPWz39FJ-9" style="edgeStyle=orthogonalEdgeStyle;rounded=0;orthogonalLoop=1;jettySize=auto;html=1;exitX=1;exitY=0.5;exitDx=0;exitDy=0;exitPerimeter=0;entryX=0;entryY=0.5;entryDx=0;entryDy=0;entryPerimeter=0;strokeWidth=2;endArrow=block;endFill=1;" edge="1" parent="1" source="8XHSbWPe0YvwubtO8-b5-23" target="3yIrR4yKN0F0JPWz39FJ-3">
          <mxGeometry relative="1" as="geometry" />
        </mxCell>
        <mxCell id="8XHSbWPe0YvwubtO8-b5-23" value="&lt;b&gt;HADM_006&lt;br&gt;히스토리 수정&lt;br&gt;화면&lt;br&gt;&lt;/b&gt;" style="strokeWidth=2;html=1;shape=mxgraph.flowchart.display;whiteSpace=wrap;fillColor=#ffe6cc;strokeColor=#d79b00;" parent="1" vertex="1">
          <mxGeometry x="-1127" y="-246" width="100" height="60" as="geometry" />
        </mxCell>
        <mxCell id="8XHSbWPe0YvwubtO8-b5-24" style="edgeStyle=orthogonalEdgeStyle;rounded=0;orthogonalLoop=1;jettySize=auto;html=1;exitX=1;exitY=0.5;exitDx=0;exitDy=0;exitPerimeter=0;entryX=0;entryY=0.5;entryDx=0;entryDy=0;entryPerimeter=0;strokeWidth=2;endArrow=block;endFill=1;" parent="1" source="8XHSbWPe0YvwubtO8-b5-25" target="8XHSbWPe0YvwubtO8-b5-75" edge="1">
          <mxGeometry relative="1" as="geometry">
            <Array as="points">
              <mxPoint x="-890" y="-136" />
              <mxPoint x="-890" y="-361" />
            </Array>
          </mxGeometry>
        </mxCell>
        <mxCell id="8XHSbWPe0YvwubtO8-b5-25" value="&lt;b&gt;HADM_008&lt;br&gt;히스토리 삭제&lt;br&gt;화면&lt;br&gt;&lt;/b&gt;" style="strokeWidth=2;html=1;shape=mxgraph.flowchart.display;whiteSpace=wrap;fillColor=#ffe6cc;strokeColor=#d79b00;" parent="1" vertex="1">
          <mxGeometry x="-1126" y="-166" width="100" height="60" as="geometry" />
        </mxCell>
        <mxCell id="8XHSbWPe0YvwubtO8-b5-26" value="" style="strokeWidth=2;html=1;shape=mxgraph.flowchart.annotation_2;align=left;labelPosition=right;pointerEvents=1;" parent="1" vertex="1">
          <mxGeometry x="-1168" y="-216" width="40" height="80" as="geometry" />
        </mxCell>
        <mxCell id="8XHSbWPe0YvwubtO8-b5-27" value="" style="triangle;whiteSpace=wrap;html=1;fillColor=#000000;" parent="1" vertex="1">
          <mxGeometry x="-1559" y="-446" width="10" height="10" as="geometry" />
        </mxCell>
        <mxCell id="8XHSbWPe0YvwubtO8-b5-28" value="" style="triangle;whiteSpace=wrap;html=1;fillColor=#000000;" parent="1" vertex="1">
          <mxGeometry x="-1559" y="-365" width="10" height="10" as="geometry" />
        </mxCell>
        <mxCell id="8XHSbWPe0YvwubtO8-b5-29" value="" style="triangle;whiteSpace=wrap;html=1;fillColor=#000000;" parent="1" vertex="1">
          <mxGeometry x="-1559" y="-286" width="10" height="10" as="geometry" />
        </mxCell>
        <mxCell id="8XHSbWPe0YvwubtO8-b5-30" value="" style="triangle;whiteSpace=wrap;html=1;fillColor=#000000;" parent="1" vertex="1">
          <mxGeometry x="-1559" y="-206" width="10" height="10" as="geometry" />
        </mxCell>
        <mxCell id="8XHSbWPe0YvwubtO8-b5-31" value="" style="triangle;whiteSpace=wrap;html=1;fillColor=#000000;" parent="1" vertex="1">
          <mxGeometry x="-1136" y="-221" width="10" height="10" as="geometry" />
        </mxCell>
        <mxCell id="8XHSbWPe0YvwubtO8-b5-32" value="" style="triangle;whiteSpace=wrap;html=1;fillColor=#000000;" parent="1" vertex="1">
          <mxGeometry x="-1136" y="-141" width="10" height="10" as="geometry" />
        </mxCell>
        <mxCell id="8XHSbWPe0YvwubtO8-b5-33" value="" style="triangle;whiteSpace=wrap;html=1;fillColor=#000000;" parent="1" vertex="1">
          <mxGeometry x="-1404" y="-295" width="10" height="10" as="geometry" />
        </mxCell>
        <mxCell id="8XHSbWPe0YvwubtO8-b5-34" value="" style="triangle;whiteSpace=wrap;html=1;fillColor=#000000;" parent="1" vertex="1">
          <mxGeometry x="-1408" y="-368" width="10" height="10" as="geometry" />
        </mxCell>
        <mxCell id="8XHSbWPe0YvwubtO8-b5-35" value="" style="edgeStyle=orthogonalEdgeStyle;rounded=0;orthogonalLoop=1;jettySize=auto;html=1;exitX=1;exitY=0.5;exitDx=0;exitDy=0;exitPerimeter=0;entryX=0;entryY=0.5;entryDx=0;entryDy=0;entryPerimeter=0;strokeWidth=2;endArrow=none;endFill=0;" parent="1" target="8XHSbWPe0YvwubtO8-b5-36" edge="1">
          <mxGeometry relative="1" as="geometry">
            <mxPoint x="-1749" y="-440" as="sourcePoint" />
            <mxPoint x="-1699" y="-100" as="targetPoint" />
            <Array as="points">
              <mxPoint x="-1749" y="-439" />
              <mxPoint x="-1729" y="-439" />
              <mxPoint x="-1729" y="-40" />
            </Array>
          </mxGeometry>
        </mxCell>
        <mxCell id="8XHSbWPe0YvwubtO8-b5-36" value="" style="triangle;whiteSpace=wrap;html=1;fillColor=#000000;" parent="1" vertex="1">
          <mxGeometry x="-1709" y="-45" width="10" height="10" as="geometry" />
        </mxCell>
        <mxCell id="8XHSbWPe0YvwubtO8-b5-37" value="&lt;b&gt;HADM_010&lt;br&gt;근태 기록 등록&lt;br&gt;화면&lt;br&gt;&lt;/b&gt;" style="strokeWidth=2;html=1;shape=mxgraph.flowchart.display;whiteSpace=wrap;fillColor=#ffe6cc;strokeColor=#d79b00;" parent="1" vertex="1">
          <mxGeometry x="-1549" y="-72" width="100" height="60" as="geometry" />
        </mxCell>
        <mxCell id="8XHSbWPe0YvwubtO8-b5-38" style="edgeStyle=none;rounded=0;orthogonalLoop=1;jettySize=auto;html=1;exitX=1;exitY=0.5;exitDx=0;exitDy=0;exitPerimeter=0;entryX=0;entryY=0.5;entryDx=0;entryDy=0;entryPerimeter=0;strokeWidth=2;endArrow=block;endFill=1;" parent="1" source="8XHSbWPe0YvwubtO8-b5-39" target="8XHSbWPe0YvwubtO8-b5-58" edge="1">
          <mxGeometry relative="1" as="geometry" />
        </mxCell>
        <mxCell id="8XHSbWPe0YvwubtO8-b5-39" value="&lt;b&gt;HREA_008&lt;/b&gt;&lt;br&gt;&lt;b&gt;근태 기록 전체 &lt;br&gt;목록 화면&lt;br&gt;&lt;/b&gt;" style="strokeWidth=2;html=1;shape=mxgraph.flowchart.display;whiteSpace=wrap;fillColor=#fff2cc;strokeColor=#d6b656;" parent="1" vertex="1">
          <mxGeometry x="-1549" y="9" width="100" height="60" as="geometry" />
        </mxCell>
        <mxCell id="8XHSbWPe0YvwubtO8-b5-40" value="&lt;b&gt;HADM_014&lt;br&gt;연차 승인 등록&lt;br&gt;화면&lt;br&gt;&lt;/b&gt;" style="strokeWidth=2;html=1;shape=mxgraph.flowchart.display;whiteSpace=wrap;fillColor=#ffe6cc;strokeColor=#d79b00;" parent="1" vertex="1">
          <mxGeometry x="-1549" y="89" width="100" height="60" as="geometry" />
        </mxCell>
        <mxCell id="8XHSbWPe0YvwubtO8-b5-41" value="&lt;b&gt;HREA_010&lt;br&gt;연차 승인 내역 &lt;br&gt;전체&amp;nbsp;목록 화면&lt;br&gt;&lt;/b&gt;" style="strokeWidth=2;html=1;shape=mxgraph.flowchart.display;whiteSpace=wrap;fillColor=#fff2cc;strokeColor=#d6b656;" parent="1" vertex="1">
          <mxGeometry x="-1549" y="168" width="100" height="60" as="geometry" />
        </mxCell>
        <mxCell id="8XHSbWPe0YvwubtO8-b5-42" value="" style="strokeWidth=2;html=1;shape=mxgraph.flowchart.annotation_1;align=left;pointerEvents=1;" parent="1" vertex="1">
          <mxGeometry x="-1579" y="-42" width="30" height="240" as="geometry" />
        </mxCell>
        <mxCell id="8XHSbWPe0YvwubtO8-b5-43" value="" style="strokeWidth=2;html=1;shape=mxgraph.flowchart.annotation_1;align=left;pointerEvents=1;" parent="1" vertex="1">
          <mxGeometry x="-1579" y="39" width="30" height="79" as="geometry" />
        </mxCell>
        <mxCell id="8XHSbWPe0YvwubtO8-b5-44" value="" style="triangle;whiteSpace=wrap;html=1;fillColor=#000000;" parent="1" vertex="1">
          <mxGeometry x="-1559" y="-47" width="10" height="10" as="geometry" />
        </mxCell>
        <mxCell id="8XHSbWPe0YvwubtO8-b5-45" value="" style="triangle;whiteSpace=wrap;html=1;fillColor=#000000;" parent="1" vertex="1">
          <mxGeometry x="-1559" y="34" width="10" height="10" as="geometry" />
        </mxCell>
        <mxCell id="8XHSbWPe0YvwubtO8-b5-46" value="" style="triangle;whiteSpace=wrap;html=1;fillColor=#000000;" parent="1" vertex="1">
          <mxGeometry x="-1559" y="113" width="10" height="10" as="geometry" />
        </mxCell>
        <mxCell id="8XHSbWPe0YvwubtO8-b5-47" value="" style="triangle;whiteSpace=wrap;html=1;fillColor=#000000;" parent="1" vertex="1">
          <mxGeometry x="-1559" y="193" width="10" height="10" as="geometry" />
        </mxCell>
        <mxCell id="8XHSbWPe0YvwubtO8-b5-48" style="edgeStyle=none;rounded=0;orthogonalLoop=1;jettySize=auto;html=1;exitX=1;exitY=0.5;exitDx=0;exitDy=0;exitPerimeter=0;entryX=-0.033;entryY=0.26;entryDx=0;entryDy=0;entryPerimeter=0;strokeWidth=2;endArrow=none;endFill=0;" parent="1" edge="1">
          <mxGeometry relative="1" as="geometry">
            <mxPoint x="-1598" y="-42" as="sourcePoint" />
            <mxPoint x="-1569" y="-42" as="targetPoint" />
          </mxGeometry>
        </mxCell>
        <mxCell id="8XHSbWPe0YvwubtO8-b5-49" value="" style="strokeWidth=2;html=1;shape=mxgraph.flowchart.annotation_1;align=left;pointerEvents=1;" parent="1" vertex="1">
          <mxGeometry x="-1264" y="-493" width="19.5" height="80" as="geometry" />
        </mxCell>
        <mxCell id="8XHSbWPe0YvwubtO8-b5-50" value="" style="triangle;whiteSpace=wrap;html=1;fillColor=#000000;" parent="1" vertex="1">
          <mxGeometry x="-1253.5" y="-498" width="10" height="10" as="geometry" />
        </mxCell>
        <mxCell id="8XHSbWPe0YvwubtO8-b5-51" value="" style="triangle;whiteSpace=wrap;html=1;fillColor=#000000;" parent="1" vertex="1">
          <mxGeometry x="-1253.5" y="-418" width="10" height="10" as="geometry" />
        </mxCell>
        <mxCell id="8XHSbWPe0YvwubtO8-b5-52" value="&lt;b style=&quot;border-color: var(--border-color);&quot;&gt;HADM_000&lt;br style=&quot;border-color: var(--border-color);&quot;&gt;인사팀 관리자&lt;br style=&quot;border-color: var(--border-color);&quot;&gt;메뉴&lt;/b&gt;&lt;b&gt;&lt;br&gt;&lt;/b&gt;" style="strokeWidth=2;html=1;shape=mxgraph.flowchart.display;whiteSpace=wrap;fillColor=#ffe6cc;strokeColor=#d79b00;" parent="1" vertex="1">
          <mxGeometry x="-1549" y="-159" width="100" height="60" as="geometry" />
        </mxCell>
        <mxCell id="8XHSbWPe0YvwubtO8-b5-53" value="" style="strokeWidth=2;html=1;shape=mxgraph.flowchart.annotation_1;align=left;pointerEvents=1;" parent="1" vertex="1">
          <mxGeometry x="-1569" y="-201" width="20" height="72" as="geometry" />
        </mxCell>
        <mxCell id="8XHSbWPe0YvwubtO8-b5-54" value="" style="triangle;whiteSpace=wrap;html=1;fillColor=#000000;" parent="1" vertex="1">
          <mxGeometry x="-1559" y="-134" width="10" height="10" as="geometry" />
        </mxCell>
        <mxCell id="3yIrR4yKN0F0JPWz39FJ-10" style="edgeStyle=orthogonalEdgeStyle;rounded=0;orthogonalLoop=1;jettySize=auto;html=1;exitX=1;exitY=0.5;exitDx=0;exitDy=0;exitPerimeter=0;entryX=0;entryY=0.5;entryDx=0;entryDy=0;entryPerimeter=0;strokeWidth=2;endArrow=block;endFill=1;" edge="1" parent="1" source="8XHSbWPe0YvwubtO8-b5-55" target="3yIrR4yKN0F0JPWz39FJ-5">
          <mxGeometry relative="1" as="geometry" />
        </mxCell>
        <mxCell id="8XHSbWPe0YvwubtO8-b5-55" value="&lt;b&gt;HADM_011&lt;br&gt;근태 기록 수정&lt;br&gt;화면&lt;br&gt;&lt;/b&gt;" style="strokeWidth=2;html=1;shape=mxgraph.flowchart.display;whiteSpace=wrap;fillColor=#ffe6cc;strokeColor=#d79b00;" parent="1" vertex="1">
          <mxGeometry x="-1269" y="-31" width="100" height="60" as="geometry" />
        </mxCell>
        <mxCell id="8XHSbWPe0YvwubtO8-b5-56" value="&lt;b&gt;HADM_013&lt;br&gt;근태 기록 삭제&lt;br&gt;화면&lt;br&gt;&lt;/b&gt;" style="strokeWidth=2;html=1;shape=mxgraph.flowchart.display;whiteSpace=wrap;fillColor=#ffe6cc;strokeColor=#d79b00;" parent="1" vertex="1">
          <mxGeometry x="-1268" y="49" width="100" height="60" as="geometry" />
        </mxCell>
        <mxCell id="8XHSbWPe0YvwubtO8-b5-57" style="edgeStyle=orthogonalEdgeStyle;rounded=0;orthogonalLoop=1;jettySize=auto;html=1;exitX=1;exitY=0.5;exitDx=0;exitDy=0;exitPerimeter=0;entryX=0;entryY=0.5;entryDx=0;entryDy=0;entryPerimeter=0;strokeWidth=2;endArrow=none;endFill=0;" parent="1" source="8XHSbWPe0YvwubtO8-b5-58" target="8XHSbWPe0YvwubtO8-b5-68" edge="1">
          <mxGeometry relative="1" as="geometry" />
        </mxCell>
        <mxCell id="8XHSbWPe0YvwubtO8-b5-58" value="&lt;b&gt;HREA_009&lt;br&gt;근태 기록 개별&lt;br&gt;조회 화면&lt;br&gt;&lt;/b&gt;" style="strokeWidth=2;html=1;shape=mxgraph.flowchart.display;whiteSpace=wrap;fillColor=#fff2cc;strokeColor=#d6b656;" parent="1" vertex="1">
          <mxGeometry x="-1408" y="9" width="100" height="60" as="geometry" />
        </mxCell>
        <mxCell id="8XHSbWPe0YvwubtO8-b5-60" value="&lt;b&gt;HREA_011&lt;/b&gt;&lt;br&gt;&lt;b&gt;연차 승인 내역&lt;br&gt;&amp;nbsp;개별 조회 화면&lt;br&gt;&lt;/b&gt;" style="strokeWidth=2;html=1;shape=mxgraph.flowchart.display;whiteSpace=wrap;fillColor=#fff2cc;strokeColor=#d6b656;" parent="1" vertex="1">
          <mxGeometry x="-1407" y="168" width="100" height="60" as="geometry" />
        </mxCell>
        <mxCell id="3yIrR4yKN0F0JPWz39FJ-11" style="edgeStyle=orthogonalEdgeStyle;rounded=0;orthogonalLoop=1;jettySize=auto;html=1;exitX=1;exitY=0.5;exitDx=0;exitDy=0;exitPerimeter=0;entryX=0;entryY=0.5;entryDx=0;entryDy=0;entryPerimeter=0;strokeWidth=2;endArrow=block;endFill=1;" edge="1" parent="1" source="8XHSbWPe0YvwubtO8-b5-61" target="3yIrR4yKN0F0JPWz39FJ-7">
          <mxGeometry relative="1" as="geometry" />
        </mxCell>
        <mxCell id="8XHSbWPe0YvwubtO8-b5-61" value="&lt;b&gt;HADM_015&lt;br&gt;연차 승인 내역&lt;br&gt;&amp;nbsp;수정 화면&lt;br&gt;&lt;/b&gt;" style="strokeWidth=2;html=1;shape=mxgraph.flowchart.display;whiteSpace=wrap;fillColor=#ffe6cc;strokeColor=#d79b00;" parent="1" vertex="1">
          <mxGeometry x="-1127" y="130" width="100" height="60" as="geometry" />
        </mxCell>
        <mxCell id="8XHSbWPe0YvwubtO8-b5-62" style="edgeStyle=orthogonalEdgeStyle;rounded=0;orthogonalLoop=1;jettySize=auto;html=1;exitX=1;exitY=0.5;exitDx=0;exitDy=0;exitPerimeter=0;entryX=0.5;entryY=0;entryDx=0;entryDy=0;entryPerimeter=0;strokeWidth=2;endArrow=block;endFill=1;" parent="1" source="8XHSbWPe0YvwubtO8-b5-63" target="8XHSbWPe0YvwubtO8-b5-84" edge="1">
          <mxGeometry relative="1" as="geometry">
            <Array as="points">
              <mxPoint x="-880" y="240" />
              <mxPoint x="-880" y="-7" />
              <mxPoint x="-805" y="-7" />
            </Array>
          </mxGeometry>
        </mxCell>
        <mxCell id="8XHSbWPe0YvwubtO8-b5-63" value="&lt;b&gt;HADM_017&lt;br&gt;연차 승인 내역&lt;br&gt;&amp;nbsp;삭제 화면&lt;br&gt;&lt;/b&gt;" style="strokeWidth=2;html=1;shape=mxgraph.flowchart.display;whiteSpace=wrap;fillColor=#ffe6cc;strokeColor=#d79b00;" parent="1" vertex="1">
          <mxGeometry x="-1126" y="210" width="100" height="60" as="geometry" />
        </mxCell>
        <mxCell id="8XHSbWPe0YvwubtO8-b5-64" value="" style="edgeStyle=none;rounded=0;orthogonalLoop=1;jettySize=auto;html=1;" parent="1" edge="1">
          <mxGeometry relative="1" as="geometry">
            <mxPoint x="-1314" y="199.53846153846143" as="sourcePoint" />
            <mxPoint x="-1314" y="199.53846153846143" as="targetPoint" />
          </mxGeometry>
        </mxCell>
        <mxCell id="8XHSbWPe0YvwubtO8-b5-65" value="" style="strokeWidth=2;html=1;shape=mxgraph.flowchart.annotation_2;align=left;labelPosition=right;pointerEvents=1;" parent="1" vertex="1">
          <mxGeometry x="-1164" y="160" width="30" height="80" as="geometry" />
        </mxCell>
        <mxCell id="8XHSbWPe0YvwubtO8-b5-66" value="" style="triangle;whiteSpace=wrap;html=1;fillColor=#000000;" parent="1" vertex="1">
          <mxGeometry x="-1136" y="155" width="10" height="10" as="geometry" />
        </mxCell>
        <mxCell id="8XHSbWPe0YvwubtO8-b5-67" value="" style="triangle;whiteSpace=wrap;html=1;fillColor=#000000;" parent="1" vertex="1">
          <mxGeometry x="-1136" y="235" width="10" height="10" as="geometry" />
        </mxCell>
        <mxCell id="8XHSbWPe0YvwubtO8-b5-68" value="" style="strokeWidth=2;html=1;shape=mxgraph.flowchart.annotation_1;align=left;pointerEvents=1;" parent="1" vertex="1">
          <mxGeometry x="-1288.5" y="-1" width="19.5" height="80" as="geometry" />
        </mxCell>
        <mxCell id="8XHSbWPe0YvwubtO8-b5-69" value="" style="triangle;whiteSpace=wrap;html=1;fillColor=#000000;" parent="1" vertex="1">
          <mxGeometry x="-1278" y="-6" width="10" height="10" as="geometry" />
        </mxCell>
        <mxCell id="8XHSbWPe0YvwubtO8-b5-70" value="" style="triangle;whiteSpace=wrap;html=1;fillColor=#000000;" parent="1" vertex="1">
          <mxGeometry x="-1278" y="74" width="10" height="10" as="geometry" />
        </mxCell>
        <mxCell id="8XHSbWPe0YvwubtO8-b5-72" value="" style="endArrow=none;html=1;rounded=0;strokeWidth=2;entryX=0;entryY=0;entryDx=0;entryDy=0;entryPerimeter=0;" parent="1" target="8XHSbWPe0YvwubtO8-b5-49" edge="1">
          <mxGeometry width="50" height="50" relative="1" as="geometry">
            <mxPoint x="-1300" y="-493" as="sourcePoint" />
            <mxPoint x="-1274" y="-492.4" as="targetPoint" />
          </mxGeometry>
        </mxCell>
        <mxCell id="8XHSbWPe0YvwubtO8-b5-81" style="edgeStyle=orthogonalEdgeStyle;rounded=0;orthogonalLoop=1;jettySize=auto;html=1;exitX=1;exitY=0.5;exitDx=0;exitDy=0;exitPerimeter=0;entryX=0.5;entryY=0;entryDx=0;entryDy=0;entryPerimeter=0;strokeWidth=2;endArrow=block;endFill=1;" parent="1" source="8XHSbWPe0YvwubtO8-b5-56" target="8XHSbWPe0YvwubtO8-b5-84" edge="1">
          <mxGeometry relative="1" as="geometry">
            <mxPoint x="-998" y="-16" as="sourcePoint" />
            <Array as="points">
              <mxPoint x="-880" y="79" />
              <mxPoint x="-880" y="-7" />
              <mxPoint x="-805" y="-7" />
            </Array>
          </mxGeometry>
        </mxCell>
        <mxCell id="8XHSbWPe0YvwubtO8-b5-93" value="" style="strokeWidth=2;html=1;shape=mxgraph.flowchart.annotation_1;align=left;pointerEvents=1;" parent="1" vertex="1">
          <mxGeometry x="-1424" y="-494" width="20" height="131" as="geometry" />
        </mxCell>
        <mxCell id="8XHSbWPe0YvwubtO8-b5-94" value="" style="triangle;whiteSpace=wrap;html=1;fillColor=#000000;" parent="1" vertex="1">
          <mxGeometry x="-1409" y="-499" width="10" height="10" as="geometry" />
        </mxCell>
        <mxCell id="Yn4G25RJ5VYcigcTXmQY-3" style="edgeStyle=orthogonalEdgeStyle;rounded=0;orthogonalLoop=1;jettySize=auto;html=1;entryX=0;entryY=0.5;entryDx=0;entryDy=0;entryPerimeter=0;strokeWidth=2;endArrow=block;endFill=1;" parent="1" target="Yn4G25RJ5VYcigcTXmQY-2" edge="1">
          <mxGeometry relative="1" as="geometry">
            <mxPoint x="-1920" y="-440" as="sourcePoint" />
          </mxGeometry>
        </mxCell>
        <mxCell id="94XcktbbLO0qLeNYjCPF-9" value="화면 흐름도 NO.2" style="text;html=1;strokeColor=none;fillColor=none;align=center;verticalAlign=middle;whiteSpace=wrap;rounded=0;fontSize=30;" parent="1" vertex="1">
          <mxGeometry x="-1985" y="-358.00000000000006" width="190" height="30" as="geometry" />
        </mxCell>
        <mxCell id="gG1ylkUvVZ-gnexLWJVJ-19" style="edgeStyle=orthogonalEdgeStyle;rounded=0;orthogonalLoop=1;jettySize=auto;html=1;exitX=1;exitY=0.5;exitDx=0;exitDy=0;exitPerimeter=0;entryX=1;entryY=0.5;entryDx=0;entryDy=0;entryPerimeter=0;strokeWidth=2;endArrow=block;endFill=1;" parent="1" source="Yn4G25RJ5VYcigcTXmQY-2" target="gG1ylkUvVZ-gnexLWJVJ-17" edge="1">
          <mxGeometry relative="1" as="geometry">
            <Array as="points">
              <mxPoint x="-1730" y="-440" />
              <mxPoint x="-1730" y="143" />
            </Array>
          </mxGeometry>
        </mxCell>
        <mxCell id="Yn4G25RJ5VYcigcTXmQY-2" value="&lt;b&gt;HADM_000&lt;br&gt;인사팀 관리자&lt;br&gt;메뉴&lt;br&gt;&lt;/b&gt;" style="strokeWidth=2;html=1;shape=mxgraph.flowchart.display;whiteSpace=wrap;fillColor=#ffe6cc;strokeColor=#d79b00;" parent="1" vertex="1">
          <mxGeometry x="-1850" y="-470" width="100" height="60" as="geometry" />
        </mxCell>
        <mxCell id="Yn4G25RJ5VYcigcTXmQY-7" value="" style="strokeWidth=2;html=1;shape=mxgraph.flowchart.annotation_1;align=left;pointerEvents=1;" parent="1" vertex="1">
          <mxGeometry x="-1424" y="-363" width="22" height="73" as="geometry" />
        </mxCell>
        <mxCell id="Yn4G25RJ5VYcigcTXmQY-8" value="" style="endArrow=none;html=1;rounded=0;entryX=1;entryY=0;entryDx=0;entryDy=0;entryPerimeter=0;strokeWidth=2;" parent="1" target="Yn4G25RJ5VYcigcTXmQY-7" edge="1">
          <mxGeometry width="50" height="50" relative="1" as="geometry">
            <mxPoint x="-1448" y="-363" as="sourcePoint" />
            <mxPoint x="-1388" y="-361" as="targetPoint" />
          </mxGeometry>
        </mxCell>
        <mxCell id="gG1ylkUvVZ-gnexLWJVJ-3" style="edgeStyle=none;rounded=0;orthogonalLoop=1;jettySize=auto;html=1;exitX=1;exitY=0.5;exitDx=0;exitDy=0;exitPerimeter=0;entryX=0;entryY=0.5;entryDx=0;entryDy=0;entryPerimeter=0;strokeWidth=2;endArrow=block;endFill=1;" parent="1" edge="1">
          <mxGeometry relative="1" as="geometry">
            <mxPoint x="-1448" y="199" as="sourcePoint" />
            <mxPoint x="-1407" y="199" as="targetPoint" />
          </mxGeometry>
        </mxCell>
        <mxCell id="gG1ylkUvVZ-gnexLWJVJ-4" value="&lt;b&gt;HREA_013&lt;br&gt;급여 조회&lt;br&gt;메뉴 화면&lt;br&gt;&lt;/b&gt;" style="strokeWidth=2;html=1;shape=mxgraph.flowchart.display;whiteSpace=wrap;fillColor=#fff2cc;strokeColor=#d6b656;" parent="1" vertex="1">
          <mxGeometry x="-1890" y="26" width="100" height="60" as="geometry" />
        </mxCell>
        <mxCell id="gG1ylkUvVZ-gnexLWJVJ-5" value="&lt;b&gt;HADM_015&lt;br&gt;인사고과 관리&lt;br&gt;메뉴 화면&lt;br&gt;&lt;/b&gt;" style="strokeWidth=2;html=1;shape=mxgraph.flowchart.display;whiteSpace=wrap;fillColor=#ffe6cc;strokeColor=#d79b00;" parent="1" vertex="1">
          <mxGeometry x="-1890" y="106" width="100" height="60" as="geometry" />
        </mxCell>
        <mxCell id="gG1ylkUvVZ-gnexLWJVJ-6" value="" style="triangle;whiteSpace=wrap;html=1;fillColor=#000000;rotation=-180;" parent="1" vertex="1">
          <mxGeometry x="-1790" y="50" width="10" height="10" as="geometry" />
        </mxCell>
        <mxCell id="gG1ylkUvVZ-gnexLWJVJ-7" value="종료" style="rounded=1;whiteSpace=wrap;html=1;absoluteArcSize=1;arcSize=68;strokeWidth=2;fontStyle=1;fontSize=14;" parent="1" vertex="1">
          <mxGeometry x="-2091" y="200.5" width="100" height="47" as="geometry" />
        </mxCell>
        <mxCell id="gG1ylkUvVZ-gnexLWJVJ-20" style="edgeStyle=orthogonalEdgeStyle;rounded=0;orthogonalLoop=1;jettySize=auto;html=1;exitX=0;exitY=0.5;exitDx=0;exitDy=0;exitPerimeter=0;entryX=1;entryY=0.5;entryDx=0;entryDy=0;strokeWidth=2;endArrow=block;endFill=1;" parent="1" source="gG1ylkUvVZ-gnexLWJVJ-9" target="gG1ylkUvVZ-gnexLWJVJ-7" edge="1">
          <mxGeometry relative="1" as="geometry" />
        </mxCell>
        <mxCell id="gG1ylkUvVZ-gnexLWJVJ-9" value="&lt;b&gt;&lt;br&gt;&lt;span data-sheets-userformat=&quot;{&amp;quot;2&amp;quot;:25343,&amp;quot;3&amp;quot;:{&amp;quot;1&amp;quot;:0},&amp;quot;4&amp;quot;:{&amp;quot;1&amp;quot;:2,&amp;quot;2&amp;quot;:14281427},&amp;quot;5&amp;quot;:{&amp;quot;1&amp;quot;:[{&amp;quot;1&amp;quot;:2,&amp;quot;2&amp;quot;:0,&amp;quot;5&amp;quot;:{&amp;quot;1&amp;quot;:2,&amp;quot;2&amp;quot;:0}},{&amp;quot;1&amp;quot;:0,&amp;quot;2&amp;quot;:0,&amp;quot;3&amp;quot;:3},{&amp;quot;1&amp;quot;:1,&amp;quot;2&amp;quot;:0,&amp;quot;4&amp;quot;:3}]},&amp;quot;6&amp;quot;:{&amp;quot;1&amp;quot;:[{&amp;quot;1&amp;quot;:2,&amp;quot;2&amp;quot;:0,&amp;quot;5&amp;quot;:{&amp;quot;1&amp;quot;:2,&amp;quot;2&amp;quot;:0}},{&amp;quot;1&amp;quot;:0,&amp;quot;2&amp;quot;:0,&amp;quot;3&amp;quot;:3},{&amp;quot;1&amp;quot;:1,&amp;quot;2&amp;quot;:0,&amp;quot;4&amp;quot;:1}]},&amp;quot;7&amp;quot;:{&amp;quot;1&amp;quot;:[{&amp;quot;1&amp;quot;:2,&amp;quot;2&amp;quot;:0,&amp;quot;5&amp;quot;:{&amp;quot;1&amp;quot;:2,&amp;quot;2&amp;quot;:0}},{&amp;quot;1&amp;quot;:0,&amp;quot;2&amp;quot;:0,&amp;quot;3&amp;quot;:3},{&amp;quot;1&amp;quot;:1,&amp;quot;2&amp;quot;:0,&amp;quot;4&amp;quot;:1}]},&amp;quot;8&amp;quot;:{&amp;quot;1&amp;quot;:[{&amp;quot;1&amp;quot;:2,&amp;quot;2&amp;quot;:0,&amp;quot;5&amp;quot;:{&amp;quot;1&amp;quot;:2,&amp;quot;2&amp;quot;:0}},{&amp;quot;1&amp;quot;:0,&amp;quot;2&amp;quot;:0,&amp;quot;3&amp;quot;:3},{&amp;quot;1&amp;quot;:1,&amp;quot;2&amp;quot;:0,&amp;quot;4&amp;quot;:1}]},&amp;quot;9&amp;quot;:1,&amp;quot;10&amp;quot;:1,&amp;quot;12&amp;quot;:0,&amp;quot;16&amp;quot;:10,&amp;quot;17&amp;quot;:1}&quot; data-sheets-value=&quot;{&amp;quot;1&amp;quot;:2,&amp;quot;2&amp;quot;:&amp;quot;GEN_001&amp;quot;}&quot; style=&quot;font-size: 10pt; font-family: Arial; font-style: normal; text-align: center;&quot;&gt;GEN_004&lt;br&gt;&lt;/span&gt;시스템 종료 &lt;br&gt;화면&lt;br&gt;&lt;/b&gt;" style="strokeWidth=2;html=1;shape=mxgraph.flowchart.display;whiteSpace=wrap;fillColor=#d5e8d4;strokeColor=#82b366;" parent="1" vertex="1">
          <mxGeometry x="-1890" y="194" width="100" height="60" as="geometry" />
        </mxCell>
        <mxCell id="gG1ylkUvVZ-gnexLWJVJ-11" value="" style="triangle;whiteSpace=wrap;html=1;fillColor=#000000;rotation=-180;" parent="1" vertex="1">
          <mxGeometry x="-1790" y="225" width="10" height="10" as="geometry" />
        </mxCell>
        <mxCell id="gG1ylkUvVZ-gnexLWJVJ-12" value="" style="group" parent="1" vertex="1" connectable="0">
          <mxGeometry x="-2087" y="68.99999999999994" width="95" height="70" as="geometry" />
        </mxCell>
        <mxCell id="gG1ylkUvVZ-gnexLWJVJ-13" value="" style="verticalLabelPosition=bottom;verticalAlign=top;html=1;shape=offPageConnector;rounded=0;size=0.42857142857142855;strokeWidth=2;fontStyle=1;fillColor=#f5f5f5;fontColor=#333333;strokeColor=#666666;labelBackgroundColor=default;" parent="gG1ylkUvVZ-gnexLWJVJ-12" vertex="1">
          <mxGeometry width="95" height="70" as="geometry" />
        </mxCell>
        <mxCell id="gG1ylkUvVZ-gnexLWJVJ-14" value="화면 흐름도 &lt;br&gt;NO.2-1로" style="text;html=1;align=center;verticalAlign=middle;resizable=0;points=[];autosize=1;strokeColor=none;fillColor=none;fontStyle=1" parent="gG1ylkUvVZ-gnexLWJVJ-12" vertex="1">
          <mxGeometry x="2" y="10.000000000000057" width="90" height="40" as="geometry" />
        </mxCell>
        <mxCell id="gG1ylkUvVZ-gnexLWJVJ-17" value="" style="strokeWidth=2;html=1;shape=mxgraph.flowchart.annotation_1;align=left;pointerEvents=1;rotation=-180;" parent="1" vertex="1">
          <mxGeometry x="-1790" y="55" width="60" height="175" as="geometry" />
        </mxCell>
        <mxCell id="gG1ylkUvVZ-gnexLWJVJ-21" value="" style="group;rotation=-180;" parent="1" vertex="1" connectable="0">
          <mxGeometry x="-1992" y="55" width="102" height="84" as="geometry" />
        </mxCell>
        <mxCell id="gG1ylkUvVZ-gnexLWJVJ-15" value="" style="strokeWidth=2;html=1;shape=mxgraph.flowchart.annotation_2;align=left;labelPosition=right;pointerEvents=1;rotation=-360;" parent="gG1ylkUvVZ-gnexLWJVJ-21" vertex="1">
          <mxGeometry y="-1.66046511627907" width="102" height="84" as="geometry" />
        </mxCell>
        <mxCell id="gG1ylkUvVZ-gnexLWJVJ-16" value="" style="triangle;whiteSpace=wrap;html=1;fillColor=#000000;rotation=-180;" parent="gG1ylkUvVZ-gnexLWJVJ-21" vertex="1">
          <mxGeometry y="35.45581395348837" width="10" height="9.767441860465118" as="geometry" />
        </mxCell>
        <mxCell id="yQOHePJmA11Kb-qOMpUZ-1" value="" style="group" parent="1" vertex="1" connectable="0">
          <mxGeometry x="-2018" y="-465" width="100" height="70" as="geometry" />
        </mxCell>
        <mxCell id="yQOHePJmA11Kb-qOMpUZ-2" value="" style="verticalLabelPosition=bottom;verticalAlign=top;html=1;shape=offPageConnector;rounded=0;size=0.42857142857142855;strokeWidth=2;fontStyle=1;fillColor=#f5f5f5;fontColor=#333333;strokeColor=#666666;labelBackgroundColor=default;" parent="yQOHePJmA11Kb-qOMpUZ-1" vertex="1">
          <mxGeometry x="2.5" width="95" height="70" as="geometry" />
        </mxCell>
        <mxCell id="yQOHePJmA11Kb-qOMpUZ-3" value="&lt;b&gt;화면 흐름도&lt;br&gt;NO.1에서 이동&lt;/b&gt;" style="text;html=1;align=center;verticalAlign=middle;resizable=0;points=[];autosize=1;strokeColor=none;fillColor=none;" parent="yQOHePJmA11Kb-qOMpUZ-1" vertex="1">
          <mxGeometry y="5" width="100" height="40" as="geometry" />
        </mxCell>
        <mxCell id="_bDyUgTBk5MnQQ78MxGI-1" value="※ MEMO : 등록, 조회, 수정, 삭제, &lt;br&gt;서브메뉴 등의 기능을 끝내면 이전의&lt;br&gt;메뉴 화면으로 돌아간다.&amp;nbsp;" style="text;html=1;strokeColor=none;fillColor=none;align=left;verticalAlign=middle;whiteSpace=wrap;rounded=0;fontStyle=1" parent="1" vertex="1">
          <mxGeometry x="-1985" y="-296" width="205" height="30" as="geometry" />
        </mxCell>
        <mxCell id="x0VW6cyTGQwndIe7IJ0m-1" value="&lt;b&gt;HREA_006&lt;/b&gt;&lt;br&gt;&lt;b&gt;히스토리 상세&lt;br&gt;조회 화면&lt;br&gt;&lt;/b&gt;" style="strokeWidth=2;html=1;shape=mxgraph.flowchart.display;whiteSpace=wrap;fillColor=#fff2cc;strokeColor=#d6b656;" parent="1" vertex="1">
          <mxGeometry x="-1264" y="-209" width="100" height="60" as="geometry" />
        </mxCell>
        <mxCell id="x0VW6cyTGQwndIe7IJ0m-3" value="&lt;b&gt;HREA_012&lt;/b&gt;&lt;br&gt;&lt;b&gt;연차 승인 내역&lt;br&gt;&amp;nbsp;상세 조회 화면&lt;br&gt;&lt;/b&gt;" style="strokeWidth=2;html=1;shape=mxgraph.flowchart.display;whiteSpace=wrap;fillColor=#fff2cc;strokeColor=#d6b656;" parent="1" vertex="1">
          <mxGeometry x="-1264" y="169" width="100" height="60" as="geometry" />
        </mxCell>
        <mxCell id="x0VW6cyTGQwndIe7IJ0m-4" style="edgeStyle=none;rounded=0;orthogonalLoop=1;jettySize=auto;html=1;exitX=1;exitY=0.5;exitDx=0;exitDy=0;exitPerimeter=0;strokeWidth=2;endArrow=block;endFill=1;entryX=0;entryY=0.5;entryDx=0;entryDy=0;entryPerimeter=0;" parent="1" target="x0VW6cyTGQwndIe7IJ0m-3" edge="1">
          <mxGeometry relative="1" as="geometry">
            <mxPoint x="-1306" y="199" as="sourcePoint" />
            <mxPoint x="-1265" y="200" as="targetPoint" />
          </mxGeometry>
        </mxCell>
        <mxCell id="3yIrR4yKN0F0JPWz39FJ-1" value="" style="group" vertex="1" connectable="0" parent="1">
          <mxGeometry x="-860" y="-390" width="146" height="246" as="geometry" />
        </mxCell>
        <mxCell id="8XHSbWPe0YvwubtO8-b5-75" value="삭제 여부" style="strokeWidth=2;html=1;shape=mxgraph.flowchart.decision;whiteSpace=wrap;fontStyle=1;fillColor=#f9f7ed;strokeColor=#36393d;" parent="3yIrR4yKN0F0JPWz39FJ-1" vertex="1">
          <mxGeometry width="110" height="57" as="geometry" />
        </mxCell>
        <mxCell id="8XHSbWPe0YvwubtO8-b5-76" value="&lt;b&gt;HADM_001&lt;br&gt;직원 관리&lt;br&gt;메뉴 화면&lt;/b&gt;" style="strokeWidth=2;html=1;shape=mxgraph.flowchart.display;whiteSpace=wrap;fillColor=#ffe6cc;strokeColor=#d79b00;" parent="3yIrR4yKN0F0JPWz39FJ-1" vertex="1">
          <mxGeometry x="5.5" y="186" width="100" height="60" as="geometry" />
        </mxCell>
        <mxCell id="8XHSbWPe0YvwubtO8-b5-74" style="edgeStyle=orthogonalEdgeStyle;rounded=0;orthogonalLoop=1;jettySize=auto;html=1;exitX=1;exitY=0.5;exitDx=0;exitDy=0;exitPerimeter=0;entryX=1;entryY=0.5;entryDx=0;entryDy=0;entryPerimeter=0;strokeWidth=2;endArrow=block;endFill=1;" parent="3yIrR4yKN0F0JPWz39FJ-1" source="8XHSbWPe0YvwubtO8-b5-75" target="8XHSbWPe0YvwubtO8-b5-76" edge="1">
          <mxGeometry relative="1" as="geometry" />
        </mxCell>
        <mxCell id="8XHSbWPe0YvwubtO8-b5-77" value="YES" style="text;html=1;strokeColor=none;fillColor=none;align=center;verticalAlign=middle;whiteSpace=wrap;rounded=0;fontStyle=1" parent="3yIrR4yKN0F0JPWz39FJ-1" vertex="1">
          <mxGeometry x="4.5" y="52" width="60" height="30" as="geometry" />
        </mxCell>
        <mxCell id="8XHSbWPe0YvwubtO8-b5-78" value="NO" style="text;html=1;strokeColor=none;fillColor=none;align=center;verticalAlign=middle;whiteSpace=wrap;rounded=0;fontStyle=1" parent="3yIrR4yKN0F0JPWz39FJ-1" vertex="1">
          <mxGeometry x="86" y="52" width="60" height="30" as="geometry" />
        </mxCell>
        <mxCell id="8XHSbWPe0YvwubtO8-b5-79" value="삭제" style="rounded=0;whiteSpace=wrap;html=1;fontStyle=1;strokeWidth=2;" parent="3yIrR4yKN0F0JPWz39FJ-1" vertex="1">
          <mxGeometry x="7.5" y="102" width="95" height="50" as="geometry" />
        </mxCell>
        <mxCell id="8XHSbWPe0YvwubtO8-b5-73" style="edgeStyle=none;rounded=0;orthogonalLoop=1;jettySize=auto;html=1;exitX=0.5;exitY=1;exitDx=0;exitDy=0;exitPerimeter=0;entryX=0.5;entryY=0;entryDx=0;entryDy=0;strokeWidth=2;endArrow=block;endFill=1;" parent="3yIrR4yKN0F0JPWz39FJ-1" source="8XHSbWPe0YvwubtO8-b5-75" target="8XHSbWPe0YvwubtO8-b5-79" edge="1">
          <mxGeometry relative="1" as="geometry" />
        </mxCell>
        <mxCell id="8XHSbWPe0YvwubtO8-b5-80" style="edgeStyle=none;rounded=0;orthogonalLoop=1;jettySize=auto;html=1;exitX=0.5;exitY=1;exitDx=0;exitDy=0;exitPerimeter=0;strokeWidth=2;endArrow=block;endFill=1;" parent="3yIrR4yKN0F0JPWz39FJ-1" edge="1">
          <mxGeometry relative="1" as="geometry">
            <mxPoint x="55" y="152" as="sourcePoint" />
            <mxPoint x="55" y="187" as="targetPoint" />
          </mxGeometry>
        </mxCell>
        <mxCell id="3yIrR4yKN0F0JPWz39FJ-2" value="" style="group" vertex="1" connectable="0" parent="1">
          <mxGeometry x="-860" y="13" width="146" height="246" as="geometry" />
        </mxCell>
        <mxCell id="8XHSbWPe0YvwubtO8-b5-84" value="삭제 여부" style="strokeWidth=2;html=1;shape=mxgraph.flowchart.decision;whiteSpace=wrap;fontStyle=1;fillColor=#f9f7ed;strokeColor=#36393d;" parent="3yIrR4yKN0F0JPWz39FJ-2" vertex="1">
          <mxGeometry width="110" height="57" as="geometry" />
        </mxCell>
        <mxCell id="8XHSbWPe0YvwubtO8-b5-85" value="&lt;b&gt;HADM_008&lt;br&gt;근태 관리&lt;br&gt;메뉴 화면&lt;/b&gt;" style="strokeWidth=2;html=1;shape=mxgraph.flowchart.display;whiteSpace=wrap;fillColor=#ffe6cc;strokeColor=#d79b00;" parent="3yIrR4yKN0F0JPWz39FJ-2" vertex="1">
          <mxGeometry x="5.5" y="186" width="100" height="60" as="geometry" />
        </mxCell>
        <mxCell id="8XHSbWPe0YvwubtO8-b5-83" style="edgeStyle=orthogonalEdgeStyle;rounded=0;orthogonalLoop=1;jettySize=auto;html=1;exitX=1;exitY=0.5;exitDx=0;exitDy=0;exitPerimeter=0;entryX=1;entryY=0.5;entryDx=0;entryDy=0;entryPerimeter=0;strokeWidth=2;endArrow=block;endFill=1;" parent="3yIrR4yKN0F0JPWz39FJ-2" source="8XHSbWPe0YvwubtO8-b5-84" target="8XHSbWPe0YvwubtO8-b5-85" edge="1">
          <mxGeometry relative="1" as="geometry" />
        </mxCell>
        <mxCell id="8XHSbWPe0YvwubtO8-b5-86" value="YES" style="text;html=1;strokeColor=none;fillColor=none;align=center;verticalAlign=middle;whiteSpace=wrap;rounded=0;fontStyle=1" parent="3yIrR4yKN0F0JPWz39FJ-2" vertex="1">
          <mxGeometry x="4.5" y="52" width="60" height="30" as="geometry" />
        </mxCell>
        <mxCell id="8XHSbWPe0YvwubtO8-b5-87" value="NO" style="text;html=1;strokeColor=none;fillColor=none;align=center;verticalAlign=middle;whiteSpace=wrap;rounded=0;fontStyle=1" parent="3yIrR4yKN0F0JPWz39FJ-2" vertex="1">
          <mxGeometry x="86" y="51" width="60" height="30" as="geometry" />
        </mxCell>
        <mxCell id="8XHSbWPe0YvwubtO8-b5-88" value="삭제" style="rounded=0;whiteSpace=wrap;html=1;fontStyle=1;strokeWidth=2;" parent="3yIrR4yKN0F0JPWz39FJ-2" vertex="1">
          <mxGeometry x="7.5" y="102" width="95" height="50" as="geometry" />
        </mxCell>
        <mxCell id="8XHSbWPe0YvwubtO8-b5-82" style="edgeStyle=none;rounded=0;orthogonalLoop=1;jettySize=auto;html=1;exitX=0.5;exitY=1;exitDx=0;exitDy=0;exitPerimeter=0;entryX=0.5;entryY=0;entryDx=0;entryDy=0;strokeWidth=2;endArrow=block;endFill=1;" parent="3yIrR4yKN0F0JPWz39FJ-2" source="8XHSbWPe0YvwubtO8-b5-84" target="8XHSbWPe0YvwubtO8-b5-88" edge="1">
          <mxGeometry relative="1" as="geometry" />
        </mxCell>
        <mxCell id="8XHSbWPe0YvwubtO8-b5-89" style="edgeStyle=none;rounded=0;orthogonalLoop=1;jettySize=auto;html=1;exitX=0.5;exitY=1;exitDx=0;exitDy=0;exitPerimeter=0;strokeWidth=2;endArrow=block;endFill=1;" parent="3yIrR4yKN0F0JPWz39FJ-2" edge="1">
          <mxGeometry relative="1" as="geometry">
            <mxPoint x="55" y="152" as="sourcePoint" />
            <mxPoint x="55" y="187" as="targetPoint" />
          </mxGeometry>
        </mxCell>
        <mxCell id="3yIrR4yKN0F0JPWz39FJ-3" value="&lt;b&gt;HADM_007&lt;br&gt;히스토리&amp;nbsp;수정 &lt;br&gt;상세 화면&lt;br&gt;&lt;/b&gt;" style="strokeWidth=2;html=1;shape=mxgraph.flowchart.display;whiteSpace=wrap;fillColor=#ffe6cc;strokeColor=#d79b00;" vertex="1" parent="1">
          <mxGeometry x="-1001" y="-246" width="100" height="60" as="geometry" />
        </mxCell>
        <mxCell id="3yIrR4yKN0F0JPWz39FJ-5" value="&lt;b&gt;HADM_012&lt;br&gt;근태 기록 수정&lt;br&gt;상세 화면&lt;br&gt;&lt;/b&gt;" style="strokeWidth=2;html=1;shape=mxgraph.flowchart.display;whiteSpace=wrap;fillColor=#ffe6cc;strokeColor=#d79b00;" vertex="1" parent="1">
          <mxGeometry x="-1121" y="-31" width="100" height="60" as="geometry" />
        </mxCell>
        <mxCell id="3yIrR4yKN0F0JPWz39FJ-7" value="&lt;b&gt;HADM_016&lt;br&gt;연차 승인 내역&lt;br&gt;&amp;nbsp;수정 상세 화면&lt;br&gt;&lt;/b&gt;" style="strokeWidth=2;html=1;shape=mxgraph.flowchart.display;whiteSpace=wrap;fillColor=#ffe6cc;strokeColor=#d79b00;" vertex="1" parent="1">
          <mxGeometry x="-991" y="130" width="100" height="60" as="geometry" />
        </mxCell>
      </root>
    </mxGraphModel>
  </diagram>
  <diagram id="jzwu14C1lWOR-prj4a64" name="흐름도2_1">
    <mxGraphModel dx="2650" dy="1373" grid="1" gridSize="10" guides="1" tooltips="1" connect="1" arrows="1" fold="1" page="0" pageScale="1" pageWidth="1169" pageHeight="827" math="0" shadow="0">
      <root>
        <mxCell id="0" />
        <mxCell id="1" parent="0" />
        <mxCell id="MQnMCl-APFXF8XjLZTv1-1" style="edgeStyle=orthogonalEdgeStyle;rounded=0;orthogonalLoop=1;jettySize=auto;html=1;exitX=1;exitY=0.5;exitDx=0;exitDy=0;exitPerimeter=0;entryX=0;entryY=0.5;entryDx=0;entryDy=0;entryPerimeter=0;strokeWidth=2;endArrow=block;endFill=1;" parent="1" edge="1">
          <mxGeometry relative="1" as="geometry">
            <Array as="points">
              <mxPoint x="-706" y="-708" />
              <mxPoint x="-706" y="-548" />
            </Array>
            <mxPoint x="-726" y="-708" as="sourcePoint" />
            <mxPoint x="-676" y="-548" as="targetPoint" />
          </mxGeometry>
        </mxCell>
        <mxCell id="MQnMCl-APFXF8XjLZTv1-4" value="&lt;b&gt;HREA_014&lt;br&gt;급여 정보 전체&lt;br&gt;목록 화면&lt;br&gt;&lt;/b&gt;" style="strokeWidth=2;html=1;shape=mxgraph.flowchart.display;whiteSpace=wrap;fillColor=#fff2cc;strokeColor=#d6b656;" parent="1" vertex="1">
          <mxGeometry x="-676" y="-738" width="100" height="60" as="geometry" />
        </mxCell>
        <mxCell id="MQnMCl-APFXF8XjLZTv1-5" value="&lt;b&gt;HREA_016&lt;/b&gt;&lt;br&gt;&lt;b&gt;급여 지급 내역&lt;br&gt;전체 목록 화면&lt;br&gt;&lt;/b&gt;" style="strokeWidth=2;html=1;shape=mxgraph.flowchart.display;whiteSpace=wrap;fillColor=#fff2cc;strokeColor=#d6b656;" parent="1" vertex="1">
          <mxGeometry x="-676" y="-578" width="100" height="60" as="geometry" />
        </mxCell>
        <mxCell id="MQnMCl-APFXF8XjLZTv1-6" style="edgeStyle=orthogonalEdgeStyle;rounded=0;orthogonalLoop=1;jettySize=auto;html=1;exitX=1;exitY=0.5;exitDx=0;exitDy=0;exitPerimeter=0;entryX=0;entryY=0.5;entryDx=0;entryDy=0;entryPerimeter=0;strokeWidth=2;endArrow=block;endFill=1;" parent="1" target="MQnMCl-APFXF8XjLZTv1-10" edge="1">
          <mxGeometry relative="1" as="geometry">
            <mxPoint x="-576" y="-708" as="sourcePoint" />
            <Array as="points">
              <mxPoint x="-540" y="-708" />
              <mxPoint x="-540" y="-708" />
            </Array>
          </mxGeometry>
        </mxCell>
        <mxCell id="MQnMCl-APFXF8XjLZTv1-10" value="&lt;b&gt;HREA_015&lt;/b&gt;&lt;br&gt;&lt;b&gt;급여 정보 개별&lt;br&gt;조회 화면&lt;br&gt;&lt;/b&gt;" style="strokeWidth=2;html=1;shape=mxgraph.flowchart.display;whiteSpace=wrap;fillColor=#fff2cc;strokeColor=#d6b656;" parent="1" vertex="1">
          <mxGeometry x="-533" y="-738" width="120" height="60" as="geometry" />
        </mxCell>
        <mxCell id="MQnMCl-APFXF8XjLZTv1-11" style="edgeStyle=orthogonalEdgeStyle;rounded=0;orthogonalLoop=1;jettySize=auto;html=1;exitX=1;exitY=0.5;exitDx=0;exitDy=0;exitPerimeter=0;entryX=0;entryY=0.5;entryDx=0;entryDy=0;entryPerimeter=0;strokeWidth=2;endArrow=block;endFill=1;" parent="1" target="MQnMCl-APFXF8XjLZTv1-15" edge="1">
          <mxGeometry relative="1" as="geometry">
            <mxPoint x="-576" y="-548" as="sourcePoint" />
            <Array as="points">
              <mxPoint x="-540" y="-548" />
              <mxPoint x="-540" y="-548" />
            </Array>
          </mxGeometry>
        </mxCell>
        <mxCell id="MQnMCl-APFXF8XjLZTv1-15" value="&lt;b&gt;HREA_017&lt;/b&gt;&lt;br&gt;&lt;b&gt;급여 지급 내역&lt;br&gt;개별 조회 화면&lt;br&gt;&lt;/b&gt;" style="strokeWidth=2;html=1;shape=mxgraph.flowchart.display;whiteSpace=wrap;fillColor=#fff2cc;strokeColor=#d6b656;" parent="1" vertex="1">
          <mxGeometry x="-533" y="-578" width="120" height="60" as="geometry" />
        </mxCell>
        <mxCell id="hJl2GlrRcukJMAD1tR7H-2" value="" style="strokeWidth=2;html=1;shape=mxgraph.flowchart.annotation_2;align=left;labelPosition=right;pointerEvents=1;rotation=90;" parent="1" vertex="1">
          <mxGeometry x="-793.5" y="-559.75" width="50" height="147" as="geometry" />
        </mxCell>
        <mxCell id="hJl2GlrRcukJMAD1tR7H-3" value="&lt;b&gt;HADM_019&lt;br&gt;평가 기록 등록&lt;br&gt;화면&lt;br&gt;&lt;/b&gt;" style="strokeWidth=2;html=1;shape=mxgraph.flowchart.display;whiteSpace=wrap;fillColor=#ffe6cc;strokeColor=#d79b00;" parent="1" vertex="1">
          <mxGeometry x="-900" y="-459.25" width="100" height="60" as="geometry" />
        </mxCell>
        <mxCell id="hJl2GlrRcukJMAD1tR7H-4" value="&lt;b&gt;HREA_020&lt;br&gt;평가 기록 전체&lt;br&gt;목록 화면&lt;br&gt;&lt;/b&gt;" style="strokeWidth=2;html=1;shape=mxgraph.flowchart.display;whiteSpace=wrap;fillColor=#fff2cc;strokeColor=#d6b656;" parent="1" vertex="1">
          <mxGeometry x="-749" y="-459.25" width="100" height="60" as="geometry" />
        </mxCell>
        <mxCell id="hJl2GlrRcukJMAD1tR7H-5" value="" style="triangle;whiteSpace=wrap;html=1;fillColor=#000000;rotation=90;" parent="1" vertex="1">
          <mxGeometry x="-847" y="-471.25" width="10" height="13" as="geometry" />
        </mxCell>
        <mxCell id="hJl2GlrRcukJMAD1tR7H-6" value="" style="triangle;whiteSpace=wrap;html=1;fillColor=#000000;rotation=90;" parent="1" vertex="1">
          <mxGeometry x="-699" y="-471.25" width="10" height="13" as="geometry" />
        </mxCell>
        <mxCell id="hJl2GlrRcukJMAD1tR7H-7" value="" style="strokeWidth=2;html=1;shape=mxgraph.flowchart.annotation_2;align=left;labelPosition=right;pointerEvents=1;rotation=90;" parent="1" vertex="1">
          <mxGeometry x="-714.75" y="-525" width="50" height="304" as="geometry" />
        </mxCell>
        <mxCell id="OKT8AspErkg5kKVvsIdB-13" style="edgeStyle=orthogonalEdgeStyle;rounded=0;orthogonalLoop=1;jettySize=auto;html=1;exitX=0.5;exitY=1;exitDx=0;exitDy=0;exitPerimeter=0;entryX=0;entryY=0.5;entryDx=0;entryDy=0;entryPerimeter=0;strokeWidth=2;endArrow=block;endFill=1;" parent="1" source="hJl2GlrRcukJMAD1tR7H-8" target="hJl2GlrRcukJMAD1tR7H-9" edge="1">
          <mxGeometry relative="1" as="geometry">
            <Array as="points">
              <mxPoint x="-703" y="-260" />
              <mxPoint x="-630" y="-260" />
              <mxPoint x="-630" y="-311" />
            </Array>
          </mxGeometry>
        </mxCell>
        <mxCell id="hJl2GlrRcukJMAD1tR7H-8" value="&lt;b&gt;HREA_020&lt;br&gt;&lt;/b&gt;&lt;b style=&quot;border-color: var(--border-color);&quot;&gt;평가 기록 전체&lt;br style=&quot;border-color: var(--border-color);&quot;&gt;목록(연도별) 화면&lt;/b&gt;&lt;b&gt;&lt;br&gt;&lt;/b&gt;" style="strokeWidth=2;html=1;shape=mxgraph.flowchart.display;whiteSpace=wrap;fillColor=#fff2cc;strokeColor=#d6b656;" parent="1" vertex="1">
          <mxGeometry x="-761.25" y="-342" width="117" height="60" as="geometry" />
        </mxCell>
        <mxCell id="oNmRSawVX3x7tIscEqXT-6" style="edgeStyle=orthogonalEdgeStyle;rounded=0;orthogonalLoop=1;jettySize=auto;html=1;exitX=0.5;exitY=1;exitDx=0;exitDy=0;exitPerimeter=0;entryX=0.5;entryY=0;entryDx=0;entryDy=0;entryPerimeter=0;strokeWidth=2;endArrow=block;endFill=1;" parent="1" source="hJl2GlrRcukJMAD1tR7H-9" target="oNmRSawVX3x7tIscEqXT-5" edge="1">
          <mxGeometry relative="1" as="geometry" />
        </mxCell>
        <mxCell id="hJl2GlrRcukJMAD1tR7H-9" value="&lt;b&gt;HREA_021&lt;br&gt;평가 기록 개별&lt;br&gt;조회 화면&lt;br&gt;&lt;/b&gt;" style="strokeWidth=2;html=1;shape=mxgraph.flowchart.display;whiteSpace=wrap;fillColor=#fff2cc;strokeColor=#d6b656;" parent="1" vertex="1">
          <mxGeometry x="-599" y="-341" width="117" height="60" as="geometry" />
        </mxCell>
        <mxCell id="hJl2GlrRcukJMAD1tR7H-10" value="" style="triangle;whiteSpace=wrap;html=1;fillColor=#000000;rotation=90;" parent="1" vertex="1">
          <mxGeometry x="-697" y="-354" width="10" height="13" as="geometry" />
        </mxCell>
        <mxCell id="hJl2GlrRcukJMAD1tR7H-11" value="" style="triangle;whiteSpace=wrap;html=1;fillColor=#000000;rotation=90;" parent="1" vertex="1">
          <mxGeometry x="-543" y="-354" width="10" height="13" as="geometry" />
        </mxCell>
        <mxCell id="hJl2GlrRcukJMAD1tR7H-12" value="" style="strokeWidth=2;html=1;shape=mxgraph.flowchart.annotation_1;align=left;pointerEvents=1;rotation=90;" parent="1" vertex="1">
          <mxGeometry x="-846" y="-499.25" width="28" height="280" as="geometry" />
        </mxCell>
        <mxCell id="hJl2GlrRcukJMAD1tR7H-13" style="edgeStyle=orthogonalEdgeStyle;rounded=0;orthogonalLoop=1;jettySize=auto;html=1;exitX=0.5;exitY=1;exitDx=0;exitDy=0;exitPerimeter=0;strokeWidth=2;endArrow=block;endFill=1;" parent="1" source="hJl2GlrRcukJMAD1tR7H-14" target="hJl2GlrRcukJMAD1tR7H-9" edge="1">
          <mxGeometry relative="1" as="geometry">
            <Array as="points">
              <mxPoint x="-970" y="-260" />
              <mxPoint x="-630" y="-260" />
              <mxPoint x="-630" y="-311" />
            </Array>
          </mxGeometry>
        </mxCell>
        <mxCell id="hJl2GlrRcukJMAD1tR7H-14" value="&lt;b&gt;HREA_020&lt;br&gt;평가 기록 전체&lt;br&gt;목록(부서별) 화면&lt;br&gt;&lt;/b&gt;" style="strokeWidth=2;html=1;shape=mxgraph.flowchart.display;whiteSpace=wrap;fillColor=#fff2cc;strokeColor=#d6b656;" parent="1" vertex="1">
          <mxGeometry x="-1030" y="-343" width="120" height="60" as="geometry" />
        </mxCell>
        <mxCell id="OKT8AspErkg5kKVvsIdB-11" style="edgeStyle=orthogonalEdgeStyle;rounded=0;orthogonalLoop=1;jettySize=auto;html=1;exitX=0.5;exitY=1;exitDx=0;exitDy=0;exitPerimeter=0;entryX=0;entryY=0.5;entryDx=0;entryDy=0;entryPerimeter=0;strokeWidth=2;endArrow=block;endFill=1;" parent="1" source="hJl2GlrRcukJMAD1tR7H-16" target="hJl2GlrRcukJMAD1tR7H-9" edge="1">
          <mxGeometry relative="1" as="geometry">
            <Array as="points">
              <mxPoint x="-840" y="-260" />
              <mxPoint x="-630" y="-260" />
              <mxPoint x="-630" y="-311" />
            </Array>
          </mxGeometry>
        </mxCell>
        <mxCell id="hJl2GlrRcukJMAD1tR7H-16" value="&lt;b&gt;HREA_020&lt;br&gt;&lt;/b&gt;&lt;b style=&quot;border-color: var(--border-color);&quot;&gt;평가 기록 전체&lt;br style=&quot;border-color: var(--border-color);&quot;&gt;목록(직급별) 화면&lt;/b&gt;&lt;b&gt;&lt;br&gt;&lt;/b&gt;" style="strokeWidth=2;html=1;shape=mxgraph.flowchart.display;whiteSpace=wrap;fillColor=#fff2cc;strokeColor=#d6b656;" parent="1" vertex="1">
          <mxGeometry x="-900" y="-344" width="120" height="60" as="geometry" />
        </mxCell>
        <mxCell id="hJl2GlrRcukJMAD1tR7H-17" value="" style="triangle;whiteSpace=wrap;html=1;fillColor=#000000;rotation=90;" parent="1" vertex="1">
          <mxGeometry x="-976" y="-355" width="10" height="13" as="geometry" />
        </mxCell>
        <mxCell id="hJl2GlrRcukJMAD1tR7H-18" value="" style="triangle;whiteSpace=wrap;html=1;fillColor=#000000;rotation=90;" parent="1" vertex="1">
          <mxGeometry x="-846" y="-357" width="10" height="13" as="geometry" />
        </mxCell>
        <mxCell id="OKT8AspErkg5kKVvsIdB-9" style="edgeStyle=orthogonalEdgeStyle;rounded=0;orthogonalLoop=1;jettySize=auto;html=1;exitX=0.5;exitY=1;exitDx=0;exitDy=0;exitPerimeter=0;entryX=0.5;entryY=0;entryDx=0;entryDy=0;entryPerimeter=0;strokeWidth=2;endArrow=block;endFill=1;" parent="1" source="hJl2GlrRcukJMAD1tR7H-19" target="OKT8AspErkg5kKVvsIdB-3" edge="1">
          <mxGeometry relative="1" as="geometry">
            <Array as="points">
              <mxPoint x="-467" y="-37" />
              <mxPoint x="-387" y="-37" />
              <mxPoint x="-387" y="-276" />
              <mxPoint x="-311" y="-276" />
            </Array>
          </mxGeometry>
        </mxCell>
        <mxCell id="hJl2GlrRcukJMAD1tR7H-19" value="&lt;b&gt;HADM_021&lt;br&gt;평가 기록 삭제&lt;br&gt;화면&lt;br&gt;&lt;/b&gt;" style="strokeWidth=2;html=1;shape=mxgraph.flowchart.display;whiteSpace=wrap;fillColor=#ffe6cc;strokeColor=#d79b00;" parent="1" vertex="1">
          <mxGeometry x="-525" y="-116.5" width="117" height="60" as="geometry" />
        </mxCell>
        <mxCell id="hJl2GlrRcukJMAD1tR7H-20" value="" style="triangle;whiteSpace=wrap;html=1;fillColor=#000000;rotation=90;" parent="1" vertex="1">
          <mxGeometry x="-468" y="-129.5" width="10" height="13" as="geometry" />
        </mxCell>
        <mxCell id="hJl2GlrRcukJMAD1tR7H-21" value="&lt;b&gt;HADM_020&lt;br&gt;평가 기록 수정 &lt;br&gt;화면&lt;br&gt;&lt;/b&gt;" style="strokeWidth=2;html=1;shape=mxgraph.flowchart.display;whiteSpace=wrap;fillColor=#ffe6cc;strokeColor=#d79b00;" parent="1" vertex="1">
          <mxGeometry x="-673" y="-116.5" width="117" height="60" as="geometry" />
        </mxCell>
        <mxCell id="hJl2GlrRcukJMAD1tR7H-22" value="" style="triangle;whiteSpace=wrap;html=1;fillColor=#000000;rotation=90;" parent="1" vertex="1">
          <mxGeometry x="-616" y="-129.5" width="10" height="13" as="geometry" />
        </mxCell>
        <mxCell id="hJl2GlrRcukJMAD1tR7H-23" value="" style="strokeWidth=2;html=1;shape=mxgraph.flowchart.annotation_2;align=left;labelPosition=right;pointerEvents=1;rotation=90;" parent="1" vertex="1">
          <mxGeometry x="-557" y="-215" width="40" height="149" as="geometry" />
        </mxCell>
        <mxCell id="Ch8B8BdlGXFN_-I5DQZV-3" value="" style="group" parent="1" vertex="1" connectable="0">
          <mxGeometry x="-1020" y="-714" width="100" height="70" as="geometry" />
        </mxCell>
        <mxCell id="Ch8B8BdlGXFN_-I5DQZV-4" value="" style="verticalLabelPosition=bottom;verticalAlign=top;html=1;shape=offPageConnector;rounded=0;size=0.42857142857142855;strokeWidth=2;fontStyle=1;fillColor=#f5f5f5;fontColor=#333333;strokeColor=#666666;labelBackgroundColor=default;" parent="Ch8B8BdlGXFN_-I5DQZV-3" vertex="1">
          <mxGeometry x="2.5" width="95" height="70" as="geometry" />
        </mxCell>
        <mxCell id="Ch8B8BdlGXFN_-I5DQZV-5" value="&lt;b&gt;화면 흐름도&lt;br&gt;NO.2에서 이동&lt;/b&gt;" style="text;html=1;align=center;verticalAlign=middle;resizable=0;points=[];autosize=1;strokeColor=none;fillColor=none;" parent="Ch8B8BdlGXFN_-I5DQZV-3" vertex="1">
          <mxGeometry y="5" width="100" height="40" as="geometry" />
        </mxCell>
        <mxCell id="JyP5rrn8H0grjmPiAJQb-1" value="&lt;b&gt;HREA_013&lt;br&gt;급여 조회&lt;br&gt;메뉴 화면&lt;br&gt;&lt;/b&gt;" style="strokeWidth=2;html=1;shape=mxgraph.flowchart.display;whiteSpace=wrap;fillColor=#fff2cc;strokeColor=#d6b656;" parent="1" vertex="1">
          <mxGeometry x="-827" y="-737" width="100" height="60" as="geometry" />
        </mxCell>
        <mxCell id="JyP5rrn8H0grjmPiAJQb-2" value="&lt;b&gt;HADM_018&lt;br&gt;인사고과 관리&lt;br&gt;메뉴 화면&lt;br&gt;&lt;/b&gt;" style="strokeWidth=2;html=1;shape=mxgraph.flowchart.display;whiteSpace=wrap;fillColor=#ffe6cc;strokeColor=#d79b00;" parent="1" vertex="1">
          <mxGeometry x="-827" y="-570" width="100" height="60" as="geometry" />
        </mxCell>
        <mxCell id="JyP5rrn8H0grjmPiAJQb-3" value="" style="strokeWidth=2;html=1;shape=mxgraph.flowchart.annotation_1;align=left;pointerEvents=1;" parent="1" vertex="1">
          <mxGeometry x="-860" y="-706" width="30" height="166" as="geometry" />
        </mxCell>
        <mxCell id="JyP5rrn8H0grjmPiAJQb-5" value="" style="endArrow=none;html=1;rounded=0;strokeWidth=2;" parent="1" edge="1">
          <mxGeometry width="50" height="50" relative="1" as="geometry">
            <mxPoint x="-922" y="-679" as="sourcePoint" />
            <mxPoint x="-860" y="-679" as="targetPoint" />
          </mxGeometry>
        </mxCell>
        <mxCell id="JyP5rrn8H0grjmPiAJQb-6" value="" style="triangle;whiteSpace=wrap;html=1;fillColor=#000000;rotation=-90;direction=south;" parent="1" vertex="1">
          <mxGeometry x="-840.5" y="-545.5" width="13" height="10" as="geometry" />
        </mxCell>
        <mxCell id="JyP5rrn8H0grjmPiAJQb-7" value="" style="triangle;whiteSpace=wrap;html=1;fillColor=#000000;rotation=-90;direction=south;" parent="1" vertex="1">
          <mxGeometry x="-840.5" y="-711.5" width="13" height="10" as="geometry" />
        </mxCell>
        <mxCell id="JyP5rrn8H0grjmPiAJQb-8" value="" style="endArrow=block;html=1;rounded=0;strokeWidth=2;endFill=1;" parent="1" edge="1">
          <mxGeometry width="50" height="50" relative="1" as="geometry">
            <mxPoint x="-726" y="-708.27" as="sourcePoint" />
            <mxPoint x="-676" y="-708.27" as="targetPoint" />
          </mxGeometry>
        </mxCell>
        <mxCell id="OKT8AspErkg5kKVvsIdB-1" style="edgeStyle=none;rounded=0;orthogonalLoop=1;jettySize=auto;html=1;exitX=0.5;exitY=1;exitDx=0;exitDy=0;exitPerimeter=0;entryX=0.5;entryY=0;entryDx=0;entryDy=0;strokeWidth=2;endArrow=block;endFill=1;" parent="1" source="OKT8AspErkg5kKVvsIdB-3" target="OKT8AspErkg5kKVvsIdB-7" edge="1">
          <mxGeometry relative="1" as="geometry" />
        </mxCell>
        <mxCell id="OKT8AspErkg5kKVvsIdB-2" style="edgeStyle=orthogonalEdgeStyle;rounded=0;orthogonalLoop=1;jettySize=auto;html=1;exitX=1;exitY=0.5;exitDx=0;exitDy=0;exitPerimeter=0;entryX=1;entryY=0.5;entryDx=0;entryDy=0;entryPerimeter=0;strokeWidth=2;endArrow=block;endFill=1;" parent="1" source="OKT8AspErkg5kKVvsIdB-3" target="OKT8AspErkg5kKVvsIdB-4" edge="1">
          <mxGeometry relative="1" as="geometry" />
        </mxCell>
        <mxCell id="OKT8AspErkg5kKVvsIdB-3" value="삭제 여부" style="strokeWidth=2;html=1;shape=mxgraph.flowchart.decision;whiteSpace=wrap;fontStyle=1;fillColor=#f9f7ed;strokeColor=#36393d;" parent="1" vertex="1">
          <mxGeometry x="-366" y="-246" width="110" height="57" as="geometry" />
        </mxCell>
        <mxCell id="OKT8AspErkg5kKVvsIdB-4" value="&lt;b&gt;HADM_018&lt;br&gt;인사고과 관리&lt;br&gt;메뉴 화면&lt;/b&gt;" style="strokeWidth=2;html=1;shape=mxgraph.flowchart.display;whiteSpace=wrap;fillColor=#ffe6cc;strokeColor=#d79b00;" parent="1" vertex="1">
          <mxGeometry x="-360.5" y="-60" width="100" height="60" as="geometry" />
        </mxCell>
        <mxCell id="OKT8AspErkg5kKVvsIdB-5" value="YES" style="text;html=1;strokeColor=none;fillColor=none;align=center;verticalAlign=middle;whiteSpace=wrap;rounded=0;fontStyle=1" parent="1" vertex="1">
          <mxGeometry x="-361.5" y="-194" width="60" height="30" as="geometry" />
        </mxCell>
        <mxCell id="OKT8AspErkg5kKVvsIdB-6" value="NO" style="text;html=1;strokeColor=none;fillColor=none;align=center;verticalAlign=middle;whiteSpace=wrap;rounded=0;fontStyle=1" parent="1" vertex="1">
          <mxGeometry x="-280" y="-195" width="60" height="30" as="geometry" />
        </mxCell>
        <mxCell id="OKT8AspErkg5kKVvsIdB-7" value="삭제" style="rounded=0;whiteSpace=wrap;html=1;fontStyle=1;strokeWidth=2;" parent="1" vertex="1">
          <mxGeometry x="-358.5" y="-144" width="95" height="50" as="geometry" />
        </mxCell>
        <mxCell id="OKT8AspErkg5kKVvsIdB-8" style="edgeStyle=none;rounded=0;orthogonalLoop=1;jettySize=auto;html=1;exitX=0.5;exitY=1;exitDx=0;exitDy=0;exitPerimeter=0;strokeWidth=2;endArrow=block;endFill=1;" parent="1" edge="1">
          <mxGeometry relative="1" as="geometry">
            <mxPoint x="-311" y="-94" as="sourcePoint" />
            <mxPoint x="-311" y="-59" as="targetPoint" />
          </mxGeometry>
        </mxCell>
        <mxCell id="OKT8AspErkg5kKVvsIdB-14" value="" style="group" parent="1" vertex="1" connectable="0">
          <mxGeometry x="-1249" y="-709" width="201" height="100" as="geometry" />
        </mxCell>
        <mxCell id="Ch8B8BdlGXFN_-I5DQZV-2" value="화면 흐름도 NO.2-1" style="text;html=1;strokeColor=none;fillColor=none;align=center;verticalAlign=middle;whiteSpace=wrap;rounded=0;fontSize=30;" parent="OKT8AspErkg5kKVvsIdB-14" vertex="1">
          <mxGeometry width="190" height="30" as="geometry" />
        </mxCell>
        <mxCell id="YPaqx7n-rS88EXedwF6G-2" value="※ MEMO : 등록, 조회, 수정, 삭제, &lt;br&gt;서브메뉴 등의 기능을 끝내면 이전의&lt;br&gt;메뉴 화면으로 돌아간다.&amp;nbsp;" style="text;html=1;strokeColor=none;fillColor=none;align=left;verticalAlign=middle;whiteSpace=wrap;rounded=0;fontStyle=1" parent="OKT8AspErkg5kKVvsIdB-14" vertex="1">
          <mxGeometry x="-4" y="67" width="205" height="30" as="geometry" />
        </mxCell>
        <mxCell id="oNmRSawVX3x7tIscEqXT-3" style="edgeStyle=orthogonalEdgeStyle;rounded=0;orthogonalLoop=1;jettySize=auto;html=1;exitX=1;exitY=0.5;exitDx=0;exitDy=0;exitPerimeter=0;entryX=0;entryY=0.5;entryDx=0;entryDy=0;entryPerimeter=0;strokeWidth=2;endArrow=block;endFill=1;" parent="1" target="oNmRSawVX3x7tIscEqXT-4" edge="1">
          <mxGeometry relative="1" as="geometry">
            <mxPoint x="-413" y="-548" as="sourcePoint" />
          </mxGeometry>
        </mxCell>
        <mxCell id="oNmRSawVX3x7tIscEqXT-4" value="&lt;b&gt;HREA_018&lt;/b&gt;&lt;br&gt;&lt;b&gt;급여 지급 내역 &lt;br&gt;상세 조회 화면&lt;br&gt;&lt;/b&gt;" style="strokeWidth=2;html=1;shape=mxgraph.flowchart.display;whiteSpace=wrap;fillColor=#fff2cc;strokeColor=#d6b656;" parent="1" vertex="1">
          <mxGeometry x="-367" y="-578" width="120" height="60" as="geometry" />
        </mxCell>
        <mxCell id="oNmRSawVX3x7tIscEqXT-5" value="&lt;b&gt;HREA_022&lt;br&gt;평가 기록 상세&lt;br&gt;조회 화면&lt;br&gt;&lt;/b&gt;" style="strokeWidth=2;html=1;shape=mxgraph.flowchart.display;whiteSpace=wrap;fillColor=#fff2cc;strokeColor=#d6b656;" parent="1" vertex="1">
          <mxGeometry x="-599" y="-220" width="117" height="60" as="geometry" />
        </mxCell>
      </root>
    </mxGraphModel>
  </diagram>
  <diagram id="IrX2pWoE-DPt6_gkJp1j" name="흐름도3">
    <mxGraphModel dx="1450" dy="573" grid="1" gridSize="10" guides="1" tooltips="1" connect="1" arrows="1" fold="1" page="0" pageScale="1" pageWidth="1654" pageHeight="1169" background="#ffffff" math="0" shadow="0">
      <root>
        <mxCell id="0" />
        <mxCell id="1" parent="0" />
        <mxCell id="oBPLP6154dvLL8T49oTh-5" value="" style="triangle;whiteSpace=wrap;html=1;fillColor=#000000;rotation=90;" parent="1" vertex="1">
          <mxGeometry x="615.6800000000001" y="323" width="10" height="13" as="geometry" />
        </mxCell>
        <mxCell id="oBPLP6154dvLL8T49oTh-6" value="" style="triangle;whiteSpace=wrap;html=1;fillColor=#000000;rotation=90;" parent="1" vertex="1">
          <mxGeometry x="845.6800000000001" y="323.99" width="10" height="13" as="geometry" />
        </mxCell>
        <mxCell id="oBPLP6154dvLL8T49oTh-17" style="edgeStyle=none;rounded=0;orthogonalLoop=1;jettySize=auto;html=1;exitX=0.5;exitY=1;exitDx=0;exitDy=0;entryX=0.5;entryY=0;entryDx=0;entryDy=0;entryPerimeter=0;strokeWidth=2;endArrow=block;endFill=1;" parent="1" source="oBPLP6154dvLL8T49oTh-18" edge="1">
          <mxGeometry relative="1" as="geometry">
            <mxPoint x="847.6800000000001" y="189.48999999999995" as="targetPoint" />
          </mxGeometry>
        </mxCell>
        <mxCell id="oBPLP6154dvLL8T49oTh-21" value="" style="triangle;whiteSpace=wrap;html=1;fillColor=#000000;rotation=90;" parent="1" vertex="1">
          <mxGeometry x="393.25" y="495.94" width="10" height="13" as="geometry" />
        </mxCell>
        <mxCell id="oBPLP6154dvLL8T49oTh-27" value="" style="triangle;whiteSpace=wrap;html=1;fillColor=#000000;rotation=90;" parent="1" vertex="1">
          <mxGeometry x="213.25" y="496.94" width="10" height="13" as="geometry" />
        </mxCell>
        <mxCell id="oBPLP6154dvLL8T49oTh-39" value="※ MEMO : 조회, 서브메뉴 &lt;br&gt;기능을 끝내면 이전의 메뉴 &lt;br&gt;화면으로 돌아간다.&amp;nbsp;" style="text;html=1;strokeColor=none;fillColor=none;align=left;verticalAlign=middle;whiteSpace=wrap;rounded=0;fontStyle=1;fontSize=14;" parent="1" vertex="1">
          <mxGeometry x="577.6800000000001" y="136.93" width="190" height="30" as="geometry" />
        </mxCell>
        <mxCell id="oBPLP6154dvLL8T49oTh-40" value="화면 흐름도 NO.3" style="text;html=1;strokeColor=none;fillColor=none;align=center;verticalAlign=middle;whiteSpace=wrap;rounded=0;fontSize=30;" parent="1" vertex="1">
          <mxGeometry x="566.6800000000001" y="66.93" width="190" height="30" as="geometry" />
        </mxCell>
        <mxCell id="-yDLh_zFGiAmxvwi8ZIF-1" value="&lt;b&gt;HREA_000&lt;br&gt;인사팀 열람자&lt;br&gt;메뉴&lt;br&gt;&lt;/b&gt;" style="strokeWidth=2;html=1;shape=mxgraph.flowchart.display;whiteSpace=wrap;fillColor=#fff2cc;strokeColor=#d6b656;" parent="1" vertex="1">
          <mxGeometry x="797.6800000000001" y="188.49" width="100" height="60" as="geometry" />
        </mxCell>
        <mxCell id="jXhUnfqeEiBn-ySxMHwP-1" value="" style="strokeWidth=2;html=1;shape=mxgraph.flowchart.annotation_1;align=left;pointerEvents=1;rotation=90;" parent="1" vertex="1">
          <mxGeometry x="868.34" y="-237.37" width="48.3" height="1083.11" as="geometry" />
        </mxCell>
        <mxCell id="jXhUnfqeEiBn-ySxMHwP-2" value="" style="triangle;whiteSpace=wrap;html=1;fillColor=#000000;rotation=90;" parent="1" vertex="1">
          <mxGeometry x="1428" y="325.99" width="10" height="13" as="geometry" />
        </mxCell>
        <mxCell id="Hugdj5gKkHMqz_s-qgQf-1" value="&lt;b&gt;HREA_001&lt;br&gt;직원 정보 조회&lt;br&gt;메뉴&lt;br&gt;&lt;/b&gt;" style="strokeWidth=2;html=1;shape=mxgraph.flowchart.display;whiteSpace=wrap;fillColor=#fff2cc;strokeColor=#d6b656;" parent="1" vertex="1">
          <mxGeometry x="294.68000000000006" y="330" width="100" height="60" as="geometry" />
        </mxCell>
        <mxCell id="ilwugLyyCwfNUjW-qF_L-1" value="&lt;b&gt;HREA_007&lt;br&gt;근태 조회&lt;br&gt;메뉴&lt;br&gt;&lt;/b&gt;" style="strokeWidth=2;html=1;shape=mxgraph.flowchart.display;whiteSpace=wrap;fillColor=#fff2cc;strokeColor=#d6b656;" parent="1" vertex="1">
          <mxGeometry x="566.6800000000001" y="337" width="100" height="60" as="geometry" />
        </mxCell>
        <mxCell id="wHKZd79F4rnngBKSrLOq-1" value="&lt;b&gt;HREA_013&lt;br&gt;급여 조회&lt;br&gt;메뉴&lt;br&gt;&lt;/b&gt;" style="strokeWidth=2;html=1;shape=mxgraph.flowchart.display;whiteSpace=wrap;fillColor=#fff2cc;strokeColor=#d6b656;" parent="1" vertex="1">
          <mxGeometry x="800.6800000000001" y="337.99" width="100" height="60" as="geometry" />
        </mxCell>
        <mxCell id="wHKZd79F4rnngBKSrLOq-2" value="" style="triangle;whiteSpace=wrap;html=1;fillColor=#000000;rotation=90;" parent="1" vertex="1">
          <mxGeometry x="345.68000000000006" y="318" width="10" height="13" as="geometry" />
        </mxCell>
        <mxCell id="wHKZd79F4rnngBKSrLOq-3" value="" style="strokeWidth=2;html=1;shape=mxgraph.flowchart.annotation_1;align=left;pointerEvents=1;rotation=90;" parent="1" vertex="1">
          <mxGeometry x="712.7" y="187.45" width="44.82" height="230.79" as="geometry" />
        </mxCell>
        <mxCell id="wHKZd79F4rnngBKSrLOq-4" value="" style="triangle;whiteSpace=wrap;html=1;fillColor=#000000;rotation=90;" parent="1" vertex="1">
          <mxGeometry x="1135" y="321.99" width="10" height="13" as="geometry" />
        </mxCell>
        <mxCell id="wHKZd79F4rnngBKSrLOq-7" value="" style="endArrow=none;html=1;rounded=0;strokeWidth=2;" parent="1" edge="1">
          <mxGeometry width="50" height="50" relative="1" as="geometry">
            <mxPoint x="850.6800000000001" y="278.93" as="sourcePoint" />
            <mxPoint x="850.6800000000001" y="248.93" as="targetPoint" />
          </mxGeometry>
        </mxCell>
        <mxCell id="pikG_pC4pp7GMESJav2v-19" style="edgeStyle=orthogonalEdgeStyle;rounded=0;orthogonalLoop=1;jettySize=auto;html=1;exitX=0.5;exitY=1;exitDx=0;exitDy=0;exitPerimeter=0;entryX=1;entryY=0.5;entryDx=0;entryDy=0;entryPerimeter=0;strokeWidth=2;endArrow=block;endFill=1;" parent="1" source="OKZK5eMBzPjaVZhn6dZi-1" target="pikG_pC4pp7GMESJav2v-17" edge="1">
          <mxGeometry relative="1" as="geometry">
            <Array as="points">
              <mxPoint x="218" y="597" />
              <mxPoint x="150" y="597" />
            </Array>
          </mxGeometry>
        </mxCell>
        <mxCell id="OKZK5eMBzPjaVZhn6dZi-1" value="&lt;b&gt;HREA_002&lt;br&gt;직원 정보 전체 &lt;br&gt;목록 화면&lt;br&gt;&lt;/b&gt;" style="strokeWidth=2;html=1;shape=mxgraph.flowchart.display;whiteSpace=wrap;fillColor=#fff2cc;strokeColor=#d6b656;" parent="1" vertex="1">
          <mxGeometry x="168.25" y="508.94000000000005" width="100" height="60" as="geometry" />
        </mxCell>
        <mxCell id="zHQxVPQ-z-5qYnCNXJvQ-1" value="&lt;b&gt;HREA_004&lt;br&gt;히스토리 전체 &lt;br&gt;목록 화면&lt;br&gt;&lt;/b&gt;" style="strokeWidth=2;html=1;shape=mxgraph.flowchart.display;whiteSpace=wrap;fillColor=#fff2cc;strokeColor=#d6b656;" parent="1" vertex="1">
          <mxGeometry x="346.25" y="508.94000000000005" width="100" height="60" as="geometry" />
        </mxCell>
        <mxCell id="3nzlv6OQich-edsY1b1v-6" value="" style="strokeWidth=2;html=1;shape=mxgraph.flowchart.annotation_1;align=left;pointerEvents=1;rotation=90;" parent="1" vertex="1">
          <mxGeometry x="268.54" y="370.23" width="77.43" height="178.97" as="geometry" />
        </mxCell>
        <mxCell id="I_k2-XdL7fjdcJ-TCrc_-1" value="" style="endArrow=none;html=1;rounded=0;strokeWidth=2;entryX=0.206;entryY=0.227;entryDx=0;entryDy=0;entryPerimeter=0;exitX=0.551;exitY=0.992;exitDx=0;exitDy=0;exitPerimeter=0;" parent="1" source="Hugdj5gKkHMqz_s-qgQf-1" edge="1">
          <mxGeometry width="50" height="50" relative="1" as="geometry">
            <mxPoint x="349.68000000000006" y="395.94" as="sourcePoint" />
            <mxPoint x="349.71000000000004" y="421.9439999999999" as="targetPoint" />
          </mxGeometry>
        </mxCell>
        <mxCell id="i86WY41s2gbhVPJ4vWtV-1" style="edgeStyle=orthogonalEdgeStyle;rounded=0;orthogonalLoop=1;jettySize=auto;html=1;exitX=0.5;exitY=1;exitDx=0;exitDy=0;exitPerimeter=0;entryX=0.5;entryY=0;entryDx=0;entryDy=0;entryPerimeter=0;strokeWidth=2;endArrow=block;endFill=1;" parent="1" source="i7OdZEiRwqIJVAkkVCPJ-1" target="jJ6OyN11swbLr_1LYnnS-2" edge="1">
          <mxGeometry relative="1" as="geometry" />
        </mxCell>
        <mxCell id="i7OdZEiRwqIJVAkkVCPJ-1" value="&lt;b&gt;HREA_005&lt;br&gt;히스토리 개별 &lt;br&gt;조회 화면&lt;br&gt;&lt;/b&gt;" style="strokeWidth=2;html=1;shape=mxgraph.flowchart.display;whiteSpace=wrap;fillColor=#fff2cc;strokeColor=#d6b656;" parent="1" vertex="1">
          <mxGeometry x="349" y="642.3599999999999" width="98.5" height="60" as="geometry" />
        </mxCell>
        <mxCell id="i7OdZEiRwqIJVAkkVCPJ-3" value="" style="endArrow=block;html=1;rounded=0;exitX=0.568;exitY=0.992;exitDx=0;exitDy=0;exitPerimeter=0;strokeWidth=2;endFill=1;entryX=0.555;entryY=-0.004;entryDx=0;entryDy=0;entryPerimeter=0;" parent="1" target="i7OdZEiRwqIJVAkkVCPJ-1" edge="1">
          <mxGeometry width="50" height="50" relative="1" as="geometry">
            <mxPoint x="403.05000000000007" y="568.9399999999999" as="sourcePoint" />
            <mxPoint x="403.25" y="604.3599999999999" as="targetPoint" />
          </mxGeometry>
        </mxCell>
        <mxCell id="A57ZD_cXtGfKmpxp5Ea4-1" style="edgeStyle=none;rounded=0;orthogonalLoop=1;jettySize=auto;html=1;exitX=0.5;exitY=1;exitDx=0;exitDy=0;exitPerimeter=0;entryX=0.5;entryY=0;entryDx=0;entryDy=0;strokeWidth=2;endArrow=block;endFill=1;" parent="1" target="A57ZD_cXtGfKmpxp5Ea4-3" edge="1">
          <mxGeometry relative="1" as="geometry">
            <mxPoint x="1435" y="395.98999999999995" as="sourcePoint" />
          </mxGeometry>
        </mxCell>
        <mxCell id="A57ZD_cXtGfKmpxp5Ea4-2" value="&lt;b&gt;&lt;br&gt;&lt;span data-sheets-userformat=&quot;{&amp;quot;2&amp;quot;:25343,&amp;quot;3&amp;quot;:{&amp;quot;1&amp;quot;:0},&amp;quot;4&amp;quot;:{&amp;quot;1&amp;quot;:2,&amp;quot;2&amp;quot;:14281427},&amp;quot;5&amp;quot;:{&amp;quot;1&amp;quot;:[{&amp;quot;1&amp;quot;:2,&amp;quot;2&amp;quot;:0,&amp;quot;5&amp;quot;:{&amp;quot;1&amp;quot;:2,&amp;quot;2&amp;quot;:0}},{&amp;quot;1&amp;quot;:0,&amp;quot;2&amp;quot;:0,&amp;quot;3&amp;quot;:3},{&amp;quot;1&amp;quot;:1,&amp;quot;2&amp;quot;:0,&amp;quot;4&amp;quot;:3}]},&amp;quot;6&amp;quot;:{&amp;quot;1&amp;quot;:[{&amp;quot;1&amp;quot;:2,&amp;quot;2&amp;quot;:0,&amp;quot;5&amp;quot;:{&amp;quot;1&amp;quot;:2,&amp;quot;2&amp;quot;:0}},{&amp;quot;1&amp;quot;:0,&amp;quot;2&amp;quot;:0,&amp;quot;3&amp;quot;:3},{&amp;quot;1&amp;quot;:1,&amp;quot;2&amp;quot;:0,&amp;quot;4&amp;quot;:1}]},&amp;quot;7&amp;quot;:{&amp;quot;1&amp;quot;:[{&amp;quot;1&amp;quot;:2,&amp;quot;2&amp;quot;:0,&amp;quot;5&amp;quot;:{&amp;quot;1&amp;quot;:2,&amp;quot;2&amp;quot;:0}},{&amp;quot;1&amp;quot;:0,&amp;quot;2&amp;quot;:0,&amp;quot;3&amp;quot;:3},{&amp;quot;1&amp;quot;:1,&amp;quot;2&amp;quot;:0,&amp;quot;4&amp;quot;:1}]},&amp;quot;8&amp;quot;:{&amp;quot;1&amp;quot;:[{&amp;quot;1&amp;quot;:2,&amp;quot;2&amp;quot;:0,&amp;quot;5&amp;quot;:{&amp;quot;1&amp;quot;:2,&amp;quot;2&amp;quot;:0}},{&amp;quot;1&amp;quot;:0,&amp;quot;2&amp;quot;:0,&amp;quot;3&amp;quot;:3},{&amp;quot;1&amp;quot;:1,&amp;quot;2&amp;quot;:0,&amp;quot;4&amp;quot;:1}]},&amp;quot;9&amp;quot;:1,&amp;quot;10&amp;quot;:1,&amp;quot;12&amp;quot;:0,&amp;quot;16&amp;quot;:10,&amp;quot;17&amp;quot;:1}&quot; data-sheets-value=&quot;{&amp;quot;1&amp;quot;:2,&amp;quot;2&amp;quot;:&amp;quot;GEN_001&amp;quot;}&quot; style=&quot;font-size: 10pt; font-family: Arial; font-style: normal; text-align: center;&quot;&gt;GEN_004&lt;br&gt;&lt;/span&gt;시스템 종료 &lt;br&gt;화면&lt;br&gt;&lt;/b&gt;" style="strokeWidth=2;html=1;shape=mxgraph.flowchart.display;whiteSpace=wrap;fillColor=#d5e8d4;strokeColor=#82b366;" parent="1" vertex="1">
          <mxGeometry x="1383" y="337.99" width="100" height="60" as="geometry" />
        </mxCell>
        <mxCell id="A57ZD_cXtGfKmpxp5Ea4-3" value="종료" style="rounded=1;whiteSpace=wrap;html=1;absoluteArcSize=1;arcSize=68;strokeWidth=2;fontStyle=1;fontSize=14;" parent="1" vertex="1">
          <mxGeometry x="1385" y="440.99" width="100" height="47" as="geometry" />
        </mxCell>
        <mxCell id="hTUv7Qc3s1Zqajw7pau8-1" value="&lt;b&gt;HREA_009&lt;br&gt;근태 기록 개별 &lt;br&gt;조회 화면&lt;br&gt;&lt;/b&gt;" style="strokeWidth=2;html=1;shape=mxgraph.flowchart.display;whiteSpace=wrap;fillColor=#fff2cc;strokeColor=#d6b656;" parent="1" vertex="1">
          <mxGeometry x="478.07" y="642.36" width="99.23" height="60" as="geometry" />
        </mxCell>
        <mxCell id="hTUv7Qc3s1Zqajw7pau8-12" style="edgeStyle=none;rounded=0;orthogonalLoop=1;jettySize=auto;html=1;exitX=0.5;exitY=1;exitDx=0;exitDy=0;exitPerimeter=0;entryX=0.5;entryY=0;entryDx=0;entryDy=0;entryPerimeter=0;strokeWidth=2;endArrow=block;endFill=1;" parent="1" source="hTUv7Qc3s1Zqajw7pau8-3" target="hTUv7Qc3s1Zqajw7pau8-1" edge="1">
          <mxGeometry relative="1" as="geometry" />
        </mxCell>
        <mxCell id="hTUv7Qc3s1Zqajw7pau8-3" value="&lt;b&gt;HREA_008&lt;br&gt;근태 기록 전체 &lt;br&gt;목록 화면&lt;br&gt;&lt;/b&gt;" style="strokeWidth=2;html=1;shape=mxgraph.flowchart.display;whiteSpace=wrap;fillColor=#fff2cc;strokeColor=#d6b656;" parent="1" vertex="1">
          <mxGeometry x="477.68" y="508.94000000000005" width="100" height="60" as="geometry" />
        </mxCell>
        <mxCell id="hTUv7Qc3s1Zqajw7pau8-13" style="edgeStyle=none;rounded=0;orthogonalLoop=1;jettySize=auto;html=1;exitX=0.5;exitY=1;exitDx=0;exitDy=0;exitPerimeter=0;entryX=0.5;entryY=0;entryDx=0;entryDy=0;entryPerimeter=0;strokeWidth=2;endArrow=block;endFill=1;" parent="1" edge="1">
          <mxGeometry relative="1" as="geometry">
            <mxPoint x="671.6799999999998" y="568.94" as="sourcePoint" />
            <mxPoint x="671.6800000000001" y="642.36" as="targetPoint" />
          </mxGeometry>
        </mxCell>
        <mxCell id="hTUv7Qc3s1Zqajw7pau8-5" value="&lt;b&gt;HREA_010&lt;br&gt;연차 승인 내역 &lt;br&gt;전체 목록 화면&lt;br&gt;&lt;/b&gt;" style="strokeWidth=2;html=1;shape=mxgraph.flowchart.display;whiteSpace=wrap;fillColor=#fff2cc;strokeColor=#d6b656;" parent="1" vertex="1">
          <mxGeometry x="615.68" y="508.94000000000005" width="100" height="60" as="geometry" />
        </mxCell>
        <mxCell id="i86WY41s2gbhVPJ4vWtV-2" style="edgeStyle=orthogonalEdgeStyle;rounded=0;orthogonalLoop=1;jettySize=auto;html=1;exitX=0.5;exitY=1;exitDx=0;exitDy=0;exitPerimeter=0;entryX=0.5;entryY=0;entryDx=0;entryDy=0;entryPerimeter=0;strokeWidth=2;endArrow=block;endFill=1;" parent="1" source="hTUv7Qc3s1Zqajw7pau8-6" target="jJ6OyN11swbLr_1LYnnS-1" edge="1">
          <mxGeometry relative="1" as="geometry" />
        </mxCell>
        <mxCell id="hTUv7Qc3s1Zqajw7pau8-6" value="&lt;b&gt;HREA_011&lt;br&gt;연차 승인 내역 &lt;br&gt;개별 조회 화면&lt;br&gt;&lt;/b&gt;" style="strokeWidth=2;html=1;shape=mxgraph.flowchart.display;whiteSpace=wrap;fillColor=#fff2cc;strokeColor=#d6b656;" parent="1" vertex="1">
          <mxGeometry x="610.77" y="642.36" width="109.82" height="60" as="geometry" />
        </mxCell>
        <mxCell id="hTUv7Qc3s1Zqajw7pau8-9" value="" style="strokeWidth=2;html=1;shape=mxgraph.flowchart.annotation_1;align=left;pointerEvents=1;rotation=90;" parent="1" vertex="1">
          <mxGeometry x="557.44" y="391.44" width="84.88" height="149.76" as="geometry" />
        </mxCell>
        <mxCell id="hTUv7Qc3s1Zqajw7pau8-11" value="" style="endArrow=none;html=1;rounded=0;strokeWidth=2;exitX=0.551;exitY=0.992;exitDx=0;exitDy=0;exitPerimeter=0;entryX=-0.012;entryY=0.325;entryDx=0;entryDy=0;entryPerimeter=0;" parent="1" target="hTUv7Qc3s1Zqajw7pau8-9" edge="1">
          <mxGeometry width="50" height="50" relative="1" as="geometry">
            <mxPoint x="625.97" y="395.99" as="sourcePoint" />
            <mxPoint x="626" y="427" as="targetPoint" />
          </mxGeometry>
        </mxCell>
        <mxCell id="hTUv7Qc3s1Zqajw7pau8-14" value="" style="triangle;whiteSpace=wrap;html=1;fillColor=#000000;rotation=90;" parent="1" vertex="1">
          <mxGeometry x="519.6800000000001" y="495.94" width="10" height="13" as="geometry" />
        </mxCell>
        <mxCell id="hTUv7Qc3s1Zqajw7pau8-15" value="" style="triangle;whiteSpace=wrap;html=1;fillColor=#000000;rotation=90;" parent="1" vertex="1">
          <mxGeometry x="669.6800000000001" y="495.94" width="10" height="13" as="geometry" />
        </mxCell>
        <mxCell id="i86WY41s2gbhVPJ4vWtV-3" style="edgeStyle=orthogonalEdgeStyle;rounded=0;orthogonalLoop=1;jettySize=auto;html=1;exitX=0.5;exitY=1;exitDx=0;exitDy=0;exitPerimeter=0;strokeWidth=2;endArrow=block;endFill=1;" parent="1" source="RJXlGpxO-bI5jZ3EkdL5-1" edge="1">
          <mxGeometry relative="1" as="geometry">
            <mxPoint x="790" y="640" as="targetPoint" />
          </mxGeometry>
        </mxCell>
        <mxCell id="RJXlGpxO-bI5jZ3EkdL5-1" value="&lt;b&gt;HREA_014&lt;br&gt;급여 정보 전체 &lt;br&gt;목록 화면&lt;br&gt;&lt;/b&gt;" style="strokeWidth=2;html=1;shape=mxgraph.flowchart.display;whiteSpace=wrap;fillColor=#fff2cc;strokeColor=#d6b656;" parent="1" vertex="1">
          <mxGeometry x="740" y="508.94000000000005" width="100" height="60" as="geometry" />
        </mxCell>
        <mxCell id="i86WY41s2gbhVPJ4vWtV-4" style="edgeStyle=orthogonalEdgeStyle;rounded=0;orthogonalLoop=1;jettySize=auto;html=1;exitX=0.5;exitY=1;exitDx=0;exitDy=0;exitPerimeter=0;entryX=0.5;entryY=0;entryDx=0;entryDy=0;entryPerimeter=0;strokeWidth=2;endArrow=block;endFill=1;" parent="1" source="RJXlGpxO-bI5jZ3EkdL5-2" target="RJXlGpxO-bI5jZ3EkdL5-6" edge="1">
          <mxGeometry relative="1" as="geometry" />
        </mxCell>
        <mxCell id="RJXlGpxO-bI5jZ3EkdL5-2" value="&lt;b&gt;HREA_016&lt;br&gt;급여 지급 내역 &lt;br&gt;전체 목록 화면&lt;br&gt;&lt;/b&gt;" style="strokeWidth=2;html=1;shape=mxgraph.flowchart.display;whiteSpace=wrap;fillColor=#fff2cc;strokeColor=#d6b656;" parent="1" vertex="1">
          <mxGeometry x="878.42" y="508.94000000000005" width="100" height="60" as="geometry" />
        </mxCell>
        <mxCell id="RJXlGpxO-bI5jZ3EkdL5-4" value="&lt;b&gt;HREA_015&lt;br&gt;급여 정보 개별 &lt;br&gt;조회 화면&lt;br&gt;&lt;/b&gt;" style="strokeWidth=2;html=1;shape=mxgraph.flowchart.display;whiteSpace=wrap;fillColor=#fff2cc;strokeColor=#d6b656;" parent="1" vertex="1">
          <mxGeometry x="733.8399999999999" y="643.84" width="102.32" height="60" as="geometry" />
        </mxCell>
        <mxCell id="i86WY41s2gbhVPJ4vWtV-5" style="edgeStyle=orthogonalEdgeStyle;rounded=0;orthogonalLoop=1;jettySize=auto;html=1;exitX=0.5;exitY=1;exitDx=0;exitDy=0;exitPerimeter=0;entryX=0.5;entryY=0;entryDx=0;entryDy=0;entryPerimeter=0;strokeWidth=2;endArrow=block;endFill=1;" parent="1" source="RJXlGpxO-bI5jZ3EkdL5-6" target="jJ6OyN11swbLr_1LYnnS-4" edge="1">
          <mxGeometry relative="1" as="geometry" />
        </mxCell>
        <mxCell id="RJXlGpxO-bI5jZ3EkdL5-6" value="&lt;b&gt;HREA_017&lt;br&gt;급여 지급 내역 개별 &lt;br&gt;조회 화면&lt;br&gt;&lt;/b&gt;" style="strokeWidth=2;html=1;shape=mxgraph.flowchart.display;whiteSpace=wrap;fillColor=#fff2cc;strokeColor=#d6b656;" parent="1" vertex="1">
          <mxGeometry x="868.42" y="643.84" width="120" height="60" as="geometry" />
        </mxCell>
        <mxCell id="RJXlGpxO-bI5jZ3EkdL5-7" value="" style="strokeWidth=2;html=1;shape=mxgraph.flowchart.annotation_1;align=left;pointerEvents=1;rotation=90;" parent="1" vertex="1">
          <mxGeometry x="817.76" y="391.44" width="84.88" height="149.76" as="geometry" />
        </mxCell>
        <mxCell id="RJXlGpxO-bI5jZ3EkdL5-8" value="" style="endArrow=none;html=1;rounded=0;strokeWidth=2;exitX=0.551;exitY=0.992;exitDx=0;exitDy=0;exitPerimeter=0;entryX=-0.012;entryY=0.325;entryDx=0;entryDy=0;entryPerimeter=0;" parent="1" edge="1">
          <mxGeometry width="50" height="50" relative="1" as="geometry">
            <mxPoint x="857.29" y="396.99" as="sourcePoint" />
            <mxPoint x="857.4079999999999" y="423.86144000000013" as="targetPoint" />
          </mxGeometry>
        </mxCell>
        <mxCell id="RJXlGpxO-bI5jZ3EkdL5-9" value="" style="triangle;whiteSpace=wrap;html=1;fillColor=#000000;rotation=90;" parent="1" vertex="1">
          <mxGeometry x="780" y="495.94" width="10" height="13" as="geometry" />
        </mxCell>
        <mxCell id="RJXlGpxO-bI5jZ3EkdL5-10" value="" style="triangle;whiteSpace=wrap;html=1;fillColor=#000000;rotation=90;" parent="1" vertex="1">
          <mxGeometry x="930" y="495.94" width="10" height="13" as="geometry" />
        </mxCell>
        <mxCell id="YgG3ts0OXiA32-VTboOp-5" style="edgeStyle=none;rounded=0;orthogonalLoop=1;jettySize=auto;html=1;exitX=0.5;exitY=1;exitDx=0;exitDy=0;exitPerimeter=0;strokeWidth=2;endArrow=block;endFill=1;" parent="1" source="FpQPJY8yFfkXGiU-n_uU-1" target="vgZRHO5zQsyUGKdF-Pul-1" edge="1">
          <mxGeometry relative="1" as="geometry" />
        </mxCell>
        <mxCell id="FpQPJY8yFfkXGiU-n_uU-1" value="&lt;b&gt;HREA_019&lt;br&gt;인사고과 조회&lt;br&gt;메뉴&lt;br&gt;&lt;/b&gt;" style="strokeWidth=2;html=1;shape=mxgraph.flowchart.display;whiteSpace=wrap;fillColor=#fff2cc;strokeColor=#d6b656;" parent="1" vertex="1">
          <mxGeometry x="1090" y="335.44000000000005" width="100" height="60" as="geometry" />
        </mxCell>
        <mxCell id="YgG3ts0OXiA32-VTboOp-7" style="edgeStyle=orthogonalEdgeStyle;rounded=0;orthogonalLoop=1;jettySize=auto;html=1;entryX=0.593;entryY=-0.028;entryDx=0;entryDy=0;entryPerimeter=0;strokeWidth=2;endArrow=block;endFill=1;" parent="1" edge="1">
          <mxGeometry relative="1" as="geometry">
            <mxPoint x="1140" y="496" as="sourcePoint" />
            <mxPoint x="1219.1249999999998" y="559.32" as="targetPoint" />
            <Array as="points">
              <mxPoint x="1140" y="530" />
              <mxPoint x="1219" y="530" />
            </Array>
          </mxGeometry>
        </mxCell>
        <mxCell id="pikG_pC4pp7GMESJav2v-1" style="edgeStyle=orthogonalEdgeStyle;rounded=0;orthogonalLoop=1;jettySize=auto;html=1;exitX=0.5;exitY=1;exitDx=0;exitDy=0;exitPerimeter=0;entryX=0.5;entryY=0;entryDx=0;entryDy=0;entryPerimeter=0;strokeWidth=2;endArrow=block;endFill=1;" parent="1" source="vgZRHO5zQsyUGKdF-Pul-1" target="YgG3ts0OXiA32-VTboOp-4" edge="1">
          <mxGeometry relative="1" as="geometry" />
        </mxCell>
        <mxCell id="vgZRHO5zQsyUGKdF-Pul-1" value="&lt;b&gt;HREA_020&lt;br&gt;평가 기록 전체 &lt;br&gt;목록 화면&lt;br&gt;&lt;/b&gt;" style="strokeWidth=2;html=1;shape=mxgraph.flowchart.display;whiteSpace=wrap;fillColor=#fff2cc;strokeColor=#d6b656;" parent="1" vertex="1">
          <mxGeometry x="1090" y="436.32" width="100" height="60" as="geometry" />
        </mxCell>
        <mxCell id="i86WY41s2gbhVPJ4vWtV-6" style="edgeStyle=orthogonalEdgeStyle;rounded=0;orthogonalLoop=1;jettySize=auto;html=1;exitX=0.5;exitY=1;exitDx=0;exitDy=0;exitPerimeter=0;entryX=0;entryY=0.5;entryDx=0;entryDy=0;entryPerimeter=0;strokeWidth=2;endArrow=block;endFill=1;" parent="1" source="YgG3ts0OXiA32-VTboOp-1" target="YgG3ts0OXiA32-VTboOp-4" edge="1">
          <mxGeometry relative="1" as="geometry">
            <Array as="points">
              <mxPoint x="1061" y="642" />
              <mxPoint x="1410" y="642" />
              <mxPoint x="1410" y="592" />
            </Array>
          </mxGeometry>
        </mxCell>
        <mxCell id="YgG3ts0OXiA32-VTboOp-1" value="&lt;b&gt;HREA_020&lt;br&gt;평가 기록 전체 &lt;br&gt;목록&lt;/b&gt;&lt;b style=&quot;border-color: var(--border-color);&quot;&gt;(부서별)&amp;nbsp;&lt;/b&gt;&lt;b&gt;화면&lt;br&gt;&lt;/b&gt;" style="strokeWidth=2;html=1;shape=mxgraph.flowchart.display;whiteSpace=wrap;fillColor=#fff2cc;strokeColor=#d6b656;" parent="1" vertex="1">
          <mxGeometry x="998.5799999999999" y="562" width="125" height="60" as="geometry" />
        </mxCell>
        <mxCell id="i86WY41s2gbhVPJ4vWtV-7" style="edgeStyle=orthogonalEdgeStyle;rounded=0;orthogonalLoop=1;jettySize=auto;html=1;exitX=0.5;exitY=1;exitDx=0;exitDy=0;exitPerimeter=0;entryX=0;entryY=0.5;entryDx=0;entryDy=0;entryPerimeter=0;strokeWidth=2;endArrow=block;endFill=1;" parent="1" source="YgG3ts0OXiA32-VTboOp-2" target="YgG3ts0OXiA32-VTboOp-4" edge="1">
          <mxGeometry relative="1" as="geometry">
            <Array as="points">
              <mxPoint x="1198" y="642" />
              <mxPoint x="1410" y="642" />
              <mxPoint x="1410" y="592" />
            </Array>
          </mxGeometry>
        </mxCell>
        <mxCell id="YgG3ts0OXiA32-VTboOp-2" value="&lt;b&gt;HREA_020&lt;br&gt;&lt;/b&gt;&lt;b style=&quot;border-color: var(--border-color);&quot;&gt;평가 기록 전체&lt;br style=&quot;border-color: var(--border-color);&quot;&gt;목록&lt;/b&gt;&lt;b style=&quot;border-color: var(--border-color);&quot;&gt;(직급별)&amp;nbsp;&lt;/b&gt;&lt;b style=&quot;border-color: var(--border-color);&quot;&gt;화면&lt;/b&gt;&lt;b&gt;&lt;br&gt;&lt;/b&gt;" style="strokeWidth=2;html=1;shape=mxgraph.flowchart.display;whiteSpace=wrap;fillColor=#fff2cc;strokeColor=#d6b656;" parent="1" vertex="1">
          <mxGeometry x="1135" y="562" width="125" height="60" as="geometry" />
        </mxCell>
        <mxCell id="i86WY41s2gbhVPJ4vWtV-9" style="edgeStyle=orthogonalEdgeStyle;rounded=0;orthogonalLoop=1;jettySize=auto;html=1;exitX=1;exitY=0.5;exitDx=0;exitDy=0;exitPerimeter=0;entryX=0;entryY=0.5;entryDx=0;entryDy=0;entryPerimeter=0;strokeWidth=2;endArrow=block;endFill=1;" parent="1" source="YgG3ts0OXiA32-VTboOp-3" target="YgG3ts0OXiA32-VTboOp-4" edge="1">
          <mxGeometry relative="1" as="geometry" />
        </mxCell>
        <mxCell id="YgG3ts0OXiA32-VTboOp-3" value="&lt;b&gt;HREA_020&lt;br&gt;평가 기록 전체 &lt;br&gt;목록&lt;/b&gt;&lt;b style=&quot;border-color: var(--border-color);&quot;&gt;(연도별)&amp;nbsp;&lt;/b&gt;&lt;b&gt;화면&lt;br&gt;&lt;/b&gt;" style="strokeWidth=2;html=1;shape=mxgraph.flowchart.display;whiteSpace=wrap;fillColor=#fff2cc;strokeColor=#d6b656;" parent="1" vertex="1">
          <mxGeometry x="1272" y="562.2" width="125" height="60" as="geometry" />
        </mxCell>
        <mxCell id="i86WY41s2gbhVPJ4vWtV-11" style="edgeStyle=orthogonalEdgeStyle;rounded=0;orthogonalLoop=1;jettySize=auto;html=1;exitX=0.5;exitY=1;exitDx=0;exitDy=0;exitPerimeter=0;entryX=0.5;entryY=0;entryDx=0;entryDy=0;entryPerimeter=0;strokeWidth=2;endArrow=block;endFill=1;" parent="1" source="YgG3ts0OXiA32-VTboOp-4" target="i86WY41s2gbhVPJ4vWtV-10" edge="1">
          <mxGeometry relative="1" as="geometry" />
        </mxCell>
        <mxCell id="YgG3ts0OXiA32-VTboOp-4" value="&lt;b&gt;HREA_021&lt;br&gt;&lt;/b&gt;&lt;b style=&quot;border-color: var(--border-color);&quot;&gt;평가 기록 개별&lt;br&gt;&lt;/b&gt;&lt;b style=&quot;border-color: var(--border-color);&quot;&gt;조회&amp;nbsp;&lt;/b&gt;&lt;b style=&quot;border-color: var(--border-color);&quot;&gt;화면&lt;/b&gt;&lt;b&gt;&lt;br&gt;&lt;/b&gt;" style="strokeWidth=2;html=1;shape=mxgraph.flowchart.display;whiteSpace=wrap;fillColor=#fff2cc;strokeColor=#d6b656;" parent="1" vertex="1">
          <mxGeometry x="1428" y="562" width="100" height="60" as="geometry" />
        </mxCell>
        <mxCell id="YgG3ts0OXiA32-VTboOp-6" value="" style="strokeWidth=2;html=1;shape=mxgraph.flowchart.annotation_1;align=left;pointerEvents=1;rotation=90;" parent="1" vertex="1">
          <mxGeometry x="1189.96" y="404.99" width="30" height="279.91" as="geometry" />
        </mxCell>
        <mxCell id="YgG3ts0OXiA32-VTboOp-8" value="" style="triangle;whiteSpace=wrap;html=1;fillColor=#000000;rotation=90;" parent="1" vertex="1">
          <mxGeometry x="1060" y="550.1999999999998" width="10" height="13" as="geometry" />
        </mxCell>
        <mxCell id="YgG3ts0OXiA32-VTboOp-9" value="" style="triangle;whiteSpace=wrap;html=1;fillColor=#000000;rotation=90;" parent="1" vertex="1">
          <mxGeometry x="1339" y="550.1999999999999" width="10" height="13" as="geometry" />
        </mxCell>
        <mxCell id="pikG_pC4pp7GMESJav2v-7" style="edgeStyle=orthogonalEdgeStyle;rounded=0;orthogonalLoop=1;jettySize=auto;html=1;exitX=0.5;exitY=1;exitDx=0;exitDy=0;exitPerimeter=0;entryX=0.5;entryY=1;entryDx=0;entryDy=0;entryPerimeter=0;strokeWidth=2;endArrow=block;endFill=1;" parent="1" source="pikG_pC4pp7GMESJav2v-8" target="pikG_pC4pp7GMESJav2v-13" edge="1">
          <mxGeometry relative="1" as="geometry" />
        </mxCell>
        <mxCell id="pikG_pC4pp7GMESJav2v-8" value="&lt;b&gt;HREA_002&lt;br&gt;직원 정보 전체 &lt;br&gt;목록&lt;/b&gt;&lt;b style=&quot;border-color: var(--border-color);&quot;&gt;(부서별)&amp;nbsp;&lt;/b&gt;&lt;b&gt;화면&lt;br&gt;&lt;/b&gt;" style="strokeWidth=2;html=1;shape=mxgraph.flowchart.display;whiteSpace=wrap;fillColor=#fff2cc;strokeColor=#d6b656;" parent="1" vertex="1">
          <mxGeometry x="-53" y="642.64" width="125" height="60" as="geometry" />
        </mxCell>
        <mxCell id="pikG_pC4pp7GMESJav2v-9" style="edgeStyle=orthogonalEdgeStyle;rounded=0;orthogonalLoop=1;jettySize=auto;html=1;exitX=0.5;exitY=1;exitDx=0;exitDy=0;exitPerimeter=0;entryX=0.5;entryY=1;entryDx=0;entryDy=0;entryPerimeter=0;strokeWidth=2;endArrow=block;endFill=1;" parent="1" source="pikG_pC4pp7GMESJav2v-10" target="pikG_pC4pp7GMESJav2v-13" edge="1">
          <mxGeometry relative="1" as="geometry" />
        </mxCell>
        <mxCell id="pikG_pC4pp7GMESJav2v-10" value="&lt;b&gt;HREA_002&lt;br&gt;&lt;/b&gt;&lt;b style=&quot;border-color: var(--border-color);&quot;&gt;직원 정보 전체&lt;br style=&quot;border-color: var(--border-color);&quot;&gt;목록&lt;/b&gt;&lt;b style=&quot;border-color: var(--border-color);&quot;&gt;(직급별)&amp;nbsp;&lt;/b&gt;&lt;b style=&quot;border-color: var(--border-color);&quot;&gt;화면&lt;/b&gt;&lt;b&gt;&lt;br&gt;&lt;/b&gt;" style="strokeWidth=2;html=1;shape=mxgraph.flowchart.display;whiteSpace=wrap;fillColor=#fff2cc;strokeColor=#d6b656;" parent="1" vertex="1">
          <mxGeometry x="89.42000000000007" y="642.64" width="125" height="60" as="geometry" />
        </mxCell>
        <mxCell id="pikG_pC4pp7GMESJav2v-13" value="&lt;b&gt;HREA_003&lt;br&gt;&lt;/b&gt;&lt;b style=&quot;border-color: var(--border-color);&quot;&gt;직원 정보 개별&lt;br&gt;&lt;/b&gt;&lt;b style=&quot;border-color: var(--border-color);&quot;&gt;조회&amp;nbsp;&lt;/b&gt;&lt;b style=&quot;border-color: var(--border-color);&quot;&gt;화면&lt;/b&gt;&lt;b&gt;&lt;br&gt;&lt;/b&gt;" style="strokeWidth=2;html=1;shape=mxgraph.flowchart.display;whiteSpace=wrap;fillColor=#fff2cc;strokeColor=#d6b656;" parent="1" vertex="1">
          <mxGeometry x="234" y="643.84" width="100" height="60" as="geometry" />
        </mxCell>
        <mxCell id="pikG_pC4pp7GMESJav2v-15" value="" style="triangle;whiteSpace=wrap;html=1;fillColor=#000000;rotation=90;" parent="1" vertex="1">
          <mxGeometry x="8.420000000000073" y="630.8399999999998" width="10" height="13" as="geometry" />
        </mxCell>
        <mxCell id="pikG_pC4pp7GMESJav2v-17" value="" style="strokeWidth=2;html=1;shape=mxgraph.flowchart.annotation_1;align=left;pointerEvents=1;rotation=90;" parent="1" vertex="1">
          <mxGeometry x="127.69" y="484.28" width="45.39" height="271.94" as="geometry" />
        </mxCell>
        <mxCell id="pikG_pC4pp7GMESJav2v-18" value="" style="triangle;whiteSpace=wrap;html=1;fillColor=#000000;rotation=90;" parent="1" vertex="1">
          <mxGeometry x="280.68000000000006" y="630.8399999999998" width="10" height="13" as="geometry" />
        </mxCell>
        <mxCell id="pikG_pC4pp7GMESJav2v-21" value="" style="endArrow=none;html=1;rounded=0;strokeWidth=2;" parent="1" edge="1">
          <mxGeometry width="50" height="50" relative="1" as="geometry">
            <mxPoint x="1140" y="280" as="sourcePoint" />
            <mxPoint x="1139.67" y="332.85" as="targetPoint" />
          </mxGeometry>
        </mxCell>
        <mxCell id="l3Mq4tuhXUugDt62RNBY-2" value="" style="group" parent="1" vertex="1" connectable="0">
          <mxGeometry x="797.6800000000001" y="56.93" width="100" height="70" as="geometry" />
        </mxCell>
        <mxCell id="oBPLP6154dvLL8T49oTh-18" value="" style="verticalLabelPosition=bottom;verticalAlign=top;html=1;shape=offPageConnector;rounded=0;size=0.42857142857142855;strokeWidth=2;fontStyle=1;fillColor=#f5f5f5;fontColor=#333333;strokeColor=#666666;labelBackgroundColor=default;" parent="l3Mq4tuhXUugDt62RNBY-2" vertex="1">
          <mxGeometry x="2.5" width="95" height="70" as="geometry" />
        </mxCell>
        <mxCell id="l3Mq4tuhXUugDt62RNBY-1" value="&lt;b&gt;화면 흐름도&lt;br&gt;NO.1에서 이동&lt;/b&gt;" style="text;html=1;align=center;verticalAlign=middle;resizable=0;points=[];autosize=1;strokeColor=none;fillColor=none;" parent="l3Mq4tuhXUugDt62RNBY-2" vertex="1">
          <mxGeometry y="5" width="100" height="40" as="geometry" />
        </mxCell>
        <mxCell id="jJ6OyN11swbLr_1LYnnS-1" value="&lt;b&gt;HREA_012&lt;br&gt;연차 승인 내역 &lt;br&gt;상세 조회 화면&lt;br&gt;&lt;/b&gt;" style="strokeWidth=2;html=1;shape=mxgraph.flowchart.display;whiteSpace=wrap;fillColor=#fff2cc;strokeColor=#d6b656;" parent="1" vertex="1">
          <mxGeometry x="610.77" y="750" width="109.82" height="60" as="geometry" />
        </mxCell>
        <mxCell id="jJ6OyN11swbLr_1LYnnS-2" value="&lt;b&gt;HREA_006&lt;br&gt;히스토리 상세&lt;br&gt;조회 화면&lt;br&gt;&lt;/b&gt;" style="strokeWidth=2;html=1;shape=mxgraph.flowchart.display;whiteSpace=wrap;fillColor=#fff2cc;strokeColor=#d6b656;" parent="1" vertex="1">
          <mxGeometry x="349" y="749.9999999999999" width="98.5" height="60" as="geometry" />
        </mxCell>
        <mxCell id="jJ6OyN11swbLr_1LYnnS-4" value="&lt;b&gt;HREA_018&lt;br&gt;급여 지급 내역 상세&lt;br&gt;조회 화면&lt;br&gt;&lt;/b&gt;" style="strokeWidth=2;html=1;shape=mxgraph.flowchart.display;whiteSpace=wrap;fillColor=#fff2cc;strokeColor=#d6b656;" parent="1" vertex="1">
          <mxGeometry x="868.42" y="750" width="120" height="60" as="geometry" />
        </mxCell>
        <mxCell id="i86WY41s2gbhVPJ4vWtV-10" value="&lt;b&gt;HREA_022&lt;br&gt;&lt;/b&gt;&lt;b style=&quot;border-color: var(--border-color);&quot;&gt;평가 기록 상세&lt;br&gt;&lt;/b&gt;&lt;b style=&quot;border-color: var(--border-color);&quot;&gt;조회&amp;nbsp;&lt;/b&gt;&lt;b style=&quot;border-color: var(--border-color);&quot;&gt;화면&lt;/b&gt;&lt;b&gt;&lt;br&gt;&lt;/b&gt;" style="strokeWidth=2;html=1;shape=mxgraph.flowchart.display;whiteSpace=wrap;fillColor=#fff2cc;strokeColor=#d6b656;" parent="1" vertex="1">
          <mxGeometry x="1428" y="690" width="100" height="60" as="geometry" />
        </mxCell>
      </root>
    </mxGraphModel>
  </diagram>
  <diagram id="jlmRsITkiPqYA0Wy2J7n" name="흐름도4">
    <mxGraphModel dx="1050" dy="573" grid="1" gridSize="10" guides="1" tooltips="1" connect="1" arrows="1" fold="1" page="1" pageScale="1" pageWidth="1169" pageHeight="1654" math="0" shadow="0">
      <root>
        <mxCell id="0" />
        <mxCell id="1" parent="0" />
        <mxCell id="NGWl0lP2tHj-4w2_tzLc-1" value="&lt;b&gt;AADM_000&lt;br&gt;경리팀 관리자&lt;br&gt;메뉴&lt;br&gt;&lt;/b&gt;" style="strokeWidth=2;html=1;shape=mxgraph.flowchart.display;whiteSpace=wrap;fillColor=#dae8fc;strokeColor=#6c8ebf;" parent="1" vertex="1">
          <mxGeometry x="531" y="172.56" width="100" height="60" as="geometry" />
        </mxCell>
        <mxCell id="QvIDreBgZtjHOB6ch17p-4" value="&lt;b&gt;AADM_002&lt;br&gt;급여 지급 내역&lt;br&gt;&amp;nbsp;메뉴&lt;br&gt;&lt;/b&gt;" style="strokeWidth=2;html=1;shape=mxgraph.flowchart.display;whiteSpace=wrap;fillColor=#dae8fc;strokeColor=#6c8ebf;" parent="1" vertex="1">
          <mxGeometry x="461" y="286.06" width="100" height="60" as="geometry" />
        </mxCell>
        <mxCell id="x7mEfC1GogyBqqOn63dL-2" value="" style="strokeWidth=2;html=1;shape=mxgraph.flowchart.annotation_2;align=left;labelPosition=right;pointerEvents=1;rotation=90;" parent="1" vertex="1">
          <mxGeometry x="561.07" y="181.25" width="50.37" height="152.5" as="geometry" />
        </mxCell>
        <mxCell id="id_hojy2Mdludqkmg4lu-1" value="" style="triangle;whiteSpace=wrap;html=1;fillColor=#000000;rotation=90;" parent="1" vertex="1">
          <mxGeometry x="505" y="273.06" width="10" height="13" as="geometry" />
        </mxCell>
        <mxCell id="id_hojy2Mdludqkmg4lu-3" value="" style="triangle;whiteSpace=wrap;html=1;fillColor=#000000;rotation=90;" parent="1" vertex="1">
          <mxGeometry x="657" y="270.06" width="10" height="13" as="geometry" />
        </mxCell>
        <mxCell id="X4464ovok3sVvi00Z3I_-5" style="edgeStyle=orthogonalEdgeStyle;rounded=0;orthogonalLoop=1;jettySize=auto;html=1;exitX=0.5;exitY=1;exitDx=0;exitDy=0;exitPerimeter=0;entryX=0.5;entryY=0;entryDx=0;entryDy=0;entryPerimeter=0;strokeWidth=2;endArrow=block;endFill=1;" parent="1" source="NGWl0lP2tHj-4w2_tzLc-2" target="0RZEOgmlxuPudq2tzjFF-7" edge="1">
          <mxGeometry relative="1" as="geometry" />
        </mxCell>
        <mxCell id="NGWl0lP2tHj-4w2_tzLc-2" value="&lt;b&gt;HREA_014&lt;br&gt;급여 정보 전체&lt;br&gt;목록 화면&lt;br&gt;&lt;/b&gt;" style="strokeWidth=2;html=1;shape=mxgraph.flowchart.display;whiteSpace=wrap;fillColor=#fff2cc;strokeColor=#d6b656;" parent="1" vertex="1">
          <mxGeometry x="312" y="400.18" width="100" height="60" as="geometry" />
        </mxCell>
        <mxCell id="NGWl0lP2tHj-4w2_tzLc-4" value="&lt;b&gt;AADM_006&lt;br&gt;급여 지급 내역&lt;br&gt;등록 화면&lt;br&gt;&lt;/b&gt;" style="strokeWidth=2;html=1;shape=mxgraph.flowchart.display;whiteSpace=wrap;fillColor=#dae8fc;strokeColor=#6c8ebf;" parent="1" vertex="1">
          <mxGeometry x="462.07" y="397.18" width="100" height="60" as="geometry" />
        </mxCell>
        <mxCell id="NGWl0lP2tHj-4w2_tzLc-5" value="&lt;b&gt;HREA_017&lt;br&gt;급여 지급 내역&lt;br&gt;전체 목록 화면&lt;br&gt;&lt;/b&gt;" style="strokeWidth=2;html=1;shape=mxgraph.flowchart.display;whiteSpace=wrap;fillColor=#fff2cc;strokeColor=#d6b656;" parent="1" vertex="1">
          <mxGeometry x="631" y="397.18" width="100" height="60" as="geometry" />
        </mxCell>
        <mxCell id="NGWl0lP2tHj-4w2_tzLc-6" value="&lt;b&gt;AADM_003&lt;br&gt;급여 정보 등록&lt;br&gt;화면&lt;br&gt;&lt;/b&gt;" style="strokeWidth=2;html=1;shape=mxgraph.flowchart.display;whiteSpace=wrap;fillColor=#dae8fc;strokeColor=#6c8ebf;" parent="1" vertex="1">
          <mxGeometry x="170" y="397.18" width="100" height="60" as="geometry" />
        </mxCell>
        <mxCell id="id_hojy2Mdludqkmg4lu-5" value="" style="triangle;whiteSpace=wrap;html=1;fillColor=#000000;rotation=90;" parent="1" vertex="1">
          <mxGeometry x="679" y="385.18" width="10" height="13" as="geometry" />
        </mxCell>
        <mxCell id="id_hojy2Mdludqkmg4lu-6" value="" style="triangle;whiteSpace=wrap;html=1;fillColor=#000000;rotation=90;" parent="1" vertex="1">
          <mxGeometry x="511.07" y="385.18" width="10" height="13" as="geometry" />
        </mxCell>
        <mxCell id="id_hojy2Mdludqkmg4lu-7" value="" style="triangle;whiteSpace=wrap;html=1;fillColor=#000000;rotation=90;" parent="1" vertex="1">
          <mxGeometry x="357" y="387.18" width="10" height="13" as="geometry" />
        </mxCell>
        <mxCell id="id_hojy2Mdludqkmg4lu-8" value="" style="triangle;whiteSpace=wrap;html=1;fillColor=#000000;rotation=90;" parent="1" vertex="1">
          <mxGeometry x="219" y="385.18" width="10" height="13" as="geometry" />
        </mxCell>
        <mxCell id="0RZEOgmlxuPudq2tzjFF-2" style="edgeStyle=none;rounded=0;orthogonalLoop=1;jettySize=auto;html=1;exitX=0.5;exitY=1;exitDx=0;exitDy=0;entryX=0.5;entryY=0;entryDx=0;entryDy=0;entryPerimeter=0;strokeWidth=2;endArrow=block;endFill=1;" parent="1" target="NGWl0lP2tHj-4w2_tzLc-1" edge="1">
          <mxGeometry relative="1" as="geometry">
            <mxPoint x="581.75" y="110" as="sourcePoint" />
          </mxGeometry>
        </mxCell>
        <mxCell id="0RZEOgmlxuPudq2tzjFF-7" value="&lt;b&gt;HREA_015&lt;br&gt;급여 정보 개별&lt;br&gt;조회 화면&lt;br&gt;&lt;/b&gt;" style="strokeWidth=2;html=1;shape=mxgraph.flowchart.display;whiteSpace=wrap;fillColor=#fff2cc;strokeColor=#d6b656;" parent="1" vertex="1">
          <mxGeometry x="312" y="507" width="100" height="60" as="geometry" />
        </mxCell>
        <mxCell id="0RZEOgmlxuPudq2tzjFF-11" value="&lt;b&gt;HREA_018&lt;br&gt;급여 지급 내역 &lt;br&gt;개별 조회 화면&lt;br&gt;&lt;/b&gt;" style="strokeWidth=2;html=1;shape=mxgraph.flowchart.display;whiteSpace=wrap;fillColor=#fff2cc;strokeColor=#d6b656;" parent="1" vertex="1">
          <mxGeometry x="639" y="506" width="100" height="60" as="geometry" />
        </mxCell>
        <mxCell id="FwyxUHH1Q3h35I7w6iZN-2" value="화면 흐름도 NO.4" style="text;html=1;strokeColor=none;fillColor=none;align=center;verticalAlign=middle;whiteSpace=wrap;rounded=0;fontSize=30;" parent="1" vertex="1">
          <mxGeometry x="300" y="50" width="190" height="30" as="geometry" />
        </mxCell>
        <mxCell id="elFC4nKxxTJwta64FmcY-7" value="&lt;b&gt;AADM_001&lt;br&gt;급여 정보 메뉴&lt;br&gt;&lt;/b&gt;" style="strokeWidth=2;html=1;shape=mxgraph.flowchart.display;whiteSpace=wrap;fillColor=#dae8fc;strokeColor=#6c8ebf;" parent="1" vertex="1">
          <mxGeometry x="306" y="286.06" width="100" height="60" as="geometry" />
        </mxCell>
        <mxCell id="elFC4nKxxTJwta64FmcY-8" value="" style="triangle;whiteSpace=wrap;html=1;fillColor=#000000;rotation=90;" parent="1" vertex="1">
          <mxGeometry x="350" y="273.06" width="10" height="13" as="geometry" />
        </mxCell>
        <mxCell id="elFC4nKxxTJwta64FmcY-9" value="" style="strokeWidth=2;html=1;shape=mxgraph.flowchart.annotation_1;align=left;pointerEvents=1;rotation=90;" parent="1" vertex="1">
          <mxGeometry x="419.35" y="192.34" width="26.07" height="156.25" as="geometry" />
        </mxCell>
        <mxCell id="elFC4nKxxTJwta64FmcY-10" value="" style="strokeWidth=2;html=1;shape=mxgraph.flowchart.annotation_1;align=left;pointerEvents=1;rotation=90;" parent="1" vertex="1">
          <mxGeometry x="284.5" y="314.5" width="19" height="138" as="geometry" />
        </mxCell>
        <mxCell id="elFC4nKxxTJwta64FmcY-11" value="" style="endArrow=none;html=1;rounded=0;strokeWidth=2;exitX=0.5;exitY=1;exitDx=0;exitDy=0;exitPerimeter=0;" parent="1" source="elFC4nKxxTJwta64FmcY-7" edge="1">
          <mxGeometry width="50" height="50" relative="1" as="geometry">
            <mxPoint x="356" y="350" as="sourcePoint" />
            <mxPoint x="356" y="373" as="targetPoint" />
          </mxGeometry>
        </mxCell>
        <mxCell id="elFC4nKxxTJwta64FmcY-12" value="" style="strokeWidth=2;html=1;shape=mxgraph.flowchart.annotation_1;align=left;pointerEvents=1;rotation=90;" parent="1" vertex="1">
          <mxGeometry x="590.93" y="297.65" width="16.71" height="168.59" as="geometry" />
        </mxCell>
        <mxCell id="elFC4nKxxTJwta64FmcY-14" value="" style="endArrow=none;html=1;rounded=0;strokeWidth=2;exitX=0.5;exitY=1;exitDx=0;exitDy=0;exitPerimeter=0;" parent="1" edge="1">
          <mxGeometry width="50" height="50" relative="1" as="geometry">
            <mxPoint x="514.8199999999999" y="346.06" as="sourcePoint" />
            <mxPoint x="514.8199999999999" y="373.06" as="targetPoint" />
          </mxGeometry>
        </mxCell>
        <mxCell id="NBl2VK8qtLKiAbA3Qbja-1" style="edgeStyle=orthogonalEdgeStyle;rounded=0;orthogonalLoop=1;jettySize=auto;html=1;exitX=0.5;exitY=1;exitDx=0;exitDy=0;exitPerimeter=0;entryX=0.5;entryY=0;entryDx=0;entryDy=0;entryPerimeter=0;strokeWidth=2;endArrow=block;endFill=1;" parent="1" source="0RZEOgmlxuPudq2tzjFF-22" edge="1">
          <mxGeometry relative="1" as="geometry">
            <mxPoint x="436" y="784.04" as="sourcePoint" />
            <mxPoint x="940" y="524.04" as="targetPoint" />
            <Array as="points">
              <mxPoint x="436" y="682" />
              <mxPoint x="436" y="804" />
              <mxPoint x="845" y="804" />
              <mxPoint x="845" y="504" />
              <mxPoint x="940" y="504" />
            </Array>
          </mxGeometry>
        </mxCell>
        <mxCell id="0RZEOgmlxuPudq2tzjFF-22" value="&lt;b style=&quot;border-color: var(--border-color);&quot;&gt;AADM_005&lt;/b&gt;&lt;b&gt;&lt;br&gt;급여 정보 삭제&lt;br&gt;화면&lt;br&gt;&lt;/b&gt;" style="strokeWidth=2;html=1;shape=mxgraph.flowchart.display;whiteSpace=wrap;fillColor=#dae8fc;strokeColor=#6c8ebf;" parent="1" vertex="1">
          <mxGeometry x="385" y="622.04" width="100" height="60" as="geometry" />
        </mxCell>
        <mxCell id="0RZEOgmlxuPudq2tzjFF-23" value="&lt;b style=&quot;border-color: var(--border-color);&quot;&gt;AADM_004&lt;br&gt;&lt;/b&gt;&lt;b&gt;급여 정보 수정&amp;nbsp;&lt;br&gt;화면&lt;br&gt;&lt;/b&gt;" style="strokeWidth=2;html=1;shape=mxgraph.flowchart.display;whiteSpace=wrap;fillColor=#dae8fc;strokeColor=#6c8ebf;" parent="1" vertex="1">
          <mxGeometry x="239" y="622.04" width="100" height="60" as="geometry" />
        </mxCell>
        <mxCell id="0RZEOgmlxuPudq2tzjFF-24" value="" style="triangle;whiteSpace=wrap;html=1;fillColor=#000000;rotation=90;" parent="1" vertex="1">
          <mxGeometry x="430" y="609.04" width="10" height="13" as="geometry" />
        </mxCell>
        <mxCell id="0RZEOgmlxuPudq2tzjFF-25" value="" style="triangle;whiteSpace=wrap;html=1;fillColor=#000000;rotation=90;" parent="1" vertex="1">
          <mxGeometry x="289" y="610.04" width="10" height="13" as="geometry" />
        </mxCell>
        <mxCell id="0RZEOgmlxuPudq2tzjFF-26" value="" style="strokeWidth=2;html=1;shape=mxgraph.flowchart.annotation_2;align=left;labelPosition=right;pointerEvents=1;rotation=90;" parent="1" vertex="1">
          <mxGeometry x="339" y="522.04" width="50" height="141" as="geometry" />
        </mxCell>
        <mxCell id="elFC4nKxxTJwta64FmcY-15" style="edgeStyle=orthogonalEdgeStyle;rounded=0;orthogonalLoop=1;jettySize=auto;html=1;exitX=0.5;exitY=1;exitDx=0;exitDy=0;exitPerimeter=0;entryX=0.5;entryY=0;entryDx=0;entryDy=0;entryPerimeter=0;strokeWidth=2;endArrow=block;endFill=1;" parent="1" source="0RZEOgmlxuPudq2tzjFF-27" target="zP47Th--QhcdJ92NPsbS-3" edge="1">
          <mxGeometry relative="1" as="geometry" />
        </mxCell>
        <mxCell id="0RZEOgmlxuPudq2tzjFF-27" value="&lt;b style=&quot;border-color: var(--border-color);&quot;&gt;AADM_008&lt;/b&gt;&lt;b&gt;&lt;br&gt;급여 지급 내역 &lt;br&gt;삭제 화면&lt;br&gt;&lt;/b&gt;" style="strokeWidth=2;html=1;shape=mxgraph.flowchart.display;whiteSpace=wrap;fillColor=#dae8fc;strokeColor=#6c8ebf;" parent="1" vertex="1">
          <mxGeometry x="709" y="724.04" width="100" height="60" as="geometry" />
        </mxCell>
        <mxCell id="0RZEOgmlxuPudq2tzjFF-28" value="&lt;b style=&quot;border-color: var(--border-color);&quot;&gt;AADM_007&lt;br&gt;&lt;/b&gt;&lt;b&gt;급여 지급 내역 &lt;br&gt;수정&amp;nbsp;화면&lt;br&gt;&lt;/b&gt;" style="strokeWidth=2;html=1;shape=mxgraph.flowchart.display;whiteSpace=wrap;fillColor=#dae8fc;strokeColor=#6c8ebf;" parent="1" vertex="1">
          <mxGeometry x="563" y="724.04" width="100" height="60" as="geometry" />
        </mxCell>
        <mxCell id="0RZEOgmlxuPudq2tzjFF-29" value="" style="triangle;whiteSpace=wrap;html=1;fillColor=#000000;rotation=90;" parent="1" vertex="1">
          <mxGeometry x="754" y="711.04" width="10" height="13" as="geometry" />
        </mxCell>
        <mxCell id="0RZEOgmlxuPudq2tzjFF-30" value="" style="triangle;whiteSpace=wrap;html=1;fillColor=#000000;rotation=90;" parent="1" vertex="1">
          <mxGeometry x="613" y="712.04" width="10" height="13" as="geometry" />
        </mxCell>
        <mxCell id="0RZEOgmlxuPudq2tzjFF-31" value="" style="strokeWidth=2;html=1;shape=mxgraph.flowchart.annotation_2;align=left;labelPosition=right;pointerEvents=1;rotation=90;" parent="1" vertex="1">
          <mxGeometry x="663" y="624.04" width="50" height="141" as="geometry" />
        </mxCell>
        <mxCell id="zP47Th--QhcdJ92NPsbS-3" value="삭제 여부" style="strokeWidth=2;html=1;shape=mxgraph.flowchart.decision;whiteSpace=wrap;fontStyle=1;fillColor=#f9f7ed;strokeColor=#36393d;" parent="1" vertex="1">
          <mxGeometry x="884" y="524.04" width="110" height="57" as="geometry" />
        </mxCell>
        <mxCell id="zP47Th--QhcdJ92NPsbS-5" value="YES" style="text;html=1;strokeColor=none;fillColor=none;align=center;verticalAlign=middle;whiteSpace=wrap;rounded=0;fontStyle=1" parent="1" vertex="1">
          <mxGeometry x="888.5" y="576.04" width="60" height="30" as="geometry" />
        </mxCell>
        <mxCell id="zP47Th--QhcdJ92NPsbS-6" value="NO" style="text;html=1;strokeColor=none;fillColor=none;align=center;verticalAlign=middle;whiteSpace=wrap;rounded=0;fontStyle=1" parent="1" vertex="1">
          <mxGeometry x="970" y="581.04" width="60" height="30" as="geometry" />
        </mxCell>
        <mxCell id="zP47Th--QhcdJ92NPsbS-7" value="삭제" style="rounded=0;whiteSpace=wrap;html=1;fontStyle=1;strokeWidth=2;" parent="1" vertex="1">
          <mxGeometry x="891.5" y="626.04" width="95" height="50" as="geometry" />
        </mxCell>
        <mxCell id="zP47Th--QhcdJ92NPsbS-1" style="edgeStyle=none;rounded=0;orthogonalLoop=1;jettySize=auto;html=1;exitX=0.5;exitY=1;exitDx=0;exitDy=0;exitPerimeter=0;entryX=0.5;entryY=0;entryDx=0;entryDy=0;strokeWidth=2;endArrow=block;endFill=1;" parent="1" source="zP47Th--QhcdJ92NPsbS-3" target="zP47Th--QhcdJ92NPsbS-7" edge="1">
          <mxGeometry relative="1" as="geometry" />
        </mxCell>
        <mxCell id="zP47Th--QhcdJ92NPsbS-8" style="edgeStyle=none;rounded=0;orthogonalLoop=1;jettySize=auto;html=1;exitX=0.5;exitY=1;exitDx=0;exitDy=0;exitPerimeter=0;strokeWidth=2;endArrow=block;endFill=1;" parent="1" edge="1">
          <mxGeometry relative="1" as="geometry">
            <mxPoint x="939" y="676.04" as="sourcePoint" />
            <mxPoint x="939" y="711.04" as="targetPoint" />
          </mxGeometry>
        </mxCell>
        <mxCell id="zP47Th--QhcdJ92NPsbS-9" value="&lt;b&gt;AADM_001&lt;br&gt;급여 관리 메뉴&lt;br&gt;&lt;/b&gt;" style="strokeWidth=2;html=1;shape=mxgraph.flowchart.display;whiteSpace=wrap;fillColor=#dae8fc;strokeColor=#6c8ebf;" parent="1" vertex="1">
          <mxGeometry x="888.5" y="712.04" width="100" height="60" as="geometry" />
        </mxCell>
        <mxCell id="zP47Th--QhcdJ92NPsbS-2" style="edgeStyle=orthogonalEdgeStyle;rounded=0;orthogonalLoop=1;jettySize=auto;html=1;exitX=1;exitY=0.5;exitDx=0;exitDy=0;exitPerimeter=0;entryX=1;entryY=0.5;entryDx=0;entryDy=0;entryPerimeter=0;strokeWidth=2;endArrow=block;endFill=1;" parent="1" source="zP47Th--QhcdJ92NPsbS-3" target="zP47Th--QhcdJ92NPsbS-9" edge="1">
          <mxGeometry relative="1" as="geometry">
            <mxPoint x="989.5" y="740.04" as="targetPoint" />
          </mxGeometry>
        </mxCell>
        <mxCell id="bCJE20YjJo3MbuqJaGtN-4" style="edgeStyle=orthogonalEdgeStyle;rounded=0;orthogonalLoop=1;jettySize=auto;html=1;exitX=1;exitY=0.5;exitDx=0;exitDy=0;exitPerimeter=0;entryX=0;entryY=0.5;entryDx=0;entryDy=0;strokeWidth=2;endArrow=block;endFill=1;" parent="1" source="bCJE20YjJo3MbuqJaGtN-2" target="bCJE20YjJo3MbuqJaGtN-3" edge="1">
          <mxGeometry relative="1" as="geometry" />
        </mxCell>
        <mxCell id="bCJE20YjJo3MbuqJaGtN-2" value="&lt;b&gt;&lt;br&gt;&lt;span data-sheets-userformat=&quot;{&amp;quot;2&amp;quot;:25343,&amp;quot;3&amp;quot;:{&amp;quot;1&amp;quot;:0},&amp;quot;4&amp;quot;:{&amp;quot;1&amp;quot;:2,&amp;quot;2&amp;quot;:14281427},&amp;quot;5&amp;quot;:{&amp;quot;1&amp;quot;:[{&amp;quot;1&amp;quot;:2,&amp;quot;2&amp;quot;:0,&amp;quot;5&amp;quot;:{&amp;quot;1&amp;quot;:2,&amp;quot;2&amp;quot;:0}},{&amp;quot;1&amp;quot;:0,&amp;quot;2&amp;quot;:0,&amp;quot;3&amp;quot;:3},{&amp;quot;1&amp;quot;:1,&amp;quot;2&amp;quot;:0,&amp;quot;4&amp;quot;:3}]},&amp;quot;6&amp;quot;:{&amp;quot;1&amp;quot;:[{&amp;quot;1&amp;quot;:2,&amp;quot;2&amp;quot;:0,&amp;quot;5&amp;quot;:{&amp;quot;1&amp;quot;:2,&amp;quot;2&amp;quot;:0}},{&amp;quot;1&amp;quot;:0,&amp;quot;2&amp;quot;:0,&amp;quot;3&amp;quot;:3},{&amp;quot;1&amp;quot;:1,&amp;quot;2&amp;quot;:0,&amp;quot;4&amp;quot;:1}]},&amp;quot;7&amp;quot;:{&amp;quot;1&amp;quot;:[{&amp;quot;1&amp;quot;:2,&amp;quot;2&amp;quot;:0,&amp;quot;5&amp;quot;:{&amp;quot;1&amp;quot;:2,&amp;quot;2&amp;quot;:0}},{&amp;quot;1&amp;quot;:0,&amp;quot;2&amp;quot;:0,&amp;quot;3&amp;quot;:3},{&amp;quot;1&amp;quot;:1,&amp;quot;2&amp;quot;:0,&amp;quot;4&amp;quot;:1}]},&amp;quot;8&amp;quot;:{&amp;quot;1&amp;quot;:[{&amp;quot;1&amp;quot;:2,&amp;quot;2&amp;quot;:0,&amp;quot;5&amp;quot;:{&amp;quot;1&amp;quot;:2,&amp;quot;2&amp;quot;:0}},{&amp;quot;1&amp;quot;:0,&amp;quot;2&amp;quot;:0,&amp;quot;3&amp;quot;:3},{&amp;quot;1&amp;quot;:1,&amp;quot;2&amp;quot;:0,&amp;quot;4&amp;quot;:1}]},&amp;quot;9&amp;quot;:1,&amp;quot;10&amp;quot;:1,&amp;quot;12&amp;quot;:0,&amp;quot;16&amp;quot;:10,&amp;quot;17&amp;quot;:1}&quot; data-sheets-value=&quot;{&amp;quot;1&amp;quot;:2,&amp;quot;2&amp;quot;:&amp;quot;GEN_001&amp;quot;}&quot; style=&quot;font-size: 10pt; font-family: Arial; font-style: normal; text-align: center;&quot;&gt;GEN_004&lt;br&gt;&lt;/span&gt;시스템 종료 &lt;br&gt;화면&lt;br&gt;&lt;/b&gt;" style="strokeWidth=2;html=1;shape=mxgraph.flowchart.display;whiteSpace=wrap;fillColor=#d5e8d4;strokeColor=#82b366;" parent="1" vertex="1">
          <mxGeometry x="607" y="283.06" width="100" height="60" as="geometry" />
        </mxCell>
        <mxCell id="bCJE20YjJo3MbuqJaGtN-3" value="종료" style="rounded=1;whiteSpace=wrap;html=1;absoluteArcSize=1;arcSize=68;strokeWidth=2;fontStyle=1;fontSize=14;" parent="1" vertex="1">
          <mxGeometry x="789" y="289.56" width="100" height="47" as="geometry" />
        </mxCell>
        <mxCell id="dQPZpe-qxNwwHqnPrC-B-1" value="" style="group" parent="1" vertex="1" connectable="0">
          <mxGeometry x="532" y="40" width="100" height="70" as="geometry" />
        </mxCell>
        <mxCell id="dQPZpe-qxNwwHqnPrC-B-2" value="" style="verticalLabelPosition=bottom;verticalAlign=top;html=1;shape=offPageConnector;rounded=0;size=0.42857142857142855;strokeWidth=2;fontStyle=1;fillColor=#f5f5f5;fontColor=#333333;strokeColor=#666666;labelBackgroundColor=default;" parent="dQPZpe-qxNwwHqnPrC-B-1" vertex="1">
          <mxGeometry x="2.5" width="95" height="70" as="geometry" />
        </mxCell>
        <mxCell id="dQPZpe-qxNwwHqnPrC-B-3" value="&lt;b&gt;화면 흐름도&lt;br&gt;NO.1에서 이동&lt;/b&gt;" style="text;html=1;align=center;verticalAlign=middle;resizable=0;points=[];autosize=1;strokeColor=none;fillColor=none;" parent="dQPZpe-qxNwwHqnPrC-B-1" vertex="1">
          <mxGeometry y="5" width="100" height="40" as="geometry" />
        </mxCell>
        <mxCell id="P45WsWyZhfaVS3CAxQ3H-1" value="※ MEMO : 등록, 조회, 수정, 삭제, &lt;br&gt;서브메뉴 등의 기능을 끝내면 이전의&lt;br&gt;메뉴 화면으로 돌아간다.&amp;nbsp;" style="text;html=1;strokeColor=none;fillColor=none;align=left;verticalAlign=middle;whiteSpace=wrap;rounded=0;fontStyle=1" parent="1" vertex="1">
          <mxGeometry x="299" y="110" width="205" height="30" as="geometry" />
        </mxCell>
        <mxCell id="X4464ovok3sVvi00Z3I_-2" value="&lt;b&gt;HREA_019&lt;br&gt;급여 지급 상세&lt;br&gt;개별 조회 화면&lt;br&gt;&lt;/b&gt;" style="strokeWidth=2;html=1;shape=mxgraph.flowchart.display;whiteSpace=wrap;fillColor=#fff2cc;strokeColor=#d6b656;" parent="1" vertex="1">
          <mxGeometry x="639" y="611" width="100" height="60" as="geometry" />
        </mxCell>
        <mxCell id="X4464ovok3sVvi00Z3I_-4" style="edgeStyle=orthogonalEdgeStyle;rounded=0;orthogonalLoop=1;jettySize=auto;html=1;exitX=0.5;exitY=1;exitDx=0;exitDy=0;exitPerimeter=0;entryX=0.5;entryY=0;entryDx=0;entryDy=0;entryPerimeter=0;strokeWidth=2;endArrow=block;endFill=1;" parent="1" edge="1">
          <mxGeometry relative="1" as="geometry">
            <mxPoint x="691.5" y="566" as="sourcePoint" />
            <mxPoint x="691.5" y="610" as="targetPoint" />
          </mxGeometry>
        </mxCell>
        <mxCell id="X4464ovok3sVvi00Z3I_-6" style="edgeStyle=orthogonalEdgeStyle;rounded=0;orthogonalLoop=1;jettySize=auto;html=1;exitX=0.5;exitY=1;exitDx=0;exitDy=0;exitPerimeter=0;entryX=0.5;entryY=0;entryDx=0;entryDy=0;entryPerimeter=0;strokeWidth=2;endArrow=block;endFill=1;" parent="1" edge="1">
          <mxGeometry relative="1" as="geometry">
            <mxPoint x="687.5" y="457.18" as="sourcePoint" />
            <mxPoint x="687.5" y="504.18" as="targetPoint" />
          </mxGeometry>
        </mxCell>
      </root>
    </mxGraphModel>
  </diagram>
  <diagram id="KhuZjDtoTbcPztdlphao" name="페이지-2">
    <mxGraphModel dx="1050" dy="573" grid="1" gridSize="10" guides="1" tooltips="1" connect="1" arrows="1" fold="1" page="1" pageScale="1" pageWidth="1169" pageHeight="1654" math="0" shadow="0">
      <root>
        <mxCell id="0" />
        <mxCell id="1" parent="0" />
        <mxCell id="rqjWNs2yHb7rJ4_FSIJg-1" value="&lt;b&gt;HREA_000&lt;br&gt;인사팀 열람자&lt;br&gt;메뉴&lt;br&gt;&lt;/b&gt;" style="strokeWidth=2;html=1;shape=mxgraph.flowchart.display;whiteSpace=wrap;fillColor=#fff2cc;strokeColor=#d6b656;" parent="1" vertex="1">
          <mxGeometry x="50" y="60" width="100" height="60" as="geometry" />
        </mxCell>
        <mxCell id="Q3N7QeYNrEX9_IRc6dik-1" value="" style="strokeWidth=2;html=1;shape=mxgraph.flowchart.annotation_1;align=left;pointerEvents=1;" parent="1" vertex="1">
          <mxGeometry x="195" y="90" width="50" height="760" as="geometry" />
        </mxCell>
        <mxCell id="nvHxhPzGaSFeYFTVbMfK-4" style="edgeStyle=orthogonalEdgeStyle;rounded=0;orthogonalLoop=1;jettySize=auto;html=1;exitX=1;exitY=0.5;exitDx=0;exitDy=0;exitPerimeter=0;entryX=0;entryY=0.5;entryDx=0;entryDy=0;entryPerimeter=0;strokeWidth=2;endArrow=block;endFill=1;" parent="1" source="Q3N7QeYNrEX9_IRc6dik-2" target="nvHxhPzGaSFeYFTVbMfK-1" edge="1">
          <mxGeometry relative="1" as="geometry" />
        </mxCell>
        <mxCell id="nvHxhPzGaSFeYFTVbMfK-13" style="edgeStyle=orthogonalEdgeStyle;rounded=0;orthogonalLoop=1;jettySize=auto;html=1;exitX=1;exitY=0.5;exitDx=0;exitDy=0;exitPerimeter=0;entryX=0;entryY=0.5;entryDx=0;entryDy=0;entryPerimeter=0;strokeWidth=2;endArrow=block;endFill=1;" parent="1" source="Q3N7QeYNrEX9_IRc6dik-2" target="nvHxhPzGaSFeYFTVbMfK-2" edge="1">
          <mxGeometry relative="1" as="geometry" />
        </mxCell>
        <mxCell id="Q3N7QeYNrEX9_IRc6dik-2" value="&lt;b&gt;HREA_001&lt;br&gt;직원 정보 조회&lt;br&gt;메뉴&lt;br&gt;&lt;/b&gt;" style="strokeWidth=2;html=1;shape=mxgraph.flowchart.display;whiteSpace=wrap;fillColor=#fff2cc;strokeColor=#d6b656;" parent="1" vertex="1">
          <mxGeometry x="245" y="60" width="100" height="60" as="geometry" />
        </mxCell>
        <mxCell id="Q3N7QeYNrEX9_IRc6dik-3" value="&lt;b&gt;HREA_006&lt;br&gt;근태 기록 조회&lt;br&gt;메뉴&lt;br&gt;&lt;/b&gt;" style="strokeWidth=2;html=1;shape=mxgraph.flowchart.display;whiteSpace=wrap;fillColor=#fff2cc;strokeColor=#d6b656;" parent="1" vertex="1">
          <mxGeometry x="245" y="365" width="100" height="60" as="geometry" />
        </mxCell>
        <mxCell id="Q3N7QeYNrEX9_IRc6dik-4" value="&lt;b&gt;HREA_011&lt;br&gt;급여 조회&lt;br&gt;메뉴&lt;br&gt;&lt;/b&gt;" style="strokeWidth=2;html=1;shape=mxgraph.flowchart.display;whiteSpace=wrap;fillColor=#fff2cc;strokeColor=#d6b656;" parent="1" vertex="1">
          <mxGeometry x="245" y="525" width="100" height="60" as="geometry" />
        </mxCell>
        <mxCell id="Q3N7QeYNrEX9_IRc6dik-5" value="&lt;b&gt;HREA_016&lt;br&gt;인사고과 조회&lt;br&gt;메뉴&lt;br&gt;&lt;/b&gt;" style="strokeWidth=2;html=1;shape=mxgraph.flowchart.display;whiteSpace=wrap;fillColor=#fff2cc;strokeColor=#d6b656;" parent="1" vertex="1">
          <mxGeometry x="245" y="820" width="100" height="60" as="geometry" />
        </mxCell>
        <mxCell id="Q3N7QeYNrEX9_IRc6dik-6" value="" style="strokeWidth=2;html=1;shape=mxgraph.flowchart.annotation_1;align=left;pointerEvents=1;" parent="1" vertex="1">
          <mxGeometry x="195" y="395" width="50" height="160" as="geometry" />
        </mxCell>
        <mxCell id="Q3N7QeYNrEX9_IRc6dik-7" value="" style="endArrow=none;html=1;rounded=0;strokeWidth=2;" parent="1" edge="1">
          <mxGeometry width="50" height="50" relative="1" as="geometry">
            <mxPoint x="150" y="90" as="sourcePoint" />
            <mxPoint x="230" y="90" as="targetPoint" />
          </mxGeometry>
        </mxCell>
        <mxCell id="P5ANv31UewrrpLW20TTn-1" value="" style="triangle;whiteSpace=wrap;html=1;fillColor=#000000;rotation=0;" parent="1" vertex="1">
          <mxGeometry x="235" y="83.5" width="10" height="13" as="geometry" />
        </mxCell>
        <mxCell id="P5ANv31UewrrpLW20TTn-3" value="" style="triangle;whiteSpace=wrap;html=1;fillColor=#000000;rotation=0;" parent="1" vertex="1">
          <mxGeometry x="235" y="389" width="10" height="13" as="geometry" />
        </mxCell>
        <mxCell id="P5ANv31UewrrpLW20TTn-4" value="" style="triangle;whiteSpace=wrap;html=1;fillColor=#000000;rotation=0;" parent="1" vertex="1">
          <mxGeometry x="235" y="549" width="10" height="13" as="geometry" />
        </mxCell>
        <mxCell id="P5ANv31UewrrpLW20TTn-5" value="" style="triangle;whiteSpace=wrap;html=1;fillColor=#000000;rotation=0;" parent="1" vertex="1">
          <mxGeometry x="235" y="842" width="10" height="13" as="geometry" />
        </mxCell>
        <mxCell id="P5ANv31UewrrpLW20TTn-7" value="&lt;b&gt;HREA_002&lt;br&gt;직원 정보 전체 &lt;br&gt;목록(부서별) 화면&lt;br&gt;&lt;/b&gt;" style="strokeWidth=2;html=1;shape=mxgraph.flowchart.display;whiteSpace=wrap;fillColor=#fff2cc;strokeColor=#d6b656;" parent="1" vertex="1">
          <mxGeometry x="557" y="60" width="123" height="60" as="geometry" />
        </mxCell>
        <mxCell id="P5ANv31UewrrpLW20TTn-8" value="&lt;b&gt;HREA_002&lt;br&gt;직원 정보 전체 &lt;br&gt;목록(직급별) 화면&lt;br&gt;&lt;/b&gt;" style="strokeWidth=2;html=1;shape=mxgraph.flowchart.display;whiteSpace=wrap;fillColor=#fff2cc;strokeColor=#d6b656;" parent="1" vertex="1">
          <mxGeometry x="557" y="130" width="123" height="60" as="geometry" />
        </mxCell>
        <mxCell id="P5ANv31UewrrpLW20TTn-9" value="&lt;b&gt;HREA_003&lt;br&gt;직원 정보 개별 &lt;br&gt;조회 화면&lt;br&gt;&lt;/b&gt;" style="strokeWidth=2;html=1;shape=mxgraph.flowchart.display;whiteSpace=wrap;fillColor=#fff2cc;strokeColor=#d6b656;" parent="1" vertex="1">
          <mxGeometry x="557" y="200" width="123" height="60" as="geometry" />
        </mxCell>
        <mxCell id="nvHxhPzGaSFeYFTVbMfK-8" style="edgeStyle=none;rounded=0;orthogonalLoop=1;jettySize=auto;html=1;exitX=1;exitY=0.5;exitDx=0;exitDy=0;exitPerimeter=0;entryX=0;entryY=0.5;entryDx=0;entryDy=0;entryPerimeter=0;strokeWidth=2;endArrow=block;endFill=1;" parent="1" source="nvHxhPzGaSFeYFTVbMfK-1" target="P5ANv31UewrrpLW20TTn-7" edge="1">
          <mxGeometry relative="1" as="geometry">
            <mxPoint x="502" y="90" as="sourcePoint" />
            <mxPoint x="552" y="90" as="targetPoint" />
          </mxGeometry>
        </mxCell>
        <mxCell id="nvHxhPzGaSFeYFTVbMfK-1" value="&lt;b&gt;HREA_002&lt;br&gt;직원 정보 전체 &lt;br&gt;목록 화면&lt;br&gt;&lt;/b&gt;" style="strokeWidth=2;html=1;shape=mxgraph.flowchart.display;whiteSpace=wrap;fillColor=#fff2cc;strokeColor=#d6b656;" parent="1" vertex="1">
          <mxGeometry x="400" y="60" width="100" height="60" as="geometry" />
        </mxCell>
        <mxCell id="nvHxhPzGaSFeYFTVbMfK-14" style="edgeStyle=orthogonalEdgeStyle;rounded=0;orthogonalLoop=1;jettySize=auto;html=1;exitX=1;exitY=0.5;exitDx=0;exitDy=0;exitPerimeter=0;entryX=0;entryY=0.5;entryDx=0;entryDy=0;entryPerimeter=0;strokeWidth=2;endArrow=block;endFill=1;" parent="1" source="nvHxhPzGaSFeYFTVbMfK-2" target="nvHxhPzGaSFeYFTVbMfK-3" edge="1">
          <mxGeometry relative="1" as="geometry" />
        </mxCell>
        <mxCell id="nvHxhPzGaSFeYFTVbMfK-2" value="&lt;b&gt;HREA_004&lt;br&gt;히스토리 전체 &lt;br&gt;목록 화면&lt;br&gt;&lt;/b&gt;" style="strokeWidth=2;html=1;shape=mxgraph.flowchart.display;whiteSpace=wrap;fillColor=#fff2cc;strokeColor=#d6b656;" parent="1" vertex="1">
          <mxGeometry x="400" y="270" width="100" height="60" as="geometry" />
        </mxCell>
        <mxCell id="nvHxhPzGaSFeYFTVbMfK-3" value="&lt;b&gt;HREA_005&lt;br&gt;히스토리 개별 &lt;br&gt;조회 화면&lt;br&gt;&lt;/b&gt;" style="strokeWidth=2;html=1;shape=mxgraph.flowchart.display;whiteSpace=wrap;fillColor=#fff2cc;strokeColor=#d6b656;" parent="1" vertex="1">
          <mxGeometry x="557" y="270" width="123" height="60" as="geometry" />
        </mxCell>
        <mxCell id="nvHxhPzGaSFeYFTVbMfK-6" value="" style="strokeWidth=2;html=1;shape=mxgraph.flowchart.annotation_1;align=left;pointerEvents=1;" parent="1" vertex="1">
          <mxGeometry x="530" y="160" width="20" height="70" as="geometry" />
        </mxCell>
        <mxCell id="nvHxhPzGaSFeYFTVbMfK-9" value="" style="triangle;whiteSpace=wrap;html=1;fillColor=#000000;rotation=0;" parent="1" vertex="1">
          <mxGeometry x="547" y="153.5" width="10" height="13" as="geometry" />
        </mxCell>
        <mxCell id="nvHxhPzGaSFeYFTVbMfK-10" value="" style="triangle;whiteSpace=wrap;html=1;fillColor=#000000;rotation=0;" parent="1" vertex="1">
          <mxGeometry x="547" y="223.5" width="10" height="13" as="geometry" />
        </mxCell>
        <mxCell id="nvHxhPzGaSFeYFTVbMfK-12" value="" style="strokeWidth=2;html=1;shape=mxgraph.flowchart.annotation_1;align=left;pointerEvents=1;" parent="1" vertex="1">
          <mxGeometry x="530" y="90" width="27" height="70" as="geometry" />
        </mxCell>
        <mxCell id="nvHxhPzGaSFeYFTVbMfK-19" value="&lt;b&gt;HREA_008&lt;br&gt;근태 기록 개별 &lt;br&gt;조회 화면&lt;br&gt;&lt;/b&gt;" style="strokeWidth=2;html=1;shape=mxgraph.flowchart.display;whiteSpace=wrap;fillColor=#fff2cc;strokeColor=#d6b656;" parent="1" vertex="1">
          <mxGeometry x="557" y="364" width="123" height="60" as="geometry" />
        </mxCell>
        <mxCell id="nvHxhPzGaSFeYFTVbMfK-20" style="edgeStyle=none;rounded=0;orthogonalLoop=1;jettySize=auto;html=1;exitX=1;exitY=0.5;exitDx=0;exitDy=0;exitPerimeter=0;entryX=0;entryY=0.5;entryDx=0;entryDy=0;entryPerimeter=0;strokeWidth=2;endArrow=block;endFill=1;" parent="1" source="nvHxhPzGaSFeYFTVbMfK-21" edge="1">
          <mxGeometry relative="1" as="geometry">
            <mxPoint x="502" y="394" as="sourcePoint" />
            <mxPoint x="557" y="394" as="targetPoint" />
          </mxGeometry>
        </mxCell>
        <mxCell id="nvHxhPzGaSFeYFTVbMfK-21" value="&lt;b&gt;HREA_007&lt;br&gt;근태 기록 전체 &lt;br&gt;목록 화면&lt;br&gt;&lt;/b&gt;" style="strokeWidth=2;html=1;shape=mxgraph.flowchart.display;whiteSpace=wrap;fillColor=#fff2cc;strokeColor=#d6b656;" parent="1" vertex="1">
          <mxGeometry x="400" y="364" width="100" height="60" as="geometry" />
        </mxCell>
        <mxCell id="nvHxhPzGaSFeYFTVbMfK-22" style="edgeStyle=orthogonalEdgeStyle;rounded=0;orthogonalLoop=1;jettySize=auto;html=1;exitX=1;exitY=0.5;exitDx=0;exitDy=0;exitPerimeter=0;entryX=0;entryY=0.5;entryDx=0;entryDy=0;entryPerimeter=0;strokeWidth=2;endArrow=block;endFill=1;" parent="1" source="nvHxhPzGaSFeYFTVbMfK-23" target="nvHxhPzGaSFeYFTVbMfK-24" edge="1">
          <mxGeometry relative="1" as="geometry" />
        </mxCell>
        <mxCell id="nvHxhPzGaSFeYFTVbMfK-23" value="&lt;b&gt;HREA_009&lt;br&gt;연차 승인 내역 &lt;br&gt;전체 목록 화면&lt;br&gt;&lt;/b&gt;" style="strokeWidth=2;html=1;shape=mxgraph.flowchart.display;whiteSpace=wrap;fillColor=#fff2cc;strokeColor=#d6b656;" parent="1" vertex="1">
          <mxGeometry x="400" y="441" width="100" height="60" as="geometry" />
        </mxCell>
        <mxCell id="nvHxhPzGaSFeYFTVbMfK-24" value="&lt;b&gt;HREA_010&lt;br&gt;연차 승인 내역 &lt;br&gt;개별 조회 화면&lt;br&gt;&lt;/b&gt;" style="strokeWidth=2;html=1;shape=mxgraph.flowchart.display;whiteSpace=wrap;fillColor=#fff2cc;strokeColor=#d6b656;" parent="1" vertex="1">
          <mxGeometry x="557" y="441" width="123" height="60" as="geometry" />
        </mxCell>
        <mxCell id="nvHxhPzGaSFeYFTVbMfK-29" value="" style="strokeWidth=2;html=1;shape=mxgraph.flowchart.annotation_1;align=left;pointerEvents=1;" parent="1" vertex="1">
          <mxGeometry x="380" y="395" width="20" height="75" as="geometry" />
        </mxCell>
        <mxCell id="nvHxhPzGaSFeYFTVbMfK-31" value="" style="endArrow=block;html=1;rounded=0;exitX=1;exitY=0.5;exitDx=0;exitDy=0;exitPerimeter=0;strokeWidth=2;endFill=1;" parent="1" source="Q3N7QeYNrEX9_IRc6dik-3" edge="1">
          <mxGeometry width="50" height="50" relative="1" as="geometry">
            <mxPoint x="350" y="395" as="sourcePoint" />
            <mxPoint x="400" y="395" as="targetPoint" />
          </mxGeometry>
        </mxCell>
        <mxCell id="nvHxhPzGaSFeYFTVbMfK-32" value="" style="triangle;whiteSpace=wrap;html=1;fillColor=#000000;rotation=0;" parent="1" vertex="1">
          <mxGeometry x="389" y="463.5" width="10" height="13" as="geometry" />
        </mxCell>
        <mxCell id="nvHxhPzGaSFeYFTVbMfK-35" value="&lt;b&gt;HREA_012&lt;br&gt;급여 정보 전체 &lt;br&gt;목록 화면&lt;br&gt;&lt;/b&gt;" style="strokeWidth=2;html=1;shape=mxgraph.flowchart.display;whiteSpace=wrap;fillColor=#fff2cc;strokeColor=#d6b656;" parent="1" vertex="1">
          <mxGeometry x="400" y="524" width="100" height="60" as="geometry" />
        </mxCell>
        <mxCell id="nvHxhPzGaSFeYFTVbMfK-37" value="&lt;b&gt;HREA_014&lt;br&gt;급여 지급 내역 &lt;br&gt;전체 목록 화면&lt;br&gt;&lt;/b&gt;" style="strokeWidth=2;html=1;shape=mxgraph.flowchart.display;whiteSpace=wrap;fillColor=#fff2cc;strokeColor=#d6b656;" parent="1" vertex="1">
          <mxGeometry x="400" y="670" width="100" height="60" as="geometry" />
        </mxCell>
        <mxCell id="nvHxhPzGaSFeYFTVbMfK-39" value="" style="strokeWidth=2;html=1;shape=mxgraph.flowchart.annotation_1;align=left;pointerEvents=1;" parent="1" vertex="1">
          <mxGeometry x="380" y="555" width="20" height="145" as="geometry" />
        </mxCell>
        <mxCell id="nvHxhPzGaSFeYFTVbMfK-40" value="" style="endArrow=block;html=1;rounded=0;exitX=1;exitY=0.5;exitDx=0;exitDy=0;exitPerimeter=0;strokeWidth=2;endFill=1;" parent="1" edge="1">
          <mxGeometry width="50" height="50" relative="1" as="geometry">
            <mxPoint x="345" y="555" as="sourcePoint" />
            <mxPoint x="400" y="555" as="targetPoint" />
          </mxGeometry>
        </mxCell>
        <mxCell id="nvHxhPzGaSFeYFTVbMfK-41" value="" style="triangle;whiteSpace=wrap;html=1;fillColor=#000000;rotation=0;" parent="1" vertex="1">
          <mxGeometry x="389" y="692.5" width="10" height="13" as="geometry" />
        </mxCell>
        <mxCell id="nvHxhPzGaSFeYFTVbMfK-42" value="&lt;b&gt;HREA_012&lt;br&gt;급여 정보 전체 &lt;br&gt;목록(기본급) 화면&lt;br&gt;&lt;/b&gt;" style="strokeWidth=2;html=1;shape=mxgraph.flowchart.display;whiteSpace=wrap;fillColor=#fff2cc;strokeColor=#d6b656;" parent="1" vertex="1">
          <mxGeometry x="555" y="524" width="125" height="60" as="geometry" />
        </mxCell>
        <mxCell id="nvHxhPzGaSFeYFTVbMfK-43" value="&lt;b&gt;HREA_013&lt;br&gt;급여 정보 개별 &lt;br&gt;조회 화면&lt;br&gt;&lt;/b&gt;" style="strokeWidth=2;html=1;shape=mxgraph.flowchart.display;whiteSpace=wrap;fillColor=#fff2cc;strokeColor=#d6b656;" parent="1" vertex="1">
          <mxGeometry x="555" y="594" width="125" height="60" as="geometry" />
        </mxCell>
        <mxCell id="nvHxhPzGaSFeYFTVbMfK-44" value="" style="strokeWidth=2;html=1;shape=mxgraph.flowchart.annotation_1;align=left;pointerEvents=1;" parent="1" vertex="1">
          <mxGeometry x="535" y="555" width="20" height="69" as="geometry" />
        </mxCell>
        <mxCell id="nvHxhPzGaSFeYFTVbMfK-45" value="" style="endArrow=block;html=1;rounded=0;exitX=1;exitY=0.5;exitDx=0;exitDy=0;exitPerimeter=0;strokeWidth=2;endFill=1;" parent="1" edge="1">
          <mxGeometry width="50" height="50" relative="1" as="geometry">
            <mxPoint x="500" y="555" as="sourcePoint" />
            <mxPoint x="555" y="555" as="targetPoint" />
          </mxGeometry>
        </mxCell>
        <mxCell id="nvHxhPzGaSFeYFTVbMfK-46" value="" style="triangle;whiteSpace=wrap;html=1;fillColor=#000000;rotation=0;" parent="1" vertex="1">
          <mxGeometry x="544" y="616.5" width="10" height="13" as="geometry" />
        </mxCell>
        <mxCell id="nvHxhPzGaSFeYFTVbMfK-47" value="&lt;b&gt;HREA_014&lt;br&gt;급여 지급 내역 전체 &lt;br&gt;목록(기본급) 화면&lt;br&gt;&lt;/b&gt;" style="strokeWidth=2;html=1;shape=mxgraph.flowchart.display;whiteSpace=wrap;fillColor=#fff2cc;strokeColor=#d6b656;" parent="1" vertex="1">
          <mxGeometry x="555" y="670" width="125" height="60" as="geometry" />
        </mxCell>
        <mxCell id="nvHxhPzGaSFeYFTVbMfK-48" value="&lt;b&gt;HREA_015&lt;br&gt;급여 지급 내역 개별 &lt;br&gt;조회 화면&lt;br&gt;&lt;/b&gt;" style="strokeWidth=2;html=1;shape=mxgraph.flowchart.display;whiteSpace=wrap;fillColor=#fff2cc;strokeColor=#d6b656;" parent="1" vertex="1">
          <mxGeometry x="555" y="740" width="125" height="60" as="geometry" />
        </mxCell>
        <mxCell id="nvHxhPzGaSFeYFTVbMfK-49" value="" style="strokeWidth=2;html=1;shape=mxgraph.flowchart.annotation_1;align=left;pointerEvents=1;" parent="1" vertex="1">
          <mxGeometry x="535" y="701" width="20" height="69" as="geometry" />
        </mxCell>
        <mxCell id="nvHxhPzGaSFeYFTVbMfK-50" value="" style="endArrow=block;html=1;rounded=0;exitX=1;exitY=0.5;exitDx=0;exitDy=0;exitPerimeter=0;strokeWidth=2;endFill=1;" parent="1" edge="1">
          <mxGeometry width="50" height="50" relative="1" as="geometry">
            <mxPoint x="500" y="701" as="sourcePoint" />
            <mxPoint x="555" y="701" as="targetPoint" />
          </mxGeometry>
        </mxCell>
        <mxCell id="nvHxhPzGaSFeYFTVbMfK-51" value="" style="triangle;whiteSpace=wrap;html=1;fillColor=#000000;rotation=0;" parent="1" vertex="1">
          <mxGeometry x="544" y="762.5" width="10" height="13" as="geometry" />
        </mxCell>
        <mxCell id="nvHxhPzGaSFeYFTVbMfK-52" value="&lt;b&gt;HREA_017&lt;br&gt;평가 기록 전체 &lt;br&gt;목록 화면&lt;br&gt;&lt;/b&gt;" style="strokeWidth=2;html=1;shape=mxgraph.flowchart.display;whiteSpace=wrap;fillColor=#fff2cc;strokeColor=#d6b656;" parent="1" vertex="1">
          <mxGeometry x="400" y="820" width="100" height="60" as="geometry" />
        </mxCell>
        <mxCell id="nvHxhPzGaSFeYFTVbMfK-55" value="" style="endArrow=block;html=1;rounded=0;exitX=1;exitY=0.5;exitDx=0;exitDy=0;exitPerimeter=0;strokeWidth=2;endFill=1;" parent="1" edge="1">
          <mxGeometry width="50" height="50" relative="1" as="geometry">
            <mxPoint x="345" y="851" as="sourcePoint" />
            <mxPoint x="400" y="851" as="targetPoint" />
          </mxGeometry>
        </mxCell>
        <mxCell id="nvHxhPzGaSFeYFTVbMfK-57" value="&lt;b&gt;HREA_017&lt;br&gt;평가 기록 전체 &lt;br&gt;목록&lt;/b&gt;&lt;b style=&quot;border-color: var(--border-color);&quot;&gt;(부서별)&amp;nbsp;&lt;/b&gt;&lt;b&gt;화면&lt;br&gt;&lt;/b&gt;" style="strokeWidth=2;html=1;shape=mxgraph.flowchart.display;whiteSpace=wrap;fillColor=#fff2cc;strokeColor=#d6b656;" parent="1" vertex="1">
          <mxGeometry x="555" y="820" width="125" height="60" as="geometry" />
        </mxCell>
        <mxCell id="nvHxhPzGaSFeYFTVbMfK-58" value="&lt;b&gt;HREA_017&lt;br&gt;&lt;/b&gt;&lt;b style=&quot;border-color: var(--border-color);&quot;&gt;평가 기록 전체&lt;br style=&quot;border-color: var(--border-color);&quot;&gt;목록&lt;/b&gt;&lt;b style=&quot;border-color: var(--border-color);&quot;&gt;(직급별)&amp;nbsp;&lt;/b&gt;&lt;b style=&quot;border-color: var(--border-color);&quot;&gt;화면&lt;/b&gt;&lt;b&gt;&lt;br&gt;&lt;/b&gt;" style="strokeWidth=2;html=1;shape=mxgraph.flowchart.display;whiteSpace=wrap;fillColor=#fff2cc;strokeColor=#d6b656;" parent="1" vertex="1">
          <mxGeometry x="555" y="890.5" width="125" height="60" as="geometry" />
        </mxCell>
        <mxCell id="nvHxhPzGaSFeYFTVbMfK-59" value="" style="strokeWidth=2;html=1;shape=mxgraph.flowchart.annotation_1;align=left;pointerEvents=1;" parent="1" vertex="1">
          <mxGeometry x="535" y="851" width="20" height="69" as="geometry" />
        </mxCell>
        <mxCell id="nvHxhPzGaSFeYFTVbMfK-60" value="" style="endArrow=block;html=1;rounded=0;exitX=1;exitY=0.5;exitDx=0;exitDy=0;exitPerimeter=0;strokeWidth=2;endFill=1;" parent="1" edge="1">
          <mxGeometry width="50" height="50" relative="1" as="geometry">
            <mxPoint x="500" y="851" as="sourcePoint" />
            <mxPoint x="555" y="851" as="targetPoint" />
          </mxGeometry>
        </mxCell>
        <mxCell id="nvHxhPzGaSFeYFTVbMfK-61" value="" style="triangle;whiteSpace=wrap;html=1;fillColor=#000000;rotation=0;" parent="1" vertex="1">
          <mxGeometry x="544" y="913" width="10" height="13" as="geometry" />
        </mxCell>
        <mxCell id="nvHxhPzGaSFeYFTVbMfK-62" value="&lt;b&gt;HREA_017&lt;br&gt;평가 기록 전체 &lt;br&gt;목록&lt;/b&gt;&lt;b style=&quot;border-color: var(--border-color);&quot;&gt;(연도별)&amp;nbsp;&lt;/b&gt;&lt;b&gt;화면&lt;br&gt;&lt;/b&gt;" style="strokeWidth=2;html=1;shape=mxgraph.flowchart.display;whiteSpace=wrap;fillColor=#fff2cc;strokeColor=#d6b656;" parent="1" vertex="1">
          <mxGeometry x="555" y="960" width="125" height="60" as="geometry" />
        </mxCell>
        <mxCell id="nvHxhPzGaSFeYFTVbMfK-63" value="&lt;b&gt;HREA_018&lt;br&gt;&lt;/b&gt;&lt;b style=&quot;border-color: var(--border-color);&quot;&gt;평가 기록 개별&lt;br&gt;&lt;/b&gt;&lt;b style=&quot;border-color: var(--border-color);&quot;&gt;조회&amp;nbsp;&lt;/b&gt;&lt;b style=&quot;border-color: var(--border-color);&quot;&gt;화면&lt;/b&gt;&lt;b&gt;&lt;br&gt;&lt;/b&gt;" style="strokeWidth=2;html=1;shape=mxgraph.flowchart.display;whiteSpace=wrap;fillColor=#fff2cc;strokeColor=#d6b656;" parent="1" vertex="1">
          <mxGeometry x="555" y="1030.5" width="125" height="60" as="geometry" />
        </mxCell>
        <mxCell id="nvHxhPzGaSFeYFTVbMfK-64" value="" style="strokeWidth=2;html=1;shape=mxgraph.flowchart.annotation_1;align=left;pointerEvents=1;" parent="1" vertex="1">
          <mxGeometry x="535" y="991" width="20" height="69" as="geometry" />
        </mxCell>
        <mxCell id="nvHxhPzGaSFeYFTVbMfK-65" value="" style="triangle;whiteSpace=wrap;html=1;fillColor=#000000;rotation=0;" parent="1" vertex="1">
          <mxGeometry x="544" y="1053" width="10" height="13" as="geometry" />
        </mxCell>
        <mxCell id="nvHxhPzGaSFeYFTVbMfK-67" value="" style="endArrow=none;html=1;rounded=0;strokeWidth=2;" parent="1" edge="1">
          <mxGeometry width="50" height="50" relative="1" as="geometry">
            <mxPoint x="535" y="1003" as="sourcePoint" />
            <mxPoint x="535" y="913" as="targetPoint" />
          </mxGeometry>
        </mxCell>
        <mxCell id="nvHxhPzGaSFeYFTVbMfK-68" value="" style="triangle;whiteSpace=wrap;html=1;fillColor=#000000;rotation=0;" parent="1" vertex="1">
          <mxGeometry x="545" y="983.5" width="10" height="13" as="geometry" />
        </mxCell>
        <mxCell id="JaWy5TUDTK1H9MCJ3hne-1" value="※ MEMO : 조회 기능을 끝내면 이전 메뉴로 돌아간다.&amp;nbsp;" style="text;html=1;strokeColor=none;fillColor=none;align=left;verticalAlign=middle;whiteSpace=wrap;rounded=0;fontStyle=1" parent="1" vertex="1">
          <mxGeometry x="710" y="40" width="180" height="30" as="geometry" />
        </mxCell>
        <mxCell id="p3MTay-zRnZEPYjK4Jsf-1" value="흐름도3&lt;br style=&quot;font-size: 20px;&quot;&gt;수정 전" style="text;html=1;strokeColor=none;fillColor=none;align=center;verticalAlign=middle;whiteSpace=wrap;rounded=0;fontSize=20;" parent="1" vertex="1">
          <mxGeometry x="720" y="97" width="140" height="56.5" as="geometry" />
        </mxCell>
      </root>
    </mxGraphModel>
  </diagram>
</mxfile>
